solid OpenSCAD_Model
  facet normal -1 0 0
    outer loop
      vertex -7.5 3.69529 -2.13988
      vertex -7.5 15 -5
      vertex -7.5 3 -2.25
    endloop
  endfacet
  facet normal -1 0 0
    outer loop
      vertex -7.5 3 2.25
      vertex -7.5 -15 5
      vertex -7.5 15 5
    endloop
  endfacet
  facet normal -1 0 0
    outer loop
      vertex -7.5 -15 -5
      vertex -7.5 -15 5
      vertex -7.5 0.860123 -0.695288
    endloop
  endfacet
  facet normal -1 0 0
    outer loop
      vertex -7.5 -15 -5
      vertex -7.5 0.860123 -0.695288
      vertex -7.5 1.17971 -1.32252
    endloop
  endfacet
  facet normal -1 0 0
    outer loop
      vertex -7.5 -15 -5
      vertex -7.5 1.17971 -1.32252
      vertex -7.5 1.67748 -1.82029
    endloop
  endfacet
  facet normal -1 0 0
    outer loop
      vertex -7.5 -15 -5
      vertex -7.5 1.67748 -1.82029
      vertex -7.5 2.30471 -2.13988
    endloop
  endfacet
  facet normal -1 0 0
    outer loop
      vertex -7.5 -15 -5
      vertex -7.5 2.30471 -2.13988
      vertex -7.5 15 -5
    endloop
  endfacet
  facet normal -1 0 0
    outer loop
      vertex -7.5 2.30471 -2.13988
      vertex -7.5 3 -2.25
      vertex -7.5 15 -5
    endloop
  endfacet
  facet normal -1 0 0
    outer loop
      vertex -7.5 4.32252 -1.82029
      vertex -7.5 15 -5
      vertex -7.5 3.69529 -2.13988
    endloop
  endfacet
  facet normal -1 0 0
    outer loop
      vertex -7.5 4.82029 -1.32252
      vertex -7.5 15 -5
      vertex -7.5 4.32252 -1.82029
    endloop
  endfacet
  facet normal -1 0 0
    outer loop
      vertex -7.5 4.32252 1.82029
      vertex -7.5 15 5
      vertex -7.5 4.82029 1.32252
    endloop
  endfacet
  facet normal -1 0 0
    outer loop
      vertex -7.5 8.97138 1.41578
      vertex -7.5 5.13988 -0.695288
      vertex -7.5 15 5
    endloop
  endfacet
  facet normal -1 0 0
    outer loop
      vertex -7.5 5.13988 -0.695288
      vertex -7.5 5.25 0
      vertex -7.5 15 5
    endloop
  endfacet
  facet normal -1 0 0
    outer loop
      vertex -7.5 5.25 0
      vertex -7.5 5.13988 0.695288
      vertex -7.5 15 5
    endloop
  endfacet
  facet normal -1 0 0
    outer loop
      vertex -7.5 5.13988 0.695288
      vertex -7.5 4.82029 1.32252
      vertex -7.5 15 5
    endloop
  endfacet
  facet normal -1 0 0
    outer loop
      vertex -7.5 10 -1.75
      vertex -7.5 15 -5
      vertex -7.5 9.45922 -1.66435
    endloop
  endfacet
  facet normal -1 0 0
    outer loop
      vertex -7.5 2.30471 2.13988
      vertex -7.5 -15 5
      vertex -7.5 3 2.25
    endloop
  endfacet
  facet normal -1 0 0
    outer loop
      vertex -7.5 4.32252 1.82029
      vertex -7.5 3.69529 2.13988
      vertex -7.5 15 5
    endloop
  endfacet
  facet normal -1 0 0
    outer loop
      vertex -7.5 3.69529 2.13988
      vertex -7.5 3 2.25
      vertex -7.5 15 5
    endloop
  endfacet
  facet normal -1 0 0
    outer loop
      vertex -7.5 1.67748 1.82029
      vertex -7.5 -15 5
      vertex -7.5 2.30471 2.13988
    endloop
  endfacet
  facet normal -1 0 0
    outer loop
      vertex -7.5 1.17971 1.32252
      vertex -7.5 -15 5
      vertex -7.5 1.67748 1.82029
    endloop
  endfacet
  facet normal -1 0 0
    outer loop
      vertex -7.5 0.860123 0.695288
      vertex -7.5 -15 5
      vertex -7.5 1.17971 1.32252
    endloop
  endfacet
  facet normal -1 0 0
    outer loop
      vertex -7.5 0.75 0
      vertex -7.5 -15 5
      vertex -7.5 0.860123 0.695288
    endloop
  endfacet
  facet normal -1 0 0
    outer loop
      vertex -7.5 8.33565 -0.54078
      vertex -7.5 4.82029 -1.32252
      vertex -7.5 8.25 0
    endloop
  endfacet
  facet normal -1 0 0
    outer loop
      vertex -7.5 8.58422 -1.02862
      vertex -7.5 4.82029 -1.32252
      vertex -7.5 8.33565 -0.54078
    endloop
  endfacet
  facet normal -1 0 0
    outer loop
      vertex -7.5 8.97138 -1.41578
      vertex -7.5 4.82029 -1.32252
      vertex -7.5 8.58422 -1.02862
    endloop
  endfacet
  facet normal -1 0 0
    outer loop
      vertex -7.5 15 -5
      vertex -7.5 4.82029 -1.32252
      vertex -7.5 8.97138 -1.41578
    endloop
  endfacet
  facet normal -1 0 0
    outer loop
      vertex -7.5 15 -5
      vertex -7.5 8.97138 -1.41578
      vertex -7.5 9.45922 -1.66435
    endloop
  endfacet
  facet normal -1 0 0
    outer loop
      vertex -7.5 10.5408 -1.66435
      vertex -7.5 15 -5
      vertex -7.5 10 -1.75
    endloop
  endfacet
  facet normal -1 0 0
    outer loop
      vertex -7.5 11.75 0
      vertex -7.5 15 5
      vertex -7.5 11.6643 -0.54078
    endloop
  endfacet
  facet normal -1 0 0
    outer loop
      vertex -7.5 15 -5
      vertex -7.5 10.5408 -1.66435
      vertex -7.5 11.0286 -1.41578
    endloop
  endfacet
  facet normal -1 0 0
    outer loop
      vertex -7.5 15 -5
      vertex -7.5 11.0286 -1.41578
      vertex -7.5 11.4158 -1.02862
    endloop
  endfacet
  facet normal -1 0 0
    outer loop
      vertex -7.5 15 -5
      vertex -7.5 11.4158 -1.02862
      vertex -7.5 15 5
    endloop
  endfacet
  facet normal -1 0 0
    outer loop
      vertex -7.5 11.4158 -1.02862
      vertex -7.5 11.6643 -0.54078
      vertex -7.5 15 5
    endloop
  endfacet
  facet normal -1 0 0
    outer loop
      vertex -7.5 11.6643 0.54078
      vertex -7.5 15 5
      vertex -7.5 11.75 0
    endloop
  endfacet
  facet normal -1 0 0
    outer loop
      vertex -7.5 10 1.75
      vertex -7.5 15 5
      vertex -7.5 10.5408 1.66435
    endloop
  endfacet
  facet normal -1 0 0
    outer loop
      vertex -7.5 11.6643 0.54078
      vertex -7.5 11.4158 1.02862
      vertex -7.5 15 5
    endloop
  endfacet
  facet normal -1 0 0
    outer loop
      vertex -7.5 11.4158 1.02862
      vertex -7.5 11.0286 1.41578
      vertex -7.5 15 5
    endloop
  endfacet
  facet normal -1 0 0
    outer loop
      vertex -7.5 11.0286 1.41578
      vertex -7.5 10.5408 1.66435
      vertex -7.5 15 5
    endloop
  endfacet
  facet normal -1 0 0
    outer loop
      vertex -7.5 9.45922 1.66435
      vertex -7.5 15 5
      vertex -7.5 10 1.75
    endloop
  endfacet
  facet normal -1 0 0
    outer loop
      vertex -7.5 8.58422 1.02862
      vertex -7.5 4.82029 -1.32252
      vertex -7.5 5.13988 -0.695288
    endloop
  endfacet
  facet normal -1 0 0
    outer loop
      vertex -7.5 9.45922 1.66435
      vertex -7.5 8.97138 1.41578
      vertex -7.5 15 5
    endloop
  endfacet
  facet normal -1 0 0
    outer loop
      vertex -7.5 8.33565 0.54078
      vertex -7.5 4.82029 -1.32252
      vertex -7.5 8.58422 1.02862
    endloop
  endfacet
  facet normal -1 0 0
    outer loop
      vertex -7.5 8.58422 1.02862
      vertex -7.5 5.13988 -0.695288
      vertex -7.5 8.97138 1.41578
    endloop
  endfacet
  facet normal -1 0 0
    outer loop
      vertex -7.5 8.25 0
      vertex -7.5 4.82029 -1.32252
      vertex -7.5 8.33565 0.54078
    endloop
  endfacet
  facet normal -1 0 0
    outer loop
      vertex -7.5 0.860123 -0.695288
      vertex -7.5 -15 5
      vertex -7.5 0.75 0
    endloop
  endfacet
  facet normal 0 -1 0
    outer loop
      vertex -7.5 -15 5
      vertex -7.5 -15 -5
      vertex 7.5 -15 -5
    endloop
  endfacet
  facet normal 0 -1 0
    outer loop
      vertex 7.5 -15 5
      vertex -7.5 -15 5
      vertex 7.5 -15 -5
    endloop
  endfacet
  facet normal 0 0 -1
    outer loop
      vertex -7.5 -15 -5
      vertex -7.5 15 -5
      vertex 7.5 -15 -5
    endloop
  endfacet
  facet normal 0 0 -1
    outer loop
      vertex 7.5 -15 -5
      vertex -7.5 15 -5
      vertex 7.5 15 -5
    endloop
  endfacet
  facet normal 0 1 0
    outer loop
      vertex -7.5 15 -5
      vertex -7.5 15 5
      vertex 7.5 15 -5
    endloop
  endfacet
  facet normal 0 1 0
    outer loop
      vertex 7.5 15 -5
      vertex -7.5 15 5
      vertex 7.5 15 5
    endloop
  endfacet
  facet normal 0 0 1
    outer loop
      vertex 1.39058 -12.2798 5
      vertex -7.5 -15 5
      vertex 7.5 -15 5
    endloop
  endfacet
  facet normal 0 0 1
    outer loop
      vertex 4.5 -8 5
      vertex 4.27975 -9.39058 5
      vertex 7.5 -15 5
    endloop
  endfacet
  facet normal 0 0 1
    outer loop
      vertex -2.02254 1.53054 5
      vertex -2.37764 2.22746 5
      vertex 0 -3.5 5
    endloop
  endfacet
  facet normal 0 0 1
    outer loop
      vertex -4.5 -8 5
      vertex -7.5 -15 5
      vertex -4.27975 -9.39058 5
    endloop
  endfacet
  facet normal 0 0 1
    outer loop
      vertex 0 0.5 5
      vertex -0.772542 0.622359 5
      vertex 1.39058 -3.72025 5
    endloop
  endfacet
  facet normal 0 0 1
    outer loop
      vertex -7.5 15 5
      vertex -7.5 -15 5
      vertex -4.5 -8 5
    endloop
  endfacet
  facet normal 0 0 1
    outer loop
      vertex 2.64503 -11.6406 5
      vertex 1.39058 -12.2798 5
      vertex 7.5 -15 5
    endloop
  endfacet
  facet normal 0 0 1
    outer loop
      vertex -2.37764 3.77254 5
      vertex -2.02254 4.46946 5
      vertex -7.5 15 5
    endloop
  endfacet
  facet normal 0 0 1
    outer loop
      vertex -7.5 15 5
      vertex -4.27975 -6.60942 5
      vertex -3.64058 -5.35497 5
    endloop
  endfacet
  facet normal 0 0 1
    outer loop
      vertex -7.5 15 5
      vertex -3.64058 -5.35497 5
      vertex -2.64503 -4.35942 5
    endloop
  endfacet
  facet normal 0 0 1
    outer loop
      vertex -7.5 15 5
      vertex -2.64503 -4.35942 5
      vertex -1.39058 -3.72025 5
    endloop
  endfacet
  facet normal 0 0 1
    outer loop
      vertex -2.37764 2.22746 5
      vertex -1.39058 -3.72025 5
      vertex 0 -3.5 5
    endloop
  endfacet
  facet normal 0 0 1
    outer loop
      vertex 3.64058 -10.645 5
      vertex 2.64503 -11.6406 5
      vertex 7.5 -15 5
    endloop
  endfacet
  facet normal 0 0 1
    outer loop
      vertex -1.46946 0.977458 5
      vertex 0 -3.5 5
      vertex 1.39058 -3.72025 5
    endloop
  endfacet
  facet normal 0 0 1
    outer loop
      vertex 4.27975 -9.39058 5
      vertex 3.64058 -10.645 5
      vertex 7.5 -15 5
    endloop
  endfacet
  facet normal 0 0 1
    outer loop
      vertex 7.5 15 5
      vertex 2.64503 -4.35942 5
      vertex 3.64058 -5.35497 5
    endloop
  endfacet
  facet normal 0 0 1
    outer loop
      vertex 7.5 15 5
      vertex 4.27975 -6.60942 5
      vertex 7.5 -15 5
    endloop
  endfacet
  facet normal 0 0 1
    outer loop
      vertex 7.5 15 5
      vertex 3.64058 -5.35497 5
      vertex 4.27975 -6.60942 5
    endloop
  endfacet
  facet normal 0 0 1
    outer loop
      vertex 0 -12.5 5
      vertex -7.5 -15 5
      vertex 1.39058 -12.2798 5
    endloop
  endfacet
  facet normal 0 0 1
    outer loop
      vertex -1.39058 -12.2798 5
      vertex -7.5 -15 5
      vertex 0 -12.5 5
    endloop
  endfacet
  facet normal 0 0 1
    outer loop
      vertex -2.64503 -11.6406 5
      vertex -7.5 -15 5
      vertex -1.39058 -12.2798 5
    endloop
  endfacet
  facet normal 0 0 1
    outer loop
      vertex -3.64058 -10.645 5
      vertex -7.5 -15 5
      vertex -2.64503 -11.6406 5
    endloop
  endfacet
  facet normal 0 0 1
    outer loop
      vertex -4.27975 -9.39058 5
      vertex -7.5 -15 5
      vertex -3.64058 -10.645 5
    endloop
  endfacet
  facet normal 0 0 1
    outer loop
      vertex -7.5 15 5
      vertex -1.39058 -3.72025 5
      vertex -2.37764 2.22746 5
    endloop
  endfacet
  facet normal 0 0 1
    outer loop
      vertex -1.46946 0.977458 5
      vertex -2.02254 1.53054 5
      vertex 0 -3.5 5
    endloop
  endfacet
  facet normal 0 0 1
    outer loop
      vertex 0.618034 11.9021 5
      vertex 1.17557 11.618 5
      vertex 7.5 15 5
    endloop
  endfacet
  facet normal 0 0 1
    outer loop
      vertex -7.5 15 5
      vertex -2.5 3 5
      vertex -2.37764 3.77254 5
    endloop
  endfacet
  facet normal 0 0 1
    outer loop
      vertex 4.27975 -6.60942 5
      vertex 4.5 -8 5
      vertex 7.5 -15 5
    endloop
  endfacet
  facet normal 0 0 1
    outer loop
      vertex 2.5 3 5
      vertex 2.37764 2.22746 5
      vertex 2.64503 -4.35942 5
    endloop
  endfacet
  facet normal 0 0 1
    outer loop
      vertex -0.772542 0.622359 5
      vertex -1.46946 0.977458 5
      vertex 1.39058 -3.72025 5
    endloop
  endfacet
  facet normal 0 0 1
    outer loop
      vertex -1.90211 9.38197 5
      vertex -7.5 15 5
      vertex -1.46946 5.02254 5
    endloop
  endfacet
  facet normal 0 0 1
    outer loop
      vertex 7.5 15 5
      vertex -1.46946 5.02254 5
      vertex -0.772542 5.37764 5
    endloop
  endfacet
  facet normal 0 0 1
    outer loop
      vertex 0.772542 0.622359 5
      vertex 0 0.5 5
      vertex 2.64503 -4.35942 5
    endloop
  endfacet
  facet normal 0 0 1
    outer loop
      vertex 7.5 15 5
      vertex -0.772542 5.37764 5
      vertex 0 5.5 5
    endloop
  endfacet
  facet normal 0 0 1
    outer loop
      vertex 7.5 15 5
      vertex 0 5.5 5
      vertex 0.772542 5.37764 5
    endloop
  endfacet
  facet normal 0 0 1
    outer loop
      vertex 1.46946 0.977458 5
      vertex 0.772542 0.622359 5
      vertex 2.64503 -4.35942 5
    endloop
  endfacet
  facet normal 0 0 1
    outer loop
      vertex 7.5 15 5
      vertex 0.772542 5.37764 5
      vertex 1.46946 5.02254 5
    endloop
  endfacet
  facet normal 0 0 1
    outer loop
      vertex 7.5 15 5
      vertex 1.46946 5.02254 5
      vertex 2.02254 4.46946 5
    endloop
  endfacet
  facet normal 0 0 1
    outer loop
      vertex 2.37764 2.22746 5
      vertex 2.02254 1.53054 5
      vertex 2.64503 -4.35942 5
    endloop
  endfacet
  facet normal 0 0 1
    outer loop
      vertex 7.5 15 5
      vertex 2.02254 4.46946 5
      vertex 2.37764 3.77254 5
    endloop
  endfacet
  facet normal 0 0 1
    outer loop
      vertex 7.5 15 5
      vertex 2.5 3 5
      vertex 2.64503 -4.35942 5
    endloop
  endfacet
  facet normal 0 0 1
    outer loop
      vertex 7.5 15 5
      vertex 2.37764 3.77254 5
      vertex 2.5 3 5
    endloop
  endfacet
  facet normal 0 0 1
    outer loop
      vertex -2.02254 4.46946 5
      vertex -1.46946 5.02254 5
      vertex -7.5 15 5
    endloop
  endfacet
  facet normal 0 0 1
    outer loop
      vertex 2.02254 1.53054 5
      vertex 1.46946 0.977458 5
      vertex 2.64503 -4.35942 5
    endloop
  endfacet
  facet normal 0 0 1
    outer loop
      vertex -0.618034 11.9021 5
      vertex 0 12 5
      vertex 7.5 15 5
    endloop
  endfacet
  facet normal 0 0 1
    outer loop
      vertex -2.37764 2.22746 5
      vertex -2.5 3 5
      vertex -7.5 15 5
    endloop
  endfacet
  facet normal 0 0 1
    outer loop
      vertex -1.61803 8.82443 5
      vertex -1.90211 9.38197 5
      vertex -1.46946 5.02254 5
    endloop
  endfacet
  facet normal 0 0 1
    outer loop
      vertex -2 10 5
      vertex -7.5 15 5
      vertex -1.90211 9.38197 5
    endloop
  endfacet
  facet normal 0 0 1
    outer loop
      vertex -1.90211 10.618 5
      vertex -7.5 15 5
      vertex -2 10 5
    endloop
  endfacet
  facet normal 0 0 1
    outer loop
      vertex 1.17557 11.618 5
      vertex 1.61803 11.1756 5
      vertex 7.5 15 5
    endloop
  endfacet
  facet normal 0 0 1
    outer loop
      vertex -1.61803 11.1756 5
      vertex -7.5 15 5
      vertex -1.90211 10.618 5
    endloop
  endfacet
  facet normal 0 0 1
    outer loop
      vertex -1.17557 11.618 5
      vertex -7.5 15 5
      vertex -1.61803 11.1756 5
    endloop
  endfacet
  facet normal 0 0 1
    outer loop
      vertex -0.618034 11.9021 5
      vertex -7.5 15 5
      vertex -1.17557 11.618 5
    endloop
  endfacet
  facet normal 0 0 1
    outer loop
      vertex 0 12 5
      vertex 0.618034 11.9021 5
      vertex 7.5 15 5
    endloop
  endfacet
  facet normal 0 0 1
    outer loop
      vertex 7.5 15 5
      vertex -7.5 15 5
      vertex -0.618034 11.9021 5
    endloop
  endfacet
  facet normal 0 0 1
    outer loop
      vertex 1.17557 8.38197 5
      vertex 0.618034 8.09789 5
      vertex -1.46946 5.02254 5
    endloop
  endfacet
  facet normal 0 0 1
    outer loop
      vertex 7.5 15 5
      vertex 1.61803 11.1756 5
      vertex 1.90211 10.618 5
    endloop
  endfacet
  facet normal 0 0 1
    outer loop
      vertex 7.5 15 5
      vertex 1.90211 10.618 5
      vertex 2 10 5
    endloop
  endfacet
  facet normal 0 0 1
    outer loop
      vertex 0.618034 8.09789 5
      vertex 0 8 5
      vertex -1.46946 5.02254 5
    endloop
  endfacet
  facet normal 0 0 1
    outer loop
      vertex 7.5 15 5
      vertex 2 10 5
      vertex 1.90211 9.38197 5
    endloop
  endfacet
  facet normal 0 0 1
    outer loop
      vertex 7.5 15 5
      vertex 1.61803 8.82443 5
      vertex -1.46946 5.02254 5
    endloop
  endfacet
  facet normal 0 0 1
    outer loop
      vertex 7.5 15 5
      vertex 1.90211 9.38197 5
      vertex 1.61803 8.82443 5
    endloop
  endfacet
  facet normal 0 0 1
    outer loop
      vertex 1.61803 8.82443 5
      vertex 1.17557 8.38197 5
      vertex -1.46946 5.02254 5
    endloop
  endfacet
  facet normal 0 0 1
    outer loop
      vertex 0 8 5
      vertex -0.618034 8.09789 5
      vertex -1.46946 5.02254 5
    endloop
  endfacet
  facet normal 0 0 1
    outer loop
      vertex -0.618034 8.09789 5
      vertex -1.17557 8.38197 5
      vertex -1.46946 5.02254 5
    endloop
  endfacet
  facet normal 0 0 1
    outer loop
      vertex -1.17557 8.38197 5
      vertex -1.61803 8.82443 5
      vertex -1.46946 5.02254 5
    endloop
  endfacet
  facet normal 0 0 1
    outer loop
      vertex -4.5 -8 5
      vertex -4.27975 -6.60942 5
      vertex -7.5 15 5
    endloop
  endfacet
  facet normal 0 0 1
    outer loop
      vertex 1.39058 -3.72025 5
      vertex 2.64503 -4.35942 5
      vertex 0 0.5 5
    endloop
  endfacet
  facet normal 3.47355e-17 0.987688 -0.156435
    outer loop
      vertex -2.5 0.860123 0.695288
      vertex -2.5 0.75 1.11022e-15
      vertex -7.5 0.860123 0.695288
    endloop
  endfacet
  facet normal 3.47355e-17 0.987688 -0.156435
    outer loop
      vertex -7.5 0.860123 0.695288
      vertex -2.5 0.75 1.11022e-15
      vertex -7.5 0.75 0
    endloop
  endfacet
  facet normal -3.47355e-17 0.987688 0.156435
    outer loop
      vertex -2.5 0.860123 -0.695288
      vertex -7.5 0.860123 -0.695288
      vertex -2.5 0.75 1.11022e-15
    endloop
  endfacet
  facet normal -3.47355e-17 0.987688 0.156435
    outer loop
      vertex -2.5 0.75 1.11022e-15
      vertex -7.5 0.860123 -0.695288
      vertex -7.5 0.75 0
    endloop
  endfacet
  facet normal 1.00806e-16 0.891007 -0.45399
    outer loop
      vertex -2.5 1.17971 1.32252
      vertex -2.5 0.860123 0.695288
      vertex -7.5 1.17971 1.32252
    endloop
  endfacet
  facet normal 1.00806e-16 0.891007 -0.45399
    outer loop
      vertex -7.5 1.17971 1.32252
      vertex -2.5 0.860123 0.695288
      vertex -7.5 0.860123 0.695288
    endloop
  endfacet
  facet normal 1.57009e-16 0.707107 -0.707107
    outer loop
      vertex -2.5 1.67748 1.82029
      vertex -2.5 1.17971 1.32252
      vertex -7.5 1.67748 1.82029
    endloop
  endfacet
  facet normal 1.57009e-16 0.707107 -0.707107
    outer loop
      vertex -7.5 1.67748 1.82029
      vertex -2.5 1.17971 1.32252
      vertex -7.5 1.17971 1.32252
    endloop
  endfacet
  facet normal 1.97843e-16 0.45399 -0.891007
    outer loop
      vertex -2.5 2.30471 2.13988
      vertex -2.5 1.67748 1.82029
      vertex -7.5 2.30471 2.13988
    endloop
  endfacet
  facet normal 1.97843e-16 0.45399 -0.891007
    outer loop
      vertex -7.5 2.30471 2.13988
      vertex -2.5 1.67748 1.82029
      vertex -7.5 1.67748 1.82029
    endloop
  endfacet
  facet normal 2.19311e-16 0.156435 -0.987688
    outer loop
      vertex -2.5 3 2.25
      vertex -2.5 2.30471 2.13988
      vertex -7.5 3 2.25
    endloop
  endfacet
  facet normal 2.19311e-16 0.156435 -0.987688
    outer loop
      vertex -7.5 3 2.25
      vertex -2.5 2.30471 2.13988
      vertex -7.5 2.30471 2.13988
    endloop
  endfacet
  facet normal 2.19311e-16 -0.156435 -0.987688
    outer loop
      vertex -2.5 3.69529 2.13988
      vertex -2.5 3 2.25
      vertex -7.5 3.69529 2.13988
    endloop
  endfacet
  facet normal 2.19311e-16 -0.156435 -0.987688
    outer loop
      vertex -7.5 3.69529 2.13988
      vertex -2.5 3 2.25
      vertex -7.5 3 2.25
    endloop
  endfacet
  facet normal 1.97843e-16 -0.45399 -0.891007
    outer loop
      vertex -2.5 4.32252 1.82029
      vertex -2.5 3.69529 2.13988
      vertex -7.5 4.32252 1.82029
    endloop
  endfacet
  facet normal 1.97843e-16 -0.45399 -0.891007
    outer loop
      vertex -7.5 4.32252 1.82029
      vertex -2.5 3.69529 2.13988
      vertex -7.5 3.69529 2.13988
    endloop
  endfacet
  facet normal 1.57009e-16 -0.707107 -0.707107
    outer loop
      vertex -7.5 4.82029 1.32252
      vertex -2.5 4.82029 1.32252
      vertex -2.5 4.32252 1.82029
    endloop
  endfacet
  facet normal 1.57009e-16 -0.707107 -0.707107
    outer loop
      vertex -7.5 4.32252 1.82029
      vertex -7.5 4.82029 1.32252
      vertex -2.5 4.32252 1.82029
    endloop
  endfacet
  facet normal 1.00806e-16 -0.891007 -0.45399
    outer loop
      vertex -7.5 5.13988 0.695288
      vertex -2.5 5.13988 0.695288
      vertex -2.5 4.82029 1.32252
    endloop
  endfacet
  facet normal 1.00806e-16 -0.891007 -0.45399
    outer loop
      vertex -7.5 4.82029 1.32252
      vertex -7.5 5.13988 0.695288
      vertex -2.5 4.82029 1.32252
    endloop
  endfacet
  facet normal 3.47355e-17 -0.987688 -0.156435
    outer loop
      vertex -7.5 5.25 0
      vertex -2.5 5.25 1.11022e-15
      vertex -2.5 5.13988 0.695288
    endloop
  endfacet
  facet normal 3.47355e-17 -0.987688 -0.156435
    outer loop
      vertex -7.5 5.13988 0.695288
      vertex -7.5 5.25 0
      vertex -2.5 5.13988 0.695288
    endloop
  endfacet
  facet normal -3.47355e-17 -0.987688 0.156435
    outer loop
      vertex -2.5 5.13988 -0.695288
      vertex -2.5 5.25 1.11022e-15
      vertex -7.5 5.25 0
    endloop
  endfacet
  facet normal -3.47355e-17 -0.987688 0.156435
    outer loop
      vertex -7.5 5.13988 -0.695288
      vertex -2.5 5.13988 -0.695288
      vertex -7.5 5.25 0
    endloop
  endfacet
  facet normal -1.00806e-16 -0.891007 0.45399
    outer loop
      vertex -2.5 4.82029 -1.32252
      vertex -2.5 5.13988 -0.695288
      vertex -7.5 5.13988 -0.695288
    endloop
  endfacet
  facet normal -1.00806e-16 -0.891007 0.45399
    outer loop
      vertex -7.5 4.82029 -1.32252
      vertex -2.5 4.82029 -1.32252
      vertex -7.5 5.13988 -0.695288
    endloop
  endfacet
  facet normal -1.57009e-16 -0.707107 0.707107
    outer loop
      vertex -2.5 4.32252 -1.82029
      vertex -2.5 4.82029 -1.32252
      vertex -7.5 4.82029 -1.32252
    endloop
  endfacet
  facet normal -1.57009e-16 -0.707107 0.707107
    outer loop
      vertex -7.5 4.32252 -1.82029
      vertex -2.5 4.32252 -1.82029
      vertex -7.5 4.82029 -1.32252
    endloop
  endfacet
  facet normal -1.97843e-16 -0.45399 0.891007
    outer loop
      vertex -2.5 3.69529 -2.13988
      vertex -2.5 4.32252 -1.82029
      vertex -7.5 4.32252 -1.82029
    endloop
  endfacet
  facet normal -1.97843e-16 -0.45399 0.891007
    outer loop
      vertex -7.5 3.69529 -2.13988
      vertex -2.5 3.69529 -2.13988
      vertex -7.5 4.32252 -1.82029
    endloop
  endfacet
  facet normal -2.19311e-16 -0.156435 0.987688
    outer loop
      vertex -2.5 3 -2.25
      vertex -2.5 3.69529 -2.13988
      vertex -7.5 3.69529 -2.13988
    endloop
  endfacet
  facet normal -2.19311e-16 -0.156435 0.987688
    outer loop
      vertex -7.5 3 -2.25
      vertex -2.5 3 -2.25
      vertex -7.5 3.69529 -2.13988
    endloop
  endfacet
  facet normal -2.19311e-16 0.156435 0.987688
    outer loop
      vertex -2.5 2.30471 -2.13988
      vertex -2.5 3 -2.25
      vertex -7.5 3 -2.25
    endloop
  endfacet
  facet normal -2.19311e-16 0.156435 0.987688
    outer loop
      vertex -7.5 2.30471 -2.13988
      vertex -2.5 2.30471 -2.13988
      vertex -7.5 3 -2.25
    endloop
  endfacet
  facet normal -1.97843e-16 0.45399 0.891007
    outer loop
      vertex -2.5 1.67748 -1.82029
      vertex -2.5 2.30471 -2.13988
      vertex -7.5 2.30471 -2.13988
    endloop
  endfacet
  facet normal -1.97843e-16 0.45399 0.891007
    outer loop
      vertex -7.5 1.67748 -1.82029
      vertex -2.5 1.67748 -1.82029
      vertex -7.5 2.30471 -2.13988
    endloop
  endfacet
  facet normal -1.57009e-16 0.707107 0.707107
    outer loop
      vertex -2.5 1.67748 -1.82029
      vertex -7.5 1.67748 -1.82029
      vertex -2.5 1.17971 -1.32252
    endloop
  endfacet
  facet normal -1.57009e-16 0.707107 0.707107
    outer loop
      vertex -2.5 1.17971 -1.32252
      vertex -7.5 1.67748 -1.82029
      vertex -7.5 1.17971 -1.32252
    endloop
  endfacet
  facet normal -1.00806e-16 0.891007 0.45399
    outer loop
      vertex -2.5 1.17971 -1.32252
      vertex -7.5 1.17971 -1.32252
      vertex -2.5 0.860123 -0.695288
    endloop
  endfacet
  facet normal -1.00806e-16 0.891007 0.45399
    outer loop
      vertex -2.5 0.860123 -0.695288
      vertex -7.5 1.17971 -1.32252
      vertex -7.5 0.860123 -0.695288
    endloop
  endfacet
  facet normal 3.47354e-17 0.987688 -0.156434
    outer loop
      vertex -2.5 8.33565 0.54078
      vertex -2.5 8.25 1.11022e-15
      vertex -7.5 8.33565 0.54078
    endloop
  endfacet
  facet normal 3.47354e-17 0.987688 -0.156434
    outer loop
      vertex -7.5 8.33565 0.54078
      vertex -2.5 8.25 1.11022e-15
      vertex -7.5 8.25 0
    endloop
  endfacet
  facet normal -3.47354e-17 0.987688 0.156434
    outer loop
      vertex -2.5 8.33565 -0.54078
      vertex -7.5 8.33565 -0.54078
      vertex -2.5 8.25 1.11022e-15
    endloop
  endfacet
  facet normal -3.47354e-17 0.987688 0.156434
    outer loop
      vertex -2.5 8.25 1.11022e-15
      vertex -7.5 8.33565 -0.54078
      vertex -7.5 8.25 0
    endloop
  endfacet
  facet normal 1.00806e-16 0.891006 -0.453991
    outer loop
      vertex -2.5 8.58422 1.02862
      vertex -2.5 8.33565 0.54078
      vertex -7.5 8.58422 1.02862
    endloop
  endfacet
  facet normal 1.00806e-16 0.891006 -0.453991
    outer loop
      vertex -7.5 8.58422 1.02862
      vertex -2.5 8.33565 0.54078
      vertex -7.5 8.33565 0.54078
    endloop
  endfacet
  facet normal 1.57009e-16 0.707107 -0.707107
    outer loop
      vertex -2.5 8.97138 1.41578
      vertex -2.5 8.58422 1.02862
      vertex -7.5 8.97138 1.41578
    endloop
  endfacet
  facet normal 1.57009e-16 0.707107 -0.707107
    outer loop
      vertex -7.5 8.97138 1.41578
      vertex -2.5 8.58422 1.02862
      vertex -7.5 8.58422 1.02862
    endloop
  endfacet
  facet normal 1.97843e-16 0.453991 -0.891006
    outer loop
      vertex -2.5 9.45922 1.66435
      vertex -2.5 8.97138 1.41578
      vertex -7.5 9.45922 1.66435
    endloop
  endfacet
  facet normal 1.97843e-16 0.453991 -0.891006
    outer loop
      vertex -7.5 9.45922 1.66435
      vertex -2.5 8.97138 1.41578
      vertex -7.5 8.97138 1.41578
    endloop
  endfacet
  facet normal 2.19311e-16 0.156434 -0.987688
    outer loop
      vertex -2.5 10 1.75
      vertex -2.5 9.45922 1.66435
      vertex -7.5 10 1.75
    endloop
  endfacet
  facet normal 2.19311e-16 0.156434 -0.987688
    outer loop
      vertex -7.5 10 1.75
      vertex -2.5 9.45922 1.66435
      vertex -7.5 9.45922 1.66435
    endloop
  endfacet
  facet normal 2.19311e-16 -0.156434 -0.987688
    outer loop
      vertex -2.5 10.5408 1.66435
      vertex -2.5 10 1.75
      vertex -7.5 10.5408 1.66435
    endloop
  endfacet
  facet normal 2.19311e-16 -0.156434 -0.987688
    outer loop
      vertex -7.5 10.5408 1.66435
      vertex -2.5 10 1.75
      vertex -7.5 10 1.75
    endloop
  endfacet
  facet normal 1.97843e-16 -0.453991 -0.891006
    outer loop
      vertex -2.5 11.0286 1.41578
      vertex -2.5 10.5408 1.66435
      vertex -7.5 11.0286 1.41578
    endloop
  endfacet
  facet normal 1.97843e-16 -0.453991 -0.891006
    outer loop
      vertex -7.5 11.0286 1.41578
      vertex -2.5 10.5408 1.66435
      vertex -7.5 10.5408 1.66435
    endloop
  endfacet
  facet normal 1.57009e-16 -0.707107 -0.707107
    outer loop
      vertex -7.5 11.4158 1.02862
      vertex -2.5 11.4158 1.02862
      vertex -2.5 11.0286 1.41578
    endloop
  endfacet
  facet normal 1.57009e-16 -0.707107 -0.707107
    outer loop
      vertex -7.5 11.0286 1.41578
      vertex -7.5 11.4158 1.02862
      vertex -2.5 11.0286 1.41578
    endloop
  endfacet
  facet normal 1.00806e-16 -0.891006 -0.453991
    outer loop
      vertex -7.5 11.6643 0.54078
      vertex -2.5 11.6643 0.54078
      vertex -2.5 11.4158 1.02862
    endloop
  endfacet
  facet normal 1.00806e-16 -0.891006 -0.453991
    outer loop
      vertex -7.5 11.4158 1.02862
      vertex -7.5 11.6643 0.54078
      vertex -2.5 11.4158 1.02862
    endloop
  endfacet
  facet normal 3.47354e-17 -0.987688 -0.156434
    outer loop
      vertex -7.5 11.75 0
      vertex -2.5 11.75 1.11022e-15
      vertex -2.5 11.6643 0.54078
    endloop
  endfacet
  facet normal 3.47354e-17 -0.987688 -0.156434
    outer loop
      vertex -7.5 11.6643 0.54078
      vertex -7.5 11.75 0
      vertex -2.5 11.6643 0.54078
    endloop
  endfacet
  facet normal -3.47354e-17 -0.987688 0.156434
    outer loop
      vertex -2.5 11.6643 -0.54078
      vertex -2.5 11.75 1.11022e-15
      vertex -7.5 11.75 0
    endloop
  endfacet
  facet normal -3.47354e-17 -0.987688 0.156434
    outer loop
      vertex -7.5 11.6643 -0.54078
      vertex -2.5 11.6643 -0.54078
      vertex -7.5 11.75 0
    endloop
  endfacet
  facet normal -1.00806e-16 -0.891006 0.453991
    outer loop
      vertex -2.5 11.4158 -1.02862
      vertex -2.5 11.6643 -0.54078
      vertex -7.5 11.6643 -0.54078
    endloop
  endfacet
  facet normal -1.00806e-16 -0.891006 0.453991
    outer loop
      vertex -7.5 11.4158 -1.02862
      vertex -2.5 11.4158 -1.02862
      vertex -7.5 11.6643 -0.54078
    endloop
  endfacet
  facet normal -1.57009e-16 -0.707107 0.707107
    outer loop
      vertex -2.5 11.0286 -1.41578
      vertex -2.5 11.4158 -1.02862
      vertex -7.5 11.4158 -1.02862
    endloop
  endfacet
  facet normal -1.57009e-16 -0.707107 0.707107
    outer loop
      vertex -7.5 11.0286 -1.41578
      vertex -2.5 11.0286 -1.41578
      vertex -7.5 11.4158 -1.02862
    endloop
  endfacet
  facet normal -1.97843e-16 -0.453991 0.891006
    outer loop
      vertex -2.5 10.5408 -1.66435
      vertex -2.5 11.0286 -1.41578
      vertex -7.5 11.0286 -1.41578
    endloop
  endfacet
  facet normal -1.97843e-16 -0.453991 0.891006
    outer loop
      vertex -7.5 10.5408 -1.66435
      vertex -2.5 10.5408 -1.66435
      vertex -7.5 11.0286 -1.41578
    endloop
  endfacet
  facet normal -2.19311e-16 -0.156434 0.987688
    outer loop
      vertex -2.5 10 -1.75
      vertex -2.5 10.5408 -1.66435
      vertex -7.5 10.5408 -1.66435
    endloop
  endfacet
  facet normal -2.19311e-16 -0.156434 0.987688
    outer loop
      vertex -7.5 10 -1.75
      vertex -2.5 10 -1.75
      vertex -7.5 10.5408 -1.66435
    endloop
  endfacet
  facet normal -2.19311e-16 0.156434 0.987688
    outer loop
      vertex -2.5 9.45922 -1.66435
      vertex -2.5 10 -1.75
      vertex -7.5 10 -1.75
    endloop
  endfacet
  facet normal -2.19311e-16 0.156434 0.987688
    outer loop
      vertex -7.5 9.45922 -1.66435
      vertex -2.5 9.45922 -1.66435
      vertex -7.5 10 -1.75
    endloop
  endfacet
  facet normal -1.97843e-16 0.453991 0.891006
    outer loop
      vertex -2.5 8.97138 -1.41578
      vertex -2.5 9.45922 -1.66435
      vertex -7.5 9.45922 -1.66435
    endloop
  endfacet
  facet normal -1.97843e-16 0.453991 0.891006
    outer loop
      vertex -7.5 8.97138 -1.41578
      vertex -2.5 8.97138 -1.41578
      vertex -7.5 9.45922 -1.66435
    endloop
  endfacet
  facet normal -1.57009e-16 0.707107 0.707107
    outer loop
      vertex -2.5 8.97138 -1.41578
      vertex -7.5 8.97138 -1.41578
      vertex -2.5 8.58422 -1.02862
    endloop
  endfacet
  facet normal -1.57009e-16 0.707107 0.707107
    outer loop
      vertex -2.5 8.58422 -1.02862
      vertex -7.5 8.97138 -1.41578
      vertex -7.5 8.58422 -1.02862
    endloop
  endfacet
  facet normal -1.00806e-16 0.891006 0.453991
    outer loop
      vertex -2.5 8.58422 -1.02862
      vertex -7.5 8.58422 -1.02862
      vertex -2.5 8.33565 -0.54078
    endloop
  endfacet
  facet normal -1.00806e-16 0.891006 0.453991
    outer loop
      vertex -2.5 8.33565 -0.54078
      vertex -7.5 8.58422 -1.02862
      vertex -7.5 8.33565 -0.54078
    endloop
  endfacet
  facet normal 1 0 0
    outer loop
      vertex 7.5 -15 5
      vertex 7.5 -15 -5
      vertex 7.5 15 -5
    endloop
  endfacet
  facet normal 1 0 0
    outer loop
      vertex 7.5 15 5
      vertex 7.5 -15 5
      vertex 7.5 15 -5
    endloop
  endfacet
  facet normal 0.891007 0.45399 0
    outer loop
      vertex -4.27975 -9.39058 5
      vertex -3.64058 -10.645 5
      vertex -3.64058 -10.645 0
    endloop
  endfacet
  facet normal 0.891007 0.45399 0
    outer loop
      vertex -4.27975 -9.39058 0
      vertex -4.27975 -9.39058 5
      vertex -3.64058 -10.645 0
    endloop
  endfacet
  facet normal 0.987688 0.156435 0
    outer loop
      vertex -4.5 -8 5
      vertex -4.27975 -9.39058 5
      vertex -4.27975 -9.39058 0
    endloop
  endfacet
  facet normal 0.987688 0.156435 0
    outer loop
      vertex -4.5 -8 0
      vertex -4.5 -8 5
      vertex -4.27975 -9.39058 0
    endloop
  endfacet
  facet normal 0.707107 0.707107 0
    outer loop
      vertex -2.64503 -11.6406 5
      vertex -2.64503 -11.6406 0
      vertex -3.64058 -10.645 5
    endloop
  endfacet
  facet normal 0.707107 0.707107 0
    outer loop
      vertex -3.64058 -10.645 5
      vertex -2.64503 -11.6406 0
      vertex -3.64058 -10.645 0
    endloop
  endfacet
  facet normal 0.45399 0.891007 0
    outer loop
      vertex -1.39058 -12.2798 5
      vertex -1.39058 -12.2798 0
      vertex -2.64503 -11.6406 5
    endloop
  endfacet
  facet normal 0.45399 0.891007 0
    outer loop
      vertex -2.64503 -11.6406 5
      vertex -1.39058 -12.2798 0
      vertex -2.64503 -11.6406 0
    endloop
  endfacet
  facet normal 0.156435 0.987688 0
    outer loop
      vertex 0 -12.5 5
      vertex 0 -12.5 0
      vertex -1.39058 -12.2798 5
    endloop
  endfacet
  facet normal 0.156435 0.987688 0
    outer loop
      vertex -1.39058 -12.2798 5
      vertex 0 -12.5 0
      vertex -1.39058 -12.2798 0
    endloop
  endfacet
  facet normal -0.156435 0.987688 0
    outer loop
      vertex 1.39058 -12.2798 5
      vertex 1.39058 -12.2798 0
      vertex 0 -12.5 5
    endloop
  endfacet
  facet normal -0.156435 0.987688 0
    outer loop
      vertex 0 -12.5 5
      vertex 1.39058 -12.2798 0
      vertex 0 -12.5 0
    endloop
  endfacet
  facet normal -0.45399 0.891007 0
    outer loop
      vertex 2.64503 -11.6406 5
      vertex 2.64503 -11.6406 0
      vertex 1.39058 -12.2798 5
    endloop
  endfacet
  facet normal -0.45399 0.891007 0
    outer loop
      vertex 1.39058 -12.2798 5
      vertex 2.64503 -11.6406 0
      vertex 1.39058 -12.2798 0
    endloop
  endfacet
  facet normal -0.707107 0.707107 0
    outer loop
      vertex 3.64058 -10.645 5
      vertex 3.64058 -10.645 0
      vertex 2.64503 -11.6406 5
    endloop
  endfacet
  facet normal -0.707107 0.707107 0
    outer loop
      vertex 2.64503 -11.6406 5
      vertex 3.64058 -10.645 0
      vertex 2.64503 -11.6406 0
    endloop
  endfacet
  facet normal -0.891007 0.45399 0
    outer loop
      vertex 4.27975 -9.39058 5
      vertex 4.27975 -9.39058 0
      vertex 3.64058 -10.645 5
    endloop
  endfacet
  facet normal -0.891007 0.45399 0
    outer loop
      vertex 3.64058 -10.645 5
      vertex 4.27975 -9.39058 0
      vertex 3.64058 -10.645 0
    endloop
  endfacet
  facet normal -0.987688 0.156435 0
    outer loop
      vertex 4.5 -8 5
      vertex 4.5 -8 0
      vertex 4.27975 -9.39058 5
    endloop
  endfacet
  facet normal -0.987688 0.156435 0
    outer loop
      vertex 4.27975 -9.39058 5
      vertex 4.5 -8 0
      vertex 4.27975 -9.39058 0
    endloop
  endfacet
  facet normal -0.987688 -0.156435 0
    outer loop
      vertex 4.5 -8 5
      vertex 4.27975 -6.60942 5
      vertex 4.5 -8 0
    endloop
  endfacet
  facet normal -0.987688 -0.156435 0
    outer loop
      vertex 4.5 -8 0
      vertex 4.27975 -6.60942 5
      vertex 4.27975 -6.60942 0
    endloop
  endfacet
  facet normal -0.891007 -0.45399 0
    outer loop
      vertex 4.27975 -6.60942 5
      vertex 3.64058 -5.35497 5
      vertex 4.27975 -6.60942 0
    endloop
  endfacet
  facet normal -0.891007 -0.45399 0
    outer loop
      vertex 4.27975 -6.60942 0
      vertex 3.64058 -5.35497 5
      vertex 3.64058 -5.35497 0
    endloop
  endfacet
  facet normal -0.707107 -0.707107 0
    outer loop
      vertex 3.64058 -5.35497 0
      vertex 3.64058 -5.35497 5
      vertex 2.64503 -4.35942 5
    endloop
  endfacet
  facet normal -0.707107 -0.707107 0
    outer loop
      vertex 2.64503 -4.35942 0
      vertex 3.64058 -5.35497 0
      vertex 2.64503 -4.35942 5
    endloop
  endfacet
  facet normal -0.45399 -0.891007 0
    outer loop
      vertex 2.64503 -4.35942 0
      vertex 2.64503 -4.35942 5
      vertex 1.39058 -3.72025 5
    endloop
  endfacet
  facet normal -0.45399 -0.891007 0
    outer loop
      vertex 1.39058 -3.72025 0
      vertex 2.64503 -4.35942 0
      vertex 1.39058 -3.72025 5
    endloop
  endfacet
  facet normal -0.156435 -0.987688 0
    outer loop
      vertex 1.39058 -3.72025 0
      vertex 1.39058 -3.72025 5
      vertex 0 -3.5 5
    endloop
  endfacet
  facet normal -0.156435 -0.987688 0
    outer loop
      vertex 0 -3.5 0
      vertex 1.39058 -3.72025 0
      vertex 0 -3.5 5
    endloop
  endfacet
  facet normal 0.156435 -0.987688 0
    outer loop
      vertex 0 -3.5 0
      vertex 0 -3.5 5
      vertex -1.39058 -3.72025 5
    endloop
  endfacet
  facet normal 0.156435 -0.987688 0
    outer loop
      vertex -1.39058 -3.72025 0
      vertex 0 -3.5 0
      vertex -1.39058 -3.72025 5
    endloop
  endfacet
  facet normal 0.45399 -0.891007 0
    outer loop
      vertex -1.39058 -3.72025 0
      vertex -1.39058 -3.72025 5
      vertex -2.64503 -4.35942 5
    endloop
  endfacet
  facet normal 0.45399 -0.891007 0
    outer loop
      vertex -2.64503 -4.35942 0
      vertex -1.39058 -3.72025 0
      vertex -2.64503 -4.35942 5
    endloop
  endfacet
  facet normal 0.707107 -0.707107 0
    outer loop
      vertex -2.64503 -4.35942 0
      vertex -2.64503 -4.35942 5
      vertex -3.64058 -5.35497 5
    endloop
  endfacet
  facet normal 0.707107 -0.707107 0
    outer loop
      vertex -3.64058 -5.35497 0
      vertex -2.64503 -4.35942 0
      vertex -3.64058 -5.35497 5
    endloop
  endfacet
  facet normal 0.891007 -0.45399 0
    outer loop
      vertex -3.64058 -5.35497 0
      vertex -3.64058 -5.35497 5
      vertex -4.27975 -6.60942 5
    endloop
  endfacet
  facet normal 0.891007 -0.45399 0
    outer loop
      vertex -4.27975 -6.60942 0
      vertex -3.64058 -5.35497 0
      vertex -4.27975 -6.60942 5
    endloop
  endfacet
  facet normal 0.987688 -0.156435 0
    outer loop
      vertex -4.27975 -6.60942 0
      vertex -4.27975 -6.60942 5
      vertex -4.5 -8 5
    endloop
  endfacet
  facet normal 0.987688 -0.156435 0
    outer loop
      vertex -4.5 -8 0
      vertex -4.27975 -6.60942 0
      vertex -4.5 -8 5
    endloop
  endfacet
  facet normal 0.987688 0.156435 0
    outer loop
      vertex -2.5 3 5
      vertex -2.37764 2.22746 5
      vertex -2.37764 2.22746 0
    endloop
  endfacet
  facet normal 0.987688 0.156435 0
    outer loop
      vertex -2.5 3 1.11022e-15
      vertex -2.5 3 5
      vertex -2.5 3 0
    endloop
  endfacet
  facet normal 0.987688 0.156435 0
    outer loop
      vertex -2.5 3 0
      vertex -2.5 3 5
      vertex -2.37764 2.22746 0
    endloop
  endfacet
  facet normal 0.891007 0.453991 0
    outer loop
      vertex -2.37764 2.22746 5
      vertex -2.02254 1.53054 5
      vertex -2.02254 1.53054 0
    endloop
  endfacet
  facet normal 0.891007 0.453991 0
    outer loop
      vertex -2.37764 2.22746 0
      vertex -2.37764 2.22746 5
      vertex -2.02254 1.53054 0
    endloop
  endfacet
  facet normal 0.707107 0.707107 0
    outer loop
      vertex -1.46946 0.977458 5
      vertex -1.46946 0.977458 0
      vertex -2.02254 1.53054 5
    endloop
  endfacet
  facet normal 0.707107 0.707107 0
    outer loop
      vertex -2.02254 1.53054 5
      vertex -1.46946 0.977458 0
      vertex -2.02254 1.53054 0
    endloop
  endfacet
  facet normal 0.453991 0.891007 0
    outer loop
      vertex -0.772542 0.622359 5
      vertex -0.772542 0.622359 0
      vertex -1.46946 0.977458 5
    endloop
  endfacet
  facet normal 0.453991 0.891007 0
    outer loop
      vertex -1.46946 0.977458 5
      vertex -0.772542 0.622359 0
      vertex -1.46946 0.977458 0
    endloop
  endfacet
  facet normal 0.156435 0.987688 0
    outer loop
      vertex 0 0.5 5
      vertex 0 0.5 0
      vertex -0.772542 0.622359 5
    endloop
  endfacet
  facet normal 0.156435 0.987688 0
    outer loop
      vertex -0.772542 0.622359 5
      vertex 0 0.5 0
      vertex -0.772542 0.622359 0
    endloop
  endfacet
  facet normal -0.156435 0.987688 0
    outer loop
      vertex 0.772542 0.622359 5
      vertex 0.772542 0.622359 0
      vertex 0 0.5 5
    endloop
  endfacet
  facet normal -0.156435 0.987688 0
    outer loop
      vertex 0 0.5 5
      vertex 0.772542 0.622359 0
      vertex 0 0.5 0
    endloop
  endfacet
  facet normal -0.453991 0.891007 0
    outer loop
      vertex 1.46946 0.977458 5
      vertex 1.46946 0.977458 0
      vertex 0.772542 0.622359 5
    endloop
  endfacet
  facet normal -0.453991 0.891007 0
    outer loop
      vertex 0.772542 0.622359 5
      vertex 1.46946 0.977458 0
      vertex 0.772542 0.622359 0
    endloop
  endfacet
  facet normal -0.707107 0.707107 0
    outer loop
      vertex 2.02254 1.53054 5
      vertex 2.02254 1.53054 0
      vertex 1.46946 0.977458 5
    endloop
  endfacet
  facet normal -0.707107 0.707107 0
    outer loop
      vertex 1.46946 0.977458 5
      vertex 2.02254 1.53054 0
      vertex 1.46946 0.977458 0
    endloop
  endfacet
  facet normal -0.891007 0.453991 0
    outer loop
      vertex 2.37764 2.22746 5
      vertex 2.37764 2.22746 0
      vertex 2.02254 1.53054 5
    endloop
  endfacet
  facet normal -0.891007 0.453991 0
    outer loop
      vertex 2.02254 1.53054 5
      vertex 2.37764 2.22746 0
      vertex 2.02254 1.53054 0
    endloop
  endfacet
  facet normal -0.987688 0.156435 0
    outer loop
      vertex 2.5 3 5
      vertex 2.5 3 0
      vertex 2.37764 2.22746 5
    endloop
  endfacet
  facet normal -0.987688 0.156435 0
    outer loop
      vertex 2.37764 2.22746 5
      vertex 2.5 3 0
      vertex 2.37764 2.22746 0
    endloop
  endfacet
  facet normal -0.987688 -0.156435 0
    outer loop
      vertex 2.5 3 5
      vertex 2.37764 3.77254 5
      vertex 2.5 3 0
    endloop
  endfacet
  facet normal -0.987688 -0.156435 0
    outer loop
      vertex 2.5 3 0
      vertex 2.37764 3.77254 5
      vertex 2.37764 3.77254 0
    endloop
  endfacet
  facet normal -0.891007 -0.453991 0
    outer loop
      vertex 2.37764 3.77254 5
      vertex 2.02254 4.46946 5
      vertex 2.37764 3.77254 0
    endloop
  endfacet
  facet normal -0.891007 -0.453991 0
    outer loop
      vertex 2.37764 3.77254 0
      vertex 2.02254 4.46946 5
      vertex 2.02254 4.46946 0
    endloop
  endfacet
  facet normal -0.707107 -0.707107 0
    outer loop
      vertex 2.02254 4.46946 0
      vertex 2.02254 4.46946 5
      vertex 1.46946 5.02254 5
    endloop
  endfacet
  facet normal -0.707107 -0.707107 0
    outer loop
      vertex 1.46946 5.02254 0
      vertex 2.02254 4.46946 0
      vertex 1.46946 5.02254 5
    endloop
  endfacet
  facet normal -0.453991 -0.891007 0
    outer loop
      vertex 1.46946 5.02254 0
      vertex 1.46946 5.02254 5
      vertex 0.772542 5.37764 5
    endloop
  endfacet
  facet normal -0.453991 -0.891007 0
    outer loop
      vertex 0.772542 5.37764 0
      vertex 1.46946 5.02254 0
      vertex 0.772542 5.37764 5
    endloop
  endfacet
  facet normal -0.156435 -0.987688 0
    outer loop
      vertex 0.772542 5.37764 0
      vertex 0.772542 5.37764 5
      vertex 0 5.5 5
    endloop
  endfacet
  facet normal -0.156435 -0.987688 0
    outer loop
      vertex 0 5.5 0
      vertex 0.772542 5.37764 0
      vertex 0 5.5 5
    endloop
  endfacet
  facet normal 0.156435 -0.987688 0
    outer loop
      vertex 0 5.5 0
      vertex 0 5.5 5
      vertex -0.772542 5.37764 5
    endloop
  endfacet
  facet normal 0.156435 -0.987688 0
    outer loop
      vertex -0.772542 5.37764 0
      vertex 0 5.5 0
      vertex -0.772542 5.37764 5
    endloop
  endfacet
  facet normal 0.453991 -0.891007 0
    outer loop
      vertex -0.772542 5.37764 0
      vertex -0.772542 5.37764 5
      vertex -1.46946 5.02254 5
    endloop
  endfacet
  facet normal 0.453991 -0.891007 0
    outer loop
      vertex -1.46946 5.02254 0
      vertex -0.772542 5.37764 0
      vertex -1.46946 5.02254 5
    endloop
  endfacet
  facet normal 0.707107 -0.707107 0
    outer loop
      vertex -1.46946 5.02254 0
      vertex -1.46946 5.02254 5
      vertex -2.02254 4.46946 5
    endloop
  endfacet
  facet normal 0.707107 -0.707107 0
    outer loop
      vertex -2.02254 4.46946 0
      vertex -1.46946 5.02254 0
      vertex -2.02254 4.46946 5
    endloop
  endfacet
  facet normal 0.891007 -0.453991 0
    outer loop
      vertex -2.02254 4.46946 0
      vertex -2.02254 4.46946 5
      vertex -2.37764 3.77254 5
    endloop
  endfacet
  facet normal 0.891007 -0.453991 0
    outer loop
      vertex -2.37764 3.77254 0
      vertex -2.02254 4.46946 0
      vertex -2.37764 3.77254 5
    endloop
  endfacet
  facet normal 0.987688 -0.156435 0
    outer loop
      vertex -2.5 3 0
      vertex -2.37764 3.77254 0
      vertex -2.37764 3.77254 5
    endloop
  endfacet
  facet normal 0.987688 -0.156435 0
    outer loop
      vertex -2.5 3 1.11022e-15
      vertex -2.5 3 0
      vertex -2.5 3 5
    endloop
  endfacet
  facet normal 0.987688 -0.156435 0
    outer loop
      vertex -2.5 3 5
      vertex -2.5 3 0
      vertex -2.37764 3.77254 5
    endloop
  endfacet
  facet normal 0.987688 0.156435 0
    outer loop
      vertex -2 10 5
      vertex -1.90211 9.38197 5
      vertex -1.90211 9.38197 0
    endloop
  endfacet
  facet normal 0.987688 0.156435 0
    outer loop
      vertex -2 10 0
      vertex -2 10 5
      vertex -1.90211 9.38197 0
    endloop
  endfacet
  facet normal 0.891007 0.45399 0
    outer loop
      vertex -1.90211 9.38197 5
      vertex -1.61803 8.82443 5
      vertex -1.61803 8.82443 0
    endloop
  endfacet
  facet normal 0.891007 0.45399 0
    outer loop
      vertex -1.90211 9.38197 0
      vertex -1.90211 9.38197 5
      vertex -1.61803 8.82443 0
    endloop
  endfacet
  facet normal 0.707107 0.707107 0
    outer loop
      vertex -1.17557 8.38197 5
      vertex -1.17557 8.38197 0
      vertex -1.61803 8.82443 5
    endloop
  endfacet
  facet normal 0.707107 0.707107 0
    outer loop
      vertex -1.61803 8.82443 5
      vertex -1.17557 8.38197 0
      vertex -1.61803 8.82443 0
    endloop
  endfacet
  facet normal 0.45399 0.891007 0
    outer loop
      vertex -0.618034 8.09789 5
      vertex -0.618034 8.09789 0
      vertex -1.17557 8.38197 5
    endloop
  endfacet
  facet normal 0.45399 0.891007 0
    outer loop
      vertex -1.17557 8.38197 5
      vertex -0.618034 8.09789 0
      vertex -1.17557 8.38197 0
    endloop
  endfacet
  facet normal 0.156435 0.987688 0
    outer loop
      vertex 0 8 5
      vertex 0 8 0
      vertex -0.618034 8.09789 5
    endloop
  endfacet
  facet normal 0.156435 0.987688 0
    outer loop
      vertex -0.618034 8.09789 5
      vertex 0 8 0
      vertex -0.618034 8.09789 0
    endloop
  endfacet
  facet normal -0.156435 0.987688 0
    outer loop
      vertex 0.618034 8.09789 5
      vertex 0.618034 8.09789 0
      vertex 0 8 5
    endloop
  endfacet
  facet normal -0.156435 0.987688 0
    outer loop
      vertex 0 8 5
      vertex 0.618034 8.09789 0
      vertex 0 8 0
    endloop
  endfacet
  facet normal -0.45399 0.891007 0
    outer loop
      vertex 1.17557 8.38197 5
      vertex 1.17557 8.38197 0
      vertex 0.618034 8.09789 5
    endloop
  endfacet
  facet normal -0.45399 0.891007 0
    outer loop
      vertex 0.618034 8.09789 5
      vertex 1.17557 8.38197 0
      vertex 0.618034 8.09789 0
    endloop
  endfacet
  facet normal -0.707107 0.707107 0
    outer loop
      vertex 1.61803 8.82443 5
      vertex 1.61803 8.82443 0
      vertex 1.17557 8.38197 5
    endloop
  endfacet
  facet normal -0.707107 0.707107 0
    outer loop
      vertex 1.17557 8.38197 5
      vertex 1.61803 8.82443 0
      vertex 1.17557 8.38197 0
    endloop
  endfacet
  facet normal -0.891007 0.45399 0
    outer loop
      vertex 1.90211 9.38197 5
      vertex 1.90211 9.38197 0
      vertex 1.61803 8.82443 5
    endloop
  endfacet
  facet normal -0.891007 0.45399 0
    outer loop
      vertex 1.61803 8.82443 5
      vertex 1.90211 9.38197 0
      vertex 1.61803 8.82443 0
    endloop
  endfacet
  facet normal -0.987688 0.156435 0
    outer loop
      vertex 2 10 5
      vertex 2 10 0
      vertex 1.90211 9.38197 5
    endloop
  endfacet
  facet normal -0.987688 0.156435 0
    outer loop
      vertex 1.90211 9.38197 5
      vertex 2 10 0
      vertex 1.90211 9.38197 0
    endloop
  endfacet
  facet normal -0.987688 -0.156435 0
    outer loop
      vertex 2 10 5
      vertex 1.90211 10.618 5
      vertex 2 10 0
    endloop
  endfacet
  facet normal -0.987688 -0.156435 0
    outer loop
      vertex 2 10 0
      vertex 1.90211 10.618 5
      vertex 1.90211 10.618 0
    endloop
  endfacet
  facet normal -0.891007 -0.45399 0
    outer loop
      vertex 1.90211 10.618 5
      vertex 1.61803 11.1756 5
      vertex 1.90211 10.618 0
    endloop
  endfacet
  facet normal -0.891007 -0.45399 0
    outer loop
      vertex 1.90211 10.618 0
      vertex 1.61803 11.1756 5
      vertex 1.61803 11.1756 0
    endloop
  endfacet
  facet normal -0.707107 -0.707107 0
    outer loop
      vertex 1.61803 11.1756 0
      vertex 1.61803 11.1756 5
      vertex 1.17557 11.618 5
    endloop
  endfacet
  facet normal -0.707107 -0.707107 0
    outer loop
      vertex 1.17557 11.618 0
      vertex 1.61803 11.1756 0
      vertex 1.17557 11.618 5
    endloop
  endfacet
  facet normal -0.45399 -0.891007 0
    outer loop
      vertex 1.17557 11.618 0
      vertex 1.17557 11.618 5
      vertex 0.618034 11.9021 5
    endloop
  endfacet
  facet normal -0.45399 -0.891007 0
    outer loop
      vertex 0.618034 11.9021 0
      vertex 1.17557 11.618 0
      vertex 0.618034 11.9021 5
    endloop
  endfacet
  facet normal -0.156435 -0.987688 0
    outer loop
      vertex 0.618034 11.9021 0
      vertex 0.618034 11.9021 5
      vertex 0 12 5
    endloop
  endfacet
  facet normal -0.156435 -0.987688 0
    outer loop
      vertex 0 12 0
      vertex 0.618034 11.9021 0
      vertex 0 12 5
    endloop
  endfacet
  facet normal 0.156435 -0.987688 0
    outer loop
      vertex 0 12 0
      vertex 0 12 5
      vertex -0.618034 11.9021 5
    endloop
  endfacet
  facet normal 0.156435 -0.987688 0
    outer loop
      vertex -0.618034 11.9021 0
      vertex 0 12 0
      vertex -0.618034 11.9021 5
    endloop
  endfacet
  facet normal 0.45399 -0.891007 0
    outer loop
      vertex -0.618034 11.9021 0
      vertex -0.618034 11.9021 5
      vertex -1.17557 11.618 5
    endloop
  endfacet
  facet normal 0.45399 -0.891007 0
    outer loop
      vertex -1.17557 11.618 0
      vertex -0.618034 11.9021 0
      vertex -1.17557 11.618 5
    endloop
  endfacet
  facet normal 0.707107 -0.707107 0
    outer loop
      vertex -1.17557 11.618 0
      vertex -1.17557 11.618 5
      vertex -1.61803 11.1756 5
    endloop
  endfacet
  facet normal 0.707107 -0.707107 0
    outer loop
      vertex -1.61803 11.1756 0
      vertex -1.17557 11.618 0
      vertex -1.61803 11.1756 5
    endloop
  endfacet
  facet normal 0.891007 -0.45399 0
    outer loop
      vertex -1.61803 11.1756 0
      vertex -1.61803 11.1756 5
      vertex -1.90211 10.618 5
    endloop
  endfacet
  facet normal 0.891007 -0.45399 0
    outer loop
      vertex -1.90211 10.618 0
      vertex -1.61803 11.1756 0
      vertex -1.90211 10.618 5
    endloop
  endfacet
  facet normal 0.987688 -0.156435 0
    outer loop
      vertex -1.90211 10.618 0
      vertex -1.90211 10.618 5
      vertex -2 10 5
    endloop
  endfacet
  facet normal 0.987688 -0.156435 0
    outer loop
      vertex -2 10 0
      vertex -1.90211 10.618 0
      vertex -2 10 5
    endloop
  endfacet
  facet normal -1 0 -2.22045e-16
    outer loop
      vertex -2.5 4.32252 1.82029
      vertex -2.5 4.82029 1.32252
      vertex -2.5 3.69529 2.13988
    endloop
  endfacet
  facet normal -1 0 -2.22045e-16
    outer loop
      vertex -2.5 3.69529 2.13988
      vertex -2.5 4.82029 1.32252
      vertex -2.5 5.13988 0.695288
    endloop
  endfacet
  facet normal -1 0 -2.22045e-16
    outer loop
      vertex -2.5 3.69529 2.13988
      vertex -2.5 5.13988 0.695288
      vertex -2.5 5.25 1.11022e-15
    endloop
  endfacet
  facet normal -1 0 -2.22045e-16
    outer loop
      vertex -2.5 3.69529 2.13988
      vertex -2.5 5.25 1.11022e-15
      vertex -2.5 5.13988 -0.695288
    endloop
  endfacet
  facet normal -1 0 -2.22045e-16
    outer loop
      vertex -2.5 3.69529 2.13988
      vertex -2.5 5.13988 -0.695288
      vertex -2.5 4.82029 -1.32252
    endloop
  endfacet
  facet normal -1 0 -2.22045e-16
    outer loop
      vertex -2.5 3.69529 2.13988
      vertex -2.5 4.82029 -1.32252
      vertex -2.5 4.32252 -1.82029
    endloop
  endfacet
  facet normal -1 0 -2.22045e-16
    outer loop
      vertex -2.5 3.69529 2.13988
      vertex -2.5 4.32252 -1.82029
      vertex -2.5 3.69529 -2.13988
    endloop
  endfacet
  facet normal -1 0 -2.22045e-16
    outer loop
      vertex -2.5 3.69529 2.13988
      vertex -2.5 3.69529 -2.13988
      vertex -2.5 3 -2.25
    endloop
  endfacet
  facet normal -1 0 -2.22045e-16
    outer loop
      vertex -2.5 3 0
      vertex -2.5 3 -2.25
      vertex -2.5 2.30471 -2.13988
    endloop
  endfacet
  facet normal -1 0 -2.22045e-16
    outer loop
      vertex -2.5 3 1.11022e-15
      vertex -2.5 2.30471 -2.13988
      vertex -2.5 1.67748 -1.82029
    endloop
  endfacet
  facet normal -1 0 -2.22045e-16
    outer loop
      vertex -2.5 3.69529 2.13988
      vertex -2.5 1.67748 -1.82029
      vertex -2.5 1.17971 -1.32252
    endloop
  endfacet
  facet normal -1 0 -2.22045e-16
    outer loop
      vertex -2.5 3.69529 2.13988
      vertex -2.5 1.17971 -1.32252
      vertex -2.5 0.860123 -0.695288
    endloop
  endfacet
  facet normal -1 0 -2.22045e-16
    outer loop
      vertex -2.5 3.69529 2.13988
      vertex -2.5 0.860123 -0.695288
      vertex -2.5 0.75 1.11022e-15
    endloop
  endfacet
  facet normal -1 0 -2.22045e-16
    outer loop
      vertex -2.5 3.69529 2.13988
      vertex -2.5 0.75 1.11022e-15
      vertex -2.5 0.860123 0.695288
    endloop
  endfacet
  facet normal -1 0 -2.22045e-16
    outer loop
      vertex -2.5 3.69529 2.13988
      vertex -2.5 0.860123 0.695288
      vertex -2.5 1.17971 1.32252
    endloop
  endfacet
  facet normal -1 0 -2.22045e-16
    outer loop
      vertex -2.5 3.69529 2.13988
      vertex -2.5 1.17971 1.32252
      vertex -2.5 1.67748 1.82029
    endloop
  endfacet
  facet normal -1 0 -2.22045e-16
    outer loop
      vertex -2.5 3.69529 2.13988
      vertex -2.5 1.67748 1.82029
      vertex -2.5 2.30471 2.13988
    endloop
  endfacet
  facet normal -1 0 -2.22045e-16
    outer loop
      vertex -2.5 3.69529 2.13988
      vertex -2.5 2.30471 2.13988
      vertex -2.5 3 2.25
    endloop
  endfacet
  facet normal -1 0 -2.22045e-16
    outer loop
      vertex -2.5 3.69529 2.13988
      vertex -2.5 3 -2.25
      vertex -2.5 3 0
    endloop
  endfacet
  facet normal -1 0 -2.22045e-16
    outer loop
      vertex -2.5 3 0
      vertex -2.5 2.30471 -2.13988
      vertex -2.5 3 1.11022e-15
    endloop
  endfacet
  facet normal -1 0 -2.22045e-16
    outer loop
      vertex -2.5 3.69529 2.13988
      vertex -2.5 3 1.11022e-15
      vertex -2.5 1.67748 -1.82029
    endloop
  endfacet
  facet normal -1 0 -2.22045e-16
    outer loop
      vertex -2.5 3 1.11022e-15
      vertex -2.5 3.69529 2.13988
      vertex -2.5 3 0
    endloop
  endfacet
  facet normal -1 0 -2.22045e-16
    outer loop
      vertex -2.5 11.0286 1.41578
      vertex -2.5 11.4158 1.02862
      vertex -2.5 10.5408 1.66435
    endloop
  endfacet
  facet normal -1 0 -2.22045e-16
    outer loop
      vertex -2.5 10.5408 1.66435
      vertex -2.5 11.4158 1.02862
      vertex -2.5 11.6643 0.54078
    endloop
  endfacet
  facet normal -1 0 -2.22045e-16
    outer loop
      vertex -2.5 10.5408 1.66435
      vertex -2.5 11.6643 0.54078
      vertex -2.5 11.75 1.11022e-15
    endloop
  endfacet
  facet normal -1 0 -2.22045e-16
    outer loop
      vertex -2.5 10.5408 1.66435
      vertex -2.5 11.75 1.11022e-15
      vertex -2.5 11.6643 -0.54078
    endloop
  endfacet
  facet normal -1 0 -2.22045e-16
    outer loop
      vertex -2.5 10.5408 1.66435
      vertex -2.5 11.6643 -0.54078
      vertex -2.5 11.4158 -1.02862
    endloop
  endfacet
  facet normal -1 0 -2.22045e-16
    outer loop
      vertex -2.5 10.5408 1.66435
      vertex -2.5 11.4158 -1.02862
      vertex -2.5 11.0286 -1.41578
    endloop
  endfacet
  facet normal -1 0 -2.22045e-16
    outer loop
      vertex -2.5 10.5408 1.66435
      vertex -2.5 11.0286 -1.41578
      vertex -2.5 10.5408 -1.66435
    endloop
  endfacet
  facet normal -1 0 -2.22045e-16
    outer loop
      vertex -2.5 10.5408 1.66435
      vertex -2.5 10.5408 -1.66435
      vertex -2.5 10 -1.75
    endloop
  endfacet
  facet normal -1 0 -2.22045e-16
    outer loop
      vertex -2.5 10.5408 1.66435
      vertex -2.5 10 -1.75
      vertex -2.5 9.45922 -1.66435
    endloop
  endfacet
  facet normal -1 0 -2.22045e-16
    outer loop
      vertex -2.5 10.5408 1.66435
      vertex -2.5 9.45922 -1.66435
      vertex -2.5 8.97138 -1.41578
    endloop
  endfacet
  facet normal -1 0 -2.22045e-16
    outer loop
      vertex -2.5 10.5408 1.66435
      vertex -2.5 8.97138 -1.41578
      vertex -2.5 8.58422 -1.02862
    endloop
  endfacet
  facet normal -1 0 -2.22045e-16
    outer loop
      vertex -2.5 10.5408 1.66435
      vertex -2.5 8.58422 -1.02862
      vertex -2.5 8.33565 -0.54078
    endloop
  endfacet
  facet normal -1 0 -2.22045e-16
    outer loop
      vertex -2.5 10.5408 1.66435
      vertex -2.5 8.33565 -0.54078
      vertex -2.5 8.25 1.11022e-15
    endloop
  endfacet
  facet normal -1 0 -2.22045e-16
    outer loop
      vertex -2.5 10.5408 1.66435
      vertex -2.5 8.25 1.11022e-15
      vertex -2.5 8.33565 0.54078
    endloop
  endfacet
  facet normal -1 0 -2.22045e-16
    outer loop
      vertex -2.5 10.5408 1.66435
      vertex -2.5 8.33565 0.54078
      vertex -2.5 8.58422 1.02862
    endloop
  endfacet
  facet normal -1 0 -2.22045e-16
    outer loop
      vertex -2.5 10.5408 1.66435
      vertex -2.5 8.58422 1.02862
      vertex -2.5 8.97138 1.41578
    endloop
  endfacet
  facet normal -1 0 -2.22045e-16
    outer loop
      vertex -2.5 10.5408 1.66435
      vertex -2.5 8.97138 1.41578
      vertex -2.5 9.45922 1.66435
    endloop
  endfacet
  facet normal -1 0 -2.22045e-16
    outer loop
      vertex -2.5 10.5408 1.66435
      vertex -2.5 9.45922 1.66435
      vertex -2.5 10 1.75
    endloop
  endfacet
  facet normal 0 0 1
    outer loop
      vertex -4.27975 -9.39058 0
      vertex -3.64058 -10.645 0
      vertex -2.64503 -11.6406 0
    endloop
  endfacet
  facet normal 0 0 1
    outer loop
      vertex 0 -12.5 0
      vertex -4.27975 -9.39058 0
      vertex -1.39058 -12.2798 0
    endloop
  endfacet
  facet normal 0 0 1
    outer loop
      vertex -1.39058 -12.2798 0
      vertex -4.27975 -9.39058 0
      vertex -2.64503 -11.6406 0
    endloop
  endfacet
  facet normal 0 0 1
    outer loop
      vertex 1.39058 -12.2798 0
      vertex -4.27975 -9.39058 0
      vertex 0 -12.5 0
    endloop
  endfacet
  facet normal 0 0 1
    outer loop
      vertex 2.64503 -11.6406 0
      vertex -4.27975 -9.39058 0
      vertex 1.39058 -12.2798 0
    endloop
  endfacet
  facet normal 0 0 1
    outer loop
      vertex 3.64058 -10.645 0
      vertex -4.27975 -9.39058 0
      vertex 2.64503 -11.6406 0
    endloop
  endfacet
  facet normal 0 0 1
    outer loop
      vertex 4.27975 -9.39058 0
      vertex -4.27975 -9.39058 0
      vertex 3.64058 -10.645 0
    endloop
  endfacet
  facet normal 0 0 1
    outer loop
      vertex 4.5 -8 0
      vertex -4.27975 -9.39058 0
      vertex 4.27975 -9.39058 0
    endloop
  endfacet
  facet normal 0 0 1
    outer loop
      vertex 4.27975 -6.60942 0
      vertex -4.27975 -9.39058 0
      vertex 4.5 -8 0
    endloop
  endfacet
  facet normal 0 0 1
    outer loop
      vertex 3.64058 -5.35497 0
      vertex -4.27975 -9.39058 0
      vertex 4.27975 -6.60942 0
    endloop
  endfacet
  facet normal 0 0 1
    outer loop
      vertex 2.64503 -4.35942 0
      vertex -4.27975 -9.39058 0
      vertex 3.64058 -5.35497 0
    endloop
  endfacet
  facet normal 0 0 1
    outer loop
      vertex 1.39058 -3.72025 0
      vertex -4.27975 -9.39058 0
      vertex 2.64503 -4.35942 0
    endloop
  endfacet
  facet normal 0 0 1
    outer loop
      vertex 0 -3.5 0
      vertex -4.27975 -9.39058 0
      vertex 1.39058 -3.72025 0
    endloop
  endfacet
  facet normal 0 0 1
    outer loop
      vertex -1.39058 -3.72025 0
      vertex -4.27975 -9.39058 0
      vertex 0 -3.5 0
    endloop
  endfacet
  facet normal 0 0 1
    outer loop
      vertex -2.64503 -4.35942 0
      vertex -4.27975 -9.39058 0
      vertex -1.39058 -3.72025 0
    endloop
  endfacet
  facet normal 0 0 1
    outer loop
      vertex -3.64058 -5.35497 0
      vertex -4.27975 -9.39058 0
      vertex -2.64503 -4.35942 0
    endloop
  endfacet
  facet normal 0 0 1
    outer loop
      vertex -4.27975 -6.60942 0
      vertex -4.27975 -9.39058 0
      vertex -3.64058 -5.35497 0
    endloop
  endfacet
  facet normal 0 0 1
    outer loop
      vertex -4.5 -8 0
      vertex -4.27975 -9.39058 0
      vertex -4.27975 -6.60942 0
    endloop
  endfacet
  facet normal 0 0 1
    outer loop
      vertex -2.37764 2.22746 0
      vertex -2.02254 1.53054 0
      vertex -1.46946 0.977458 0
    endloop
  endfacet
  facet normal 0 0 1
    outer loop
      vertex 0 0.5 0
      vertex -2.37764 2.22746 0
      vertex -0.772542 0.622359 0
    endloop
  endfacet
  facet normal 0 0 1
    outer loop
      vertex -0.772542 0.622359 0
      vertex -2.37764 2.22746 0
      vertex -1.46946 0.977458 0
    endloop
  endfacet
  facet normal 0 0 1
    outer loop
      vertex 0.772542 0.622359 0
      vertex -2.37764 2.22746 0
      vertex 0 0.5 0
    endloop
  endfacet
  facet normal 0 0 1
    outer loop
      vertex 1.46946 0.977458 0
      vertex -2.37764 2.22746 0
      vertex 0.772542 0.622359 0
    endloop
  endfacet
  facet normal 0 0 1
    outer loop
      vertex 2.02254 1.53054 0
      vertex -2.37764 2.22746 0
      vertex 1.46946 0.977458 0
    endloop
  endfacet
  facet normal 0 0 1
    outer loop
      vertex 2.37764 2.22746 0
      vertex -2.37764 2.22746 0
      vertex 2.02254 1.53054 0
    endloop
  endfacet
  facet normal 0 0 1
    outer loop
      vertex 2.5 3 0
      vertex -2.37764 2.22746 0
      vertex 2.37764 2.22746 0
    endloop
  endfacet
  facet normal 0 0 1
    outer loop
      vertex 2.37764 3.77254 0
      vertex -2.37764 2.22746 0
      vertex 2.5 3 0
    endloop
  endfacet
  facet normal 0 0 1
    outer loop
      vertex 2.02254 4.46946 0
      vertex -2.37764 2.22746 0
      vertex 2.37764 3.77254 0
    endloop
  endfacet
  facet normal 0 0 1
    outer loop
      vertex 1.46946 5.02254 0
      vertex -2.37764 2.22746 0
      vertex 2.02254 4.46946 0
    endloop
  endfacet
  facet normal 0 0 1
    outer loop
      vertex 0.772542 5.37764 0
      vertex -2.37764 2.22746 0
      vertex 1.46946 5.02254 0
    endloop
  endfacet
  facet normal 0 0 1
    outer loop
      vertex 0 5.5 0
      vertex -2.37764 2.22746 0
      vertex 0.772542 5.37764 0
    endloop
  endfacet
  facet normal 0 0 1
    outer loop
      vertex -0.772542 5.37764 0
      vertex -2.37764 2.22746 0
      vertex 0 5.5 0
    endloop
  endfacet
  facet normal 0 0 1
    outer loop
      vertex -1.46946 5.02254 0
      vertex -2.37764 2.22746 0
      vertex -0.772542 5.37764 0
    endloop
  endfacet
  facet normal 0 0 1
    outer loop
      vertex -2.02254 4.46946 0
      vertex -2.37764 2.22746 0
      vertex -1.46946 5.02254 0
    endloop
  endfacet
  facet normal 0 0 1
    outer loop
      vertex -2.37764 3.77254 0
      vertex -2.37764 2.22746 0
      vertex -2.02254 4.46946 0
    endloop
  endfacet
  facet normal 0 0 1
    outer loop
      vertex -2.5 3 0
      vertex -2.37764 2.22746 0
      vertex -2.37764 3.77254 0
    endloop
  endfacet
  facet normal 0 0 1
    outer loop
      vertex -1.90211 9.38197 0
      vertex -1.61803 8.82443 0
      vertex -1.17557 8.38197 0
    endloop
  endfacet
  facet normal 0 0 1
    outer loop
      vertex 0 8 0
      vertex -1.90211 9.38197 0
      vertex -0.618034 8.09789 0
    endloop
  endfacet
  facet normal 0 0 1
    outer loop
      vertex -0.618034 8.09789 0
      vertex -1.90211 9.38197 0
      vertex -1.17557 8.38197 0
    endloop
  endfacet
  facet normal 0 0 1
    outer loop
      vertex 0.618034 8.09789 0
      vertex -1.90211 9.38197 0
      vertex 0 8 0
    endloop
  endfacet
  facet normal 0 0 1
    outer loop
      vertex 1.17557 8.38197 0
      vertex -1.90211 9.38197 0
      vertex 0.618034 8.09789 0
    endloop
  endfacet
  facet normal 0 0 1
    outer loop
      vertex 1.61803 8.82443 0
      vertex -1.90211 9.38197 0
      vertex 1.17557 8.38197 0
    endloop
  endfacet
  facet normal 0 0 1
    outer loop
      vertex 1.90211 9.38197 0
      vertex -1.90211 9.38197 0
      vertex 1.61803 8.82443 0
    endloop
  endfacet
  facet normal 0 0 1
    outer loop
      vertex 2 10 0
      vertex -1.90211 9.38197 0
      vertex 1.90211 9.38197 0
    endloop
  endfacet
  facet normal 0 0 1
    outer loop
      vertex 1.90211 10.618 0
      vertex -1.90211 9.38197 0
      vertex 2 10 0
    endloop
  endfacet
  facet normal 0 0 1
    outer loop
      vertex 1.61803 11.1756 0
      vertex -1.90211 9.38197 0
      vertex 1.90211 10.618 0
    endloop
  endfacet
  facet normal 0 0 1
    outer loop
      vertex 1.17557 11.618 0
      vertex -1.90211 9.38197 0
      vertex 1.61803 11.1756 0
    endloop
  endfacet
  facet normal 0 0 1
    outer loop
      vertex 0.618034 11.9021 0
      vertex -1.90211 9.38197 0
      vertex 1.17557 11.618 0
    endloop
  endfacet
  facet normal 0 0 1
    outer loop
      vertex 0 12 0
      vertex -1.90211 9.38197 0
      vertex 0.618034 11.9021 0
    endloop
  endfacet
  facet normal 0 0 1
    outer loop
      vertex -0.618034 11.9021 0
      vertex -1.90211 9.38197 0
      vertex 0 12 0
    endloop
  endfacet
  facet normal 0 0 1
    outer loop
      vertex -1.17557 11.618 0
      vertex -1.90211 9.38197 0
      vertex -0.618034 11.9021 0
    endloop
  endfacet
  facet normal 0 0 1
    outer loop
      vertex -1.61803 11.1756 0
      vertex -1.90211 9.38197 0
      vertex -1.17557 11.618 0
    endloop
  endfacet
  facet normal 0 0 1
    outer loop
      vertex -1.90211 10.618 0
      vertex -1.90211 9.38197 0
      vertex -1.61803 11.1756 0
    endloop
  endfacet
  facet normal 0 0 1
    outer loop
      vertex -2 10 0
      vertex -1.90211 9.38197 0
      vertex -1.90211 10.618 0
    endloop
  endfacet
endsolid OpenSCAD_Model
