solid OpenSCAD_Model
  facet normal -0.991445 2.89827e-17 0.130526
    outer loop
      vertex -65 -7 1.55431e-15
      vertex -64.8296 -7 1.2941
      vertex -65 -4.2 9.32587e-16
    endloop
  endfacet
  facet normal -0.991445 2.89827e-17 0.130526
    outer loop
      vertex -65 -4.2 9.32587e-16
      vertex -64.8296 -7 1.2941
      vertex -64.8296 -4.2 1.2941
    endloop
  endfacet
  facet normal 0 -1 2.22045e-16
    outer loop
      vertex -64.8296 -7 1.2941
      vertex -65 -7 1.55431e-15
      vertex -63 -7 1.55431e-15
    endloop
  endfacet
  facet normal 0 -1 2.22045e-16
    outer loop
      vertex -63.5628 -7 3.5
      vertex -64.8296 -7 1.2941
      vertex -63 -7 3.5
    endloop
  endfacet
  facet normal 0 -1 2.22045e-16
    outer loop
      vertex -63 -7 3.5
      vertex -64.8296 -7 1.2941
      vertex -63 -7 1.55431e-15
    endloop
  endfacet
  facet normal 0 -1 2.22045e-16
    outer loop
      vertex -64.3301 -7 2.5
      vertex -64.8296 -7 1.2941
      vertex -63.5628 -7 3.5
    endloop
  endfacet
  facet normal 0 -1 0
    outer loop
      vertex -63 -7 1.55431e-15
      vertex -65 -7 1.55431e-15
      vertex -64.8296 -7 -1.29409
    endloop
  endfacet
  facet normal 0 -1 0
    outer loop
      vertex -63.5628 -7 -3.5
      vertex -63 -7 1.55431e-15
      vertex -64.3301 -7 -2.5
    endloop
  endfacet
  facet normal 0 -1 0
    outer loop
      vertex -64.3301 -7 -2.5
      vertex -63 -7 1.55431e-15
      vertex -64.8296 -7 -1.29409
    endloop
  endfacet
  facet normal 0 -1 0
    outer loop
      vertex -58.2 -7 1.55431e-15
      vertex -58.4412 -7 -0.9
      vertex -49.9096 -7 3.46134e-08
    endloop
  endfacet
  facet normal 0 -1 0
    outer loop
      vertex -58.727 -7 -3.5
      vertex -63 -7 1.55431e-15
      vertex -63.5628 -7 -3.5
    endloop
  endfacet
  facet normal 0 -1 0
    outer loop
      vertex -60.9 -7 -1.55885
      vertex -63 -7 1.55431e-15
      vertex -58.727 -7 -3.5
    endloop
  endfacet
  facet normal 0 -1 0
    outer loop
      vertex -61.8 -7 1.55431e-15
      vertex -61.5588 -7 0.9
      vertex -63 -7 1.55431e-15
    endloop
  endfacet
  facet normal 0 -1 0
    outer loop
      vertex -58.4412 -7 0.9
      vertex -58.2 -7 1.55431e-15
      vertex -49.9096 -7 3.46134e-08
    endloop
  endfacet
  facet normal 0 -1 0
    outer loop
      vertex -61.8 -7 1.55431e-15
      vertex -63 -7 1.55431e-15
      vertex -61.5588 -7 -0.9
    endloop
  endfacet
  facet normal 0 -1 0
    outer loop
      vertex -60.9 -7 1.55885
      vertex -60 -7 1.8
      vertex -58.727 -7 3.5
    endloop
  endfacet
  facet normal 0 -1 0
    outer loop
      vertex -59.1 -7 1.55885
      vertex -58.4412 -7 0.9
      vertex -53.2247 -7 1.31591
    endloop
  endfacet
  facet normal 0 -1 0
    outer loop
      vertex -58.727 -7 3.5
      vertex -60 -7 1.8
      vertex -53.2247 -7 1.31591
    endloop
  endfacet
  facet normal 0 -1 0
    outer loop
      vertex -60 -7 1.8
      vertex -59.1 -7 1.55885
      vertex -53.2247 -7 1.31591
    endloop
  endfacet
  facet normal 0 -1 0
    outer loop
      vertex -60 -7 -1.8
      vertex -60.9 -7 -1.55885
      vertex -58.727 -7 -3.5
    endloop
  endfacet
  facet normal 0 -1 0
    outer loop
      vertex -49.9096 -7 3.46134e-08
      vertex -58.4412 -7 -0.9
      vertex -58.727 -7 -3.5
    endloop
  endfacet
  facet normal 0 -1 0
    outer loop
      vertex -58.4412 -7 -0.9
      vertex -59.1 -7 -1.55885
      vertex -58.727 -7 -3.5
    endloop
  endfacet
  facet normal 0 -1 0
    outer loop
      vertex -59.1 -7 -1.55885
      vertex -60 -7 -1.8
      vertex -58.727 -7 -3.5
    endloop
  endfacet
  facet normal 0 -1 0
    outer loop
      vertex -61.5588 -7 -0.9
      vertex -63 -7 1.55431e-15
      vertex -60.9 -7 -1.55885
    endloop
  endfacet
  facet normal 0 -1 0
    outer loop
      vertex -63 -7 3.5
      vertex -60.9 -7 1.55885
      vertex -58.727 -7 3.5
    endloop
  endfacet
  facet normal 0 -1 0
    outer loop
      vertex -63 -7 3.5
      vertex -61.5588 -7 0.9
      vertex -60.9 -7 1.55885
    endloop
  endfacet
  facet normal 0 -1 0
    outer loop
      vertex -58.4412 -7 0.9
      vertex -49.9096 -7 3.46134e-08
      vertex -53.2247 -7 1.31591
    endloop
  endfacet
  facet normal 0 -1 0
    outer loop
      vertex -63 -7 3.5
      vertex -63 -7 1.55431e-15
      vertex -61.5588 -7 0.9
    endloop
  endfacet
  facet normal -0.991445 -2.89827e-17 -0.130526
    outer loop
      vertex -65 -7 1.55431e-15
      vertex -65 -4.2 9.32587e-16
      vertex -64.8296 -7 -1.29409
    endloop
  endfacet
  facet normal -0.991445 -2.89827e-17 -0.130526
    outer loop
      vertex -64.8296 -7 -1.29409
      vertex -65 -4.2 9.32587e-16
      vertex -64.8296 -4.2 -1.29409
    endloop
  endfacet
  facet normal 0 1 0
    outer loop
      vertex -64.3301 -4.2 2.5
      vertex -63.5628 -4.2 3.5
      vertex -64.8296 -4.2 1.2941
    endloop
  endfacet
  facet normal 0 1 0
    outer loop
      vertex -64.8296 -4.2 1.2941
      vertex -63.5628 -4.2 3.5
      vertex -56.5 -4.2 3.5
    endloop
  endfacet
  facet normal 0 1 0
    outer loop
      vertex -59.1 -4.2 1.55885
      vertex -56.5 -4.2 3.5
      vertex -58.7706 -4.2 1.22942
    endloop
  endfacet
  facet normal 0 1 0
    outer loop
      vertex -60 -4.2 1.8
      vertex -56.5 -4.2 3.5
      vertex -59.1 -4.2 1.55885
    endloop
  endfacet
  facet normal 0 1 0
    outer loop
      vertex -64.8296 -4.2 1.2941
      vertex -56.5 -4.2 3.5
      vertex -60 -4.2 1.8
    endloop
  endfacet
  facet normal 0 1 0
    outer loop
      vertex -64.8296 -4.2 1.2941
      vertex -60 -4.2 1.8
      vertex -60.9 -4.2 1.55885
    endloop
  endfacet
  facet normal 0 1 0
    outer loop
      vertex -64.8296 -4.2 1.2941
      vertex -61.5588 -4.2 0.9
      vertex -61.8 -4.2 9.32587e-16
    endloop
  endfacet
  facet normal 0 1 0
    outer loop
      vertex -61.8 -4.2 9.32587e-16
      vertex -61.5588 -4.2 -0.9
      vertex -64.8296 -4.2 1.2941
    endloop
  endfacet
  facet normal 0 1 0
    outer loop
      vertex -61.5588 -4.2 -0.9
      vertex -60.9 -4.2 -1.55885
      vertex -64.8296 -4.2 1.2941
    endloop
  endfacet
  facet normal 0 1 0
    outer loop
      vertex -60 -4.2 -1.8
      vertex -56.5 -4.2 -3.5
      vertex -60.9 -4.2 -1.55885
    endloop
  endfacet
  facet normal 0 1 0
    outer loop
      vertex -59.1 -4.2 -1.55885
      vertex -58.7706 -4.2 -1.22942
      vertex -56.5 -4.2 -3.5
    endloop
  endfacet
  facet normal 0 1 0
    outer loop
      vertex -59.1 -4.2 -1.55885
      vertex -56.5 -4.2 -3.5
      vertex -60 -4.2 -1.8
    endloop
  endfacet
  facet normal 0 1 0
    outer loop
      vertex -60.9 -4.2 -1.55885
      vertex -56.5 -4.2 -3.5
      vertex -63.5628 -4.2 -3.5
    endloop
  endfacet
  facet normal 0 1 0
    outer loop
      vertex -60.9 -4.2 -1.55885
      vertex -63.5628 -4.2 -3.5
      vertex -64.8296 -4.2 1.2941
    endloop
  endfacet
  facet normal 0 1 0
    outer loop
      vertex -64.8296 -4.2 1.2941
      vertex -63.5628 -4.2 -3.5
      vertex -64.3301 -4.2 -2.5
    endloop
  endfacet
  facet normal 0 1 0
    outer loop
      vertex -64.8296 -4.2 1.2941
      vertex -64.3301 -4.2 -2.5
      vertex -64.8296 -4.2 -1.29409
    endloop
  endfacet
  facet normal 0 1 0
    outer loop
      vertex -64.8296 -4.2 1.2941
      vertex -64.8296 -4.2 -1.29409
      vertex -65 -4.2 9.32587e-16
    endloop
  endfacet
  facet normal 0 1 0
    outer loop
      vertex -61.5588 -4.2 0.9
      vertex -64.8296 -4.2 1.2941
      vertex -60.9 -4.2 1.55885
    endloop
  endfacet
  facet normal -0.92388 8.49728e-17 0.382683
    outer loop
      vertex -64.8296 -7 1.2941
      vertex -64.3301 -7 2.5
      vertex -64.8296 -4.2 1.2941
    endloop
  endfacet
  facet normal -0.92388 8.49728e-17 0.382683
    outer loop
      vertex -64.8296 -4.2 1.2941
      vertex -64.3301 -7 2.5
      vertex -64.3301 -4.2 2.5
    endloop
  endfacet
  facet normal -0.793353 1.35172e-16 0.608761
    outer loop
      vertex -64.3301 -7 2.5
      vertex -63.5628 -7 3.5
      vertex -64.3301 -4.2 2.5
    endloop
  endfacet
  facet normal -0.793353 1.35172e-16 0.608761
    outer loop
      vertex -64.3301 -4.2 2.5
      vertex -63.5628 -7 3.5
      vertex -63.5628 -4.2 3.5
    endloop
  endfacet
  facet normal 0 0 1
    outer loop
      vertex -63.5628 -4.2 3.5
      vertex -63.5628 -7 3.5
      vertex -63 -7 3.5
    endloop
  endfacet
  facet normal 0 0 1
    outer loop
      vertex -58.727 -7 3.5
      vertex -63.5628 -4.2 3.5
      vertex -63 -7 3.5
    endloop
  endfacet
  facet normal 0 0 1
    outer loop
      vertex -56.5 4.2 3.5
      vertex -51.3561 2.1 3.5
      vertex -37 2.02073 3.5
    endloop
  endfacet
  facet normal 0 0 1
    outer loop
      vertex -58.727 7 3.5
      vertex -63.5628 7 3.5
      vertex -63.5628 4.2 3.5
    endloop
  endfacet
  facet normal 0 0 1
    outer loop
      vertex -37 2.02073 3.5
      vertex -58.727 7 3.5
      vertex -56.5 4.2 3.5
    endloop
  endfacet
  facet normal 0 0 1
    outer loop
      vertex -51.3561 2.1 3.5
      vertex -51.3561 -2.1 3.5
      vertex -37 2.02073 3.5
    endloop
  endfacet
  facet normal 0 0 1
    outer loop
      vertex -37 -2.02073 3.5
      vertex -37 2.02073 3.5
      vertex -51.3561 -2.1 3.5
    endloop
  endfacet
  facet normal 0 0 1
    outer loop
      vertex -58.727 -7 3.5
      vertex -37 -2.02073 3.5
      vertex -56.5 -4.2 3.5
    endloop
  endfacet
  facet normal 0 0 1
    outer loop
      vertex -58.727 -7 3.5
      vertex -56.5 -4.2 3.5
      vertex -63.5628 -4.2 3.5
    endloop
  endfacet
  facet normal 0 0 1
    outer loop
      vertex -63.5628 4.2 3.5
      vertex -56.5 4.2 3.5
      vertex -58.727 7 3.5
    endloop
  endfacet
  facet normal 0 0 1
    outer loop
      vertex -51.3561 -2.1 3.5
      vertex -56.5 -4.2 3.5
      vertex -37 -2.02073 3.5
    endloop
  endfacet
  facet normal 0.194674 -0.849457 0.490434
    outer loop
      vertex -37 -2.02073 3.5
      vertex -58.727 -7 3.5
      vertex -53.2247 -7 1.31591
    endloop
  endfacet
  facet normal 0.194674 -0.849457 0.490434
    outer loop
      vertex -37 -2.02073 3.5
      vertex -53.2247 -7 1.31591
      vertex -49.9096 -7 3.46134e-08
    endloop
  endfacet
  facet normal 0.194674 -0.849457 0.490434
    outer loop
      vertex -37 -3.03109 1.75
      vertex -37 -2.02073 3.5
      vertex -37 -4.04145 5.00877e-08
    endloop
  endfacet
  facet normal 0.194674 -0.849457 0.490434
    outer loop
      vertex -37 -4.04145 5.00877e-08
      vertex -37 -2.02073 3.5
      vertex -49.9096 -7 3.46134e-08
    endloop
  endfacet
  facet normal 0.194674 -0.849457 -0.490434
    outer loop
      vertex -49.9096 -7 3.46134e-08
      vertex -58.727 -7 -3.5
      vertex -37 -2.02073 -3.5
    endloop
  endfacet
  facet normal 0.194674 -0.849457 -0.490434
    outer loop
      vertex -37 -4.04145 5.00877e-08
      vertex -49.9096 -7 3.46134e-08
      vertex -37 -4.04145 -8.21565e-15
    endloop
  endfacet
  facet normal 0.194674 -0.849457 -0.490434
    outer loop
      vertex -37 -4.04145 -8.21565e-15
      vertex -49.9096 -7 3.46134e-08
      vertex -37 -2.02073 -3.5
    endloop
  endfacet
  facet normal 0 0 -1
    outer loop
      vertex -63.5628 7 -3.5
      vertex -63 7 -3.5
      vertex -63.5628 4.2 -3.5
    endloop
  endfacet
  facet normal 0 0 -1
    outer loop
      vertex -63.5628 4.2 -3.5
      vertex -63 7 -3.5
      vertex -58.727 7 -3.5
    endloop
  endfacet
  facet normal 0 0 -1
    outer loop
      vertex -56.5 4.2 -3.5
      vertex -58.727 7 -3.5
      vertex -37 2.02073 -3.5
    endloop
  endfacet
  facet normal 0 0 -1
    outer loop
      vertex -51.3561 2.1 -3.5
      vertex -50 2.02073 -3.5
      vertex -50 -2.02073 -3.5
    endloop
  endfacet
  facet normal 0 0 -1
    outer loop
      vertex -50 -2.02073 -3.5
      vertex -37 -2.02073 -3.5
      vertex -58.727 -7 -3.5
    endloop
  endfacet
  facet normal 0 0 -1
    outer loop
      vertex -63.5628 -4.2 -3.5
      vertex -58.727 -7 -3.5
      vertex -63.5628 -7 -3.5
    endloop
  endfacet
  facet normal 0 0 -1
    outer loop
      vertex -56.5 4.2 -3.5
      vertex -50 2.02073 -3.5
      vertex -51.3561 2.1 -3.5
    endloop
  endfacet
  facet normal 0 0 -1
    outer loop
      vertex -56.5 4.2 -3.5
      vertex -37 2.02073 -3.5
      vertex -50 2.02073 -3.5
    endloop
  endfacet
  facet normal 0 0 -1
    outer loop
      vertex -50 -2.02073 -3.5
      vertex -58.727 -7 -3.5
      vertex -56.5 -4.2 -3.5
    endloop
  endfacet
  facet normal 0 0 -1
    outer loop
      vertex -51.3561 -2.1 -3.5
      vertex -50 -2.02073 -3.5
      vertex -56.5 -4.2 -3.5
    endloop
  endfacet
  facet normal 0 0 -1
    outer loop
      vertex -51.3561 2.1 -3.5
      vertex -50 -2.02073 -3.5
      vertex -51.3561 -2.1 -3.5
    endloop
  endfacet
  facet normal 0 0 -1
    outer loop
      vertex -63.5628 4.2 -3.5
      vertex -58.727 7 -3.5
      vertex -56.5 4.2 -3.5
    endloop
  endfacet
  facet normal 0 0 -1
    outer loop
      vertex -56.5 -4.2 -3.5
      vertex -58.727 -7 -3.5
      vertex -63.5628 -4.2 -3.5
    endloop
  endfacet
  facet normal -0.793353 -1.35172e-16 -0.608761
    outer loop
      vertex -64.3301 -7 -2.5
      vertex -64.3301 -4.2 -2.5
      vertex -63.5628 -7 -3.5
    endloop
  endfacet
  facet normal -0.793353 -1.35172e-16 -0.608761
    outer loop
      vertex -63.5628 -7 -3.5
      vertex -64.3301 -4.2 -2.5
      vertex -63.5628 -4.2 -3.5
    endloop
  endfacet
  facet normal -0.92388 -8.49728e-17 -0.382683
    outer loop
      vertex -64.8296 -7 -1.29409
      vertex -64.8296 -4.2 -1.29409
      vertex -64.3301 -7 -2.5
    endloop
  endfacet
  facet normal -0.92388 -8.49728e-17 -0.382683
    outer loop
      vertex -64.3301 -7 -2.5
      vertex -64.8296 -4.2 -1.29409
      vertex -64.3301 -4.2 -2.5
    endloop
  endfacet
  facet normal 0.965926 5.74693e-17 0.258819
    outer loop
      vertex -61.5588 -7 -0.9
      vertex -61.5588 -4.2 -0.9
      vertex -61.8 -4.2 9.32587e-16
    endloop
  endfacet
  facet normal 0.965926 5.74693e-17 0.258819
    outer loop
      vertex -61.8 -7 1.55431e-15
      vertex -61.5588 -7 -0.9
      vertex -61.8 -4.2 9.32587e-16
    endloop
  endfacet
  facet normal 0.707107 1.57009e-16 0.707107
    outer loop
      vertex -60.9 -7 -1.55885
      vertex -60.9 -4.2 -1.55885
      vertex -61.5588 -4.2 -0.9
    endloop
  endfacet
  facet normal 0.707107 1.57009e-16 0.707107
    outer loop
      vertex -61.5588 -7 -0.9
      vertex -60.9 -7 -1.55885
      vertex -61.5588 -4.2 -0.9
    endloop
  endfacet
  facet normal 0.258819 2.14479e-16 0.965926
    outer loop
      vertex -60 -7 -1.8
      vertex -60 -4.2 -1.8
      vertex -60.9 -4.2 -1.55885
    endloop
  endfacet
  facet normal 0.258819 2.14479e-16 0.965926
    outer loop
      vertex -60.9 -7 -1.55885
      vertex -60 -7 -1.8
      vertex -60.9 -4.2 -1.55885
    endloop
  endfacet
  facet normal -0.258819 2.14479e-16 0.965926
    outer loop
      vertex -59.1 -7 -1.55885
      vertex -59.1 -4.2 -1.55885
      vertex -60 -4.2 -1.8
    endloop
  endfacet
  facet normal -0.258819 2.14479e-16 0.965926
    outer loop
      vertex -60 -7 -1.8
      vertex -59.1 -7 -1.55885
      vertex -60 -4.2 -1.8
    endloop
  endfacet
  facet normal -0.707107 1.57009e-16 0.707107
    outer loop
      vertex -58.4412 -4.2 -0.9
      vertex -58.7706 -4.2 -1.22942
      vertex -58.4412 -7 -0.9
    endloop
  endfacet
  facet normal -0.707107 1.57009e-16 0.707107
    outer loop
      vertex -58.4412 -7 -0.9
      vertex -58.7706 -4.2 -1.22942
      vertex -59.1 -4.2 -1.55885
    endloop
  endfacet
  facet normal -0.707107 1.57009e-16 0.707107
    outer loop
      vertex -58.4412 -7 -0.9
      vertex -59.1 -4.2 -1.55885
      vertex -59.1 -7 -1.55885
    endloop
  endfacet
  facet normal -0.965926 5.74693e-17 0.258819
    outer loop
      vertex -58.2 -4.2 9.32587e-16
      vertex -58.4412 -4.2 -0.9
      vertex -58.2 -7 1.55431e-15
    endloop
  endfacet
  facet normal -0.965926 5.74693e-17 0.258819
    outer loop
      vertex -58.2 -7 1.55431e-15
      vertex -58.4412 -4.2 -0.9
      vertex -58.4412 -7 -0.9
    endloop
  endfacet
  facet normal -0.965926 -5.74693e-17 -0.258819
    outer loop
      vertex -58.2 -4.2 9.32587e-16
      vertex -58.2 -7 1.55431e-15
      vertex -58.4412 -4.2 0.9
    endloop
  endfacet
  facet normal -0.965926 -5.74693e-17 -0.258819
    outer loop
      vertex -58.4412 -4.2 0.9
      vertex -58.2 -7 1.55431e-15
      vertex -58.4412 -7 0.9
    endloop
  endfacet
  facet normal -0.707107 -1.57009e-16 -0.707107
    outer loop
      vertex -58.4412 -7 0.9
      vertex -58.7706 -4.2 1.22942
      vertex -58.4412 -4.2 0.9
    endloop
  endfacet
  facet normal -0.707107 -1.57009e-16 -0.707107
    outer loop
      vertex -59.1 -4.2 1.55885
      vertex -58.7706 -4.2 1.22942
      vertex -58.4412 -7 0.9
    endloop
  endfacet
  facet normal -0.707107 -1.57009e-16 -0.707107
    outer loop
      vertex -59.1 -4.2 1.55885
      vertex -58.4412 -7 0.9
      vertex -59.1 -7 1.55885
    endloop
  endfacet
  facet normal -0.258819 -2.14479e-16 -0.965926
    outer loop
      vertex -59.1 -4.2 1.55885
      vertex -59.1 -7 1.55885
      vertex -60 -4.2 1.8
    endloop
  endfacet
  facet normal -0.258819 -2.14479e-16 -0.965926
    outer loop
      vertex -60 -4.2 1.8
      vertex -59.1 -7 1.55885
      vertex -60 -7 1.8
    endloop
  endfacet
  facet normal 0.258819 -2.14479e-16 -0.965926
    outer loop
      vertex -60 -4.2 1.8
      vertex -60 -7 1.8
      vertex -60.9 -4.2 1.55885
    endloop
  endfacet
  facet normal 0.258819 -2.14479e-16 -0.965926
    outer loop
      vertex -60.9 -4.2 1.55885
      vertex -60 -7 1.8
      vertex -60.9 -7 1.55885
    endloop
  endfacet
  facet normal 0.707107 -1.57009e-16 -0.707107
    outer loop
      vertex -61.5588 -4.2 0.9
      vertex -60.9 -4.2 1.55885
      vertex -60.9 -7 1.55885
    endloop
  endfacet
  facet normal 0.707107 -1.57009e-16 -0.707107
    outer loop
      vertex -61.5588 -7 0.9
      vertex -61.5588 -4.2 0.9
      vertex -60.9 -7 1.55885
    endloop
  endfacet
  facet normal 0.965926 -5.74693e-17 -0.258819
    outer loop
      vertex -61.8 -4.2 9.32587e-16
      vertex -61.5588 -4.2 0.9
      vertex -61.5588 -7 0.9
    endloop
  endfacet
  facet normal 0.965926 -5.74693e-17 -0.258819
    outer loop
      vertex -61.8 -7 1.55431e-15
      vertex -61.8 -4.2 9.32587e-16
      vertex -61.5588 -7 0.9
    endloop
  endfacet
  facet normal -0.353553 0.866025 0.353553
    outer loop
      vertex -51.3561 -2.1 3.5
      vertex -52.8627 -2.1 1.99338
      vertex -56.5 -4.2 3.5
    endloop
  endfacet
  facet normal -0.707107 -3.6203e-08 0.707107
    outer loop
      vertex -52.8627 -2.1 1.99338
      vertex -51.3561 -2.1 3.5
      vertex -51.3561 2.1 3.5
    endloop
  endfacet
  facet normal -0.707107 -3.6203e-08 0.707107
    outer loop
      vertex -52.8627 2.1 1.99338
      vertex -52.8627 -2.1 1.99338
      vertex -51.3561 2.1 3.5
    endloop
  endfacet
  facet normal -0.353553 -0.866025 0.353553
    outer loop
      vertex -52.8627 2.1 1.99338
      vertex -51.3561 2.1 3.5
      vertex -56.5 4.2 3.5
    endloop
  endfacet
  facet normal -0.5 -0.866025 0
    outer loop
      vertex -56.5 4.2 -3.5
      vertex -52.8627 2.1 -1.99338
      vertex -52.8627 2.1 1.99338
    endloop
  endfacet
  facet normal -0.5 -0.866025 0
    outer loop
      vertex -56.5 4.2 3.5
      vertex -56.5 4.2 -3.5
      vertex -52.8627 2.1 1.99338
    endloop
  endfacet
  facet normal 0 -1 0
    outer loop
      vertex -64.8296 4.2 -1.2941
      vertex -64.3301 4.2 -2.5
      vertex -63.5628 4.2 -3.5
    endloop
  endfacet
  facet normal 0 -1 0
    outer loop
      vertex -60 4.2 -1.8
      vertex -64.8296 4.2 -1.2941
      vertex -56.5 4.2 -3.5
    endloop
  endfacet
  facet normal 0 -1 0
    outer loop
      vertex -56.5 4.2 -3.5
      vertex -64.8296 4.2 -1.2941
      vertex -63.5628 4.2 -3.5
    endloop
  endfacet
  facet normal 0 -1 0
    outer loop
      vertex -58.7706 4.2 -1.22942
      vertex -59.1 4.2 -1.55885
      vertex -56.5 4.2 -3.5
    endloop
  endfacet
  facet normal 0 -1 0
    outer loop
      vertex -59.1 4.2 -1.55885
      vertex -60 4.2 -1.8
      vertex -56.5 4.2 -3.5
    endloop
  endfacet
  facet normal 0 -1 0
    outer loop
      vertex -60.9 4.2 -1.55885
      vertex -64.8296 4.2 -1.2941
      vertex -60 4.2 -1.8
    endloop
  endfacet
  facet normal 0 -1 0
    outer loop
      vertex -61.8 4.2 -9.32587e-16
      vertex -64.8296 4.2 -1.2941
      vertex -61.5588 4.2 -0.9
    endloop
  endfacet
  facet normal 0 -1 0
    outer loop
      vertex -61.5588 4.2 0.9
      vertex -64.8296 4.2 -1.2941
      vertex -61.8 4.2 -9.32587e-16
    endloop
  endfacet
  facet normal 0 -1 0
    outer loop
      vertex -60.9 4.2 1.55885
      vertex -64.8296 4.2 -1.2941
      vertex -61.5588 4.2 0.9
    endloop
  endfacet
  facet normal 0 -1 0
    outer loop
      vertex -63.5628 4.2 3.5
      vertex -64.8296 4.2 -1.2941
      vertex -60.9 4.2 1.55885
    endloop
  endfacet
  facet normal 0 -1 0
    outer loop
      vertex -56.5 4.2 3.5
      vertex -60.9 4.2 1.55885
      vertex -60 4.2 1.8
    endloop
  endfacet
  facet normal 0 -1 0
    outer loop
      vertex -56.5 4.2 3.5
      vertex -60 4.2 1.8
      vertex -59.1 4.2 1.55885
    endloop
  endfacet
  facet normal 0 -1 0
    outer loop
      vertex -56.5 4.2 3.5
      vertex -59.1 4.2 1.55885
      vertex -58.7706 4.2 1.22942
    endloop
  endfacet
  facet normal 0 -1 0
    outer loop
      vertex -56.5 4.2 3.5
      vertex -63.5628 4.2 3.5
      vertex -60.9 4.2 1.55885
    endloop
  endfacet
  facet normal 0 -1 0
    outer loop
      vertex -64.3301 4.2 2.5
      vertex -64.8296 4.2 -1.2941
      vertex -63.5628 4.2 3.5
    endloop
  endfacet
  facet normal 0 -1 0
    outer loop
      vertex -64.8296 4.2 1.29409
      vertex -64.8296 4.2 -1.2941
      vertex -64.3301 4.2 2.5
    endloop
  endfacet
  facet normal 0 -1 0
    outer loop
      vertex -65 4.2 -9.32587e-16
      vertex -64.8296 4.2 -1.2941
      vertex -64.8296 4.2 1.29409
    endloop
  endfacet
  facet normal 0 -1 0
    outer loop
      vertex -60.9 4.2 -1.55885
      vertex -61.5588 4.2 -0.9
      vertex -64.8296 4.2 -1.2941
    endloop
  endfacet
  facet normal -0.793353 1.35172e-16 0.608761
    outer loop
      vertex -64.3301 4.2 2.5
      vertex -63.5628 4.2 3.5
      vertex -64.3301 7 2.5
    endloop
  endfacet
  facet normal -0.793353 1.35172e-16 0.608761
    outer loop
      vertex -64.3301 7 2.5
      vertex -63.5628 4.2 3.5
      vertex -63.5628 7 3.5
    endloop
  endfacet
  facet normal 0 1 0
    outer loop
      vertex -65 7 -1.55431e-15
      vertex -64.8296 7 1.29409
      vertex -63 7 -1.55431e-15
    endloop
  endfacet
  facet normal 0 1 0
    outer loop
      vertex -63 7 -1.55431e-15
      vertex -64.8296 7 1.29409
      vertex -64.3301 7 2.5
    endloop
  endfacet
  facet normal 0 1 0
    outer loop
      vertex -63 7 -1.55431e-15
      vertex -64.3301 7 2.5
      vertex -63.5628 7 3.5
    endloop
  endfacet
  facet normal 0 1 0
    outer loop
      vertex -63 7 -1.55431e-15
      vertex -63.5628 7 3.5
      vertex -58.727 7 3.5
    endloop
  endfacet
  facet normal 0 1 0
    outer loop
      vertex -58.2 7 -1.55431e-15
      vertex -58.727 7 3.5
      vertex -49.9096 7 -3.46134e-08
    endloop
  endfacet
  facet normal 0 1 0
    outer loop
      vertex -61.5588 7 -0.9
      vertex -63 7 -2.88658e-15
      vertex -63 7 -1.55431e-15
    endloop
  endfacet
  facet normal 0 1 0
    outer loop
      vertex -61.5588 7 -0.9
      vertex -63 7 -1.55431e-15
      vertex -61.8 7 -1.55431e-15
    endloop
  endfacet
  facet normal 0 1 0
    outer loop
      vertex -58.4412 7 -0.9
      vertex -53.2247 7 -1.31591
      vertex -59.1 7 -1.55885
    endloop
  endfacet
  facet normal 0 1 0
    outer loop
      vertex -53.2247 7 -1.31591
      vertex -58.727 7 -3.5
      vertex -60 7 -1.8
    endloop
  endfacet
  facet normal 0 1 0
    outer loop
      vertex -53.2247 7 -1.31591
      vertex -60 7 -1.8
      vertex -59.1 7 -1.55885
    endloop
  endfacet
  facet normal 0 1 0
    outer loop
      vertex -58.2 7 -1.55431e-15
      vertex -53.2247 7 -1.31591
      vertex -58.4412 7 -0.9
    endloop
  endfacet
  facet normal 0 1 0
    outer loop
      vertex -58.2 7 -1.55431e-15
      vertex -49.9096 7 -3.46134e-08
      vertex -53.2247 7 -1.31591
    endloop
  endfacet
  facet normal 0 1 0
    outer loop
      vertex -58.4412 7 0.9
      vertex -58.727 7 3.5
      vertex -58.2 7 -1.55431e-15
    endloop
  endfacet
  facet normal 0 1 0
    outer loop
      vertex -60.9 7 1.55885
      vertex -58.727 7 3.5
      vertex -60 7 1.8
    endloop
  endfacet
  facet normal 0 1 0
    outer loop
      vertex -59.1 7 1.55885
      vertex -58.727 7 3.5
      vertex -58.4412 7 0.9
    endloop
  endfacet
  facet normal 0 1 0
    outer loop
      vertex -60 7 1.8
      vertex -58.727 7 3.5
      vertex -59.1 7 1.55885
    endloop
  endfacet
  facet normal 0 1 0
    outer loop
      vertex -63 7 -1.55431e-15
      vertex -58.727 7 3.5
      vertex -60.9 7 1.55885
    endloop
  endfacet
  facet normal 0 1 0
    outer loop
      vertex -63 7 -1.55431e-15
      vertex -60.9 7 1.55885
      vertex -61.5588 7 0.9
    endloop
  endfacet
  facet normal 0 1 0
    outer loop
      vertex -63 7 -1.55431e-15
      vertex -61.5588 7 0.9
      vertex -61.8 7 -1.55431e-15
    endloop
  endfacet
  facet normal 0 1 0
    outer loop
      vertex -60 7 -1.8
      vertex -58.727 7 -3.5
      vertex -60.9 7 -1.55885
    endloop
  endfacet
  facet normal 0 1 0
    outer loop
      vertex -63 7 -2.88658e-15
      vertex -61.5588 7 -0.9
      vertex -60.9 7 -1.55885
    endloop
  endfacet
  facet normal 0 1 0
    outer loop
      vertex -63 7 -2.88658e-15
      vertex -60.9 7 -1.55885
      vertex -58.727 7 -3.5
    endloop
  endfacet
  facet normal 0 1 0
    outer loop
      vertex -63 7 -2.88658e-15
      vertex -58.727 7 -3.5
      vertex -63 7 -3.5
    endloop
  endfacet
  facet normal 0.194674 0.849457 0.490434
    outer loop
      vertex -37 4.04145 -8.21565e-15
      vertex -49.9096 7 -3.46134e-08
      vertex -37 2.02073 3.5
    endloop
  endfacet
  facet normal 0.194674 0.849457 0.490434
    outer loop
      vertex -58.727 7 3.5
      vertex -37 2.02073 3.5
      vertex -49.9096 7 -3.46134e-08
    endloop
  endfacet
  facet normal 0.194674 0.849457 0.490434
    outer loop
      vertex -49.9096 7 -3.46134e-08
      vertex -37 4.04145 -8.21565e-15
      vertex -37 4.04145 -5.00877e-08
    endloop
  endfacet
  facet normal -3.03319e-16 -0.866025 0.5
    outer loop
      vertex -37 -4.04145 5.00877e-08
      vertex -37 -4.04145 -8.21565e-15
      vertex 37 -4.04145 8.21565e-15
    endloop
  endfacet
  facet normal -3.03319e-16 -0.866025 0.5
    outer loop
      vertex 37 -3.03109 1.75
      vertex -37 -4.04145 5.00877e-08
      vertex 37 -4.04145 5.00877e-08
    endloop
  endfacet
  facet normal -3.03319e-16 -0.866025 0.5
    outer loop
      vertex 37 -4.04145 5.00877e-08
      vertex -37 -4.04145 5.00877e-08
      vertex 37 -4.04145 8.21565e-15
    endloop
  endfacet
  facet normal -3.03319e-16 -0.866025 0.5
    outer loop
      vertex 37 -2.02073 3.5
      vertex -37 -4.04145 5.00877e-08
      vertex 37 -3.03109 1.75
    endloop
  endfacet
  facet normal -3.03319e-16 -0.866025 0.5
    outer loop
      vertex -37 -3.03109 1.75
      vertex -37 -4.04145 5.00877e-08
      vertex 37 -2.02073 3.5
    endloop
  endfacet
  facet normal -3.03319e-16 -0.866025 0.5
    outer loop
      vertex -37 -2.02073 3.5
      vertex 37 -2.02073 3.5
      vertex 50 -2.02073 3.5
    endloop
  endfacet
  facet normal -3.03319e-16 -0.866025 0.5
    outer loop
      vertex -37 -2.02073 3.5
      vertex -37 -3.03109 1.75
      vertex 37 -2.02073 3.5
    endloop
  endfacet
  facet normal -8.1274e-17 -0.866025 -0.5
    outer loop
      vertex 37 -2.02073 -3.5
      vertex -37 -2.02073 -3.5
      vertex -50 -2.02073 -3.5
    endloop
  endfacet
  facet normal -8.1274e-17 -0.866025 -0.5
    outer loop
      vertex -37 -4.04145 -8.21565e-15
      vertex 37 -2.02073 -3.5
      vertex 37 -4.04145 8.21565e-15
    endloop
  endfacet
  facet normal -8.1274e-17 -0.866025 -0.5
    outer loop
      vertex -37 -4.04145 -8.21565e-15
      vertex -37 -2.02073 -3.5
      vertex 37 -2.02073 -3.5
    endloop
  endfacet
  facet normal -0.793353 -1.35172e-16 -0.608761
    outer loop
      vertex -64.3301 4.2 -2.5
      vertex -64.3301 7 -2.5
      vertex -63.5628 4.2 -3.5
    endloop
  endfacet
  facet normal -0.793353 -1.35172e-16 -0.608761
    outer loop
      vertex -63.5628 4.2 -3.5
      vertex -64.3301 7 -2.5
      vertex -63.5628 7 -3.5
    endloop
  endfacet
  facet normal -0.353553 -0.866025 -0.353553
    outer loop
      vertex -51.3561 2.1 -3.5
      vertex -52.8627 2.1 -1.99338
      vertex -56.5 4.2 -3.5
    endloop
  endfacet
  facet normal -0.707107 -3.6203e-08 -0.707107
    outer loop
      vertex -51.3561 -2.1 -3.5
      vertex -52.8627 -2.1 -1.99338
      vertex -51.3561 2.1 -3.5
    endloop
  endfacet
  facet normal -0.707107 -3.6203e-08 -0.707107
    outer loop
      vertex -51.3561 2.1 -3.5
      vertex -52.8627 -2.1 -1.99338
      vertex -52.8627 2.1 -1.99338
    endloop
  endfacet
  facet normal -0.353553 0.866025 -0.353553
    outer loop
      vertex -51.3561 -2.1 -3.5
      vertex -56.5 -4.2 -3.5
      vertex -52.8627 -2.1 -1.99338
    endloop
  endfacet
  facet normal 3.03319e-16 0.866025 -0.5
    outer loop
      vertex 37 4.04145 -5.00877e-08
      vertex -37 2.02073 -3.5
      vertex 37 4.04145 8.21565e-15
    endloop
  endfacet
  facet normal 3.03319e-16 0.866025 -0.5
    outer loop
      vertex 37 4.04145 8.21565e-15
      vertex -37 3.03109 -1.75
      vertex -37 4.04145 -5.00877e-08
    endloop
  endfacet
  facet normal 3.03319e-16 0.866025 -0.5
    outer loop
      vertex 37 4.04145 8.21565e-15
      vertex -37 4.04145 -5.00877e-08
      vertex -37 4.04145 -8.21565e-15
    endloop
  endfacet
  facet normal 3.03319e-16 0.866025 -0.5
    outer loop
      vertex -37 2.02073 -3.5
      vertex -37 3.03109 -1.75
      vertex 37 4.04145 8.21565e-15
    endloop
  endfacet
  facet normal 3.03319e-16 0.866025 -0.5
    outer loop
      vertex 37 2.02073 -3.5
      vertex -37 2.02073 -3.5
      vertex 37 3.03109 -1.75
    endloop
  endfacet
  facet normal 3.03319e-16 0.866025 -0.5
    outer loop
      vertex -37 2.02073 -3.5
      vertex 37 4.04145 -5.00877e-08
      vertex 37 3.03109 -1.75
    endloop
  endfacet
  facet normal 3.03319e-16 0.866025 -0.5
    outer loop
      vertex -50 2.02073 -3.5
      vertex -37 2.02073 -3.5
      vertex 37 2.02073 -3.5
    endloop
  endfacet
  facet normal 0.194674 0.849457 -0.490434
    outer loop
      vertex -53.2247 7 -1.31591
      vertex -49.9096 7 -3.46134e-08
      vertex -37 2.02073 -3.5
    endloop
  endfacet
  facet normal 0.194674 0.849457 -0.490434
    outer loop
      vertex -37 2.02073 -3.5
      vertex -49.9096 7 -3.46134e-08
      vertex -37 4.04145 -5.00877e-08
    endloop
  endfacet
  facet normal 0.194674 0.849457 -0.490434
    outer loop
      vertex -37 2.02073 -3.5
      vertex -37 4.04145 -5.00877e-08
      vertex -37 3.03109 -1.75
    endloop
  endfacet
  facet normal 0.194674 0.849457 -0.490434
    outer loop
      vertex -37 2.02073 -3.5
      vertex -58.727 7 -3.5
      vertex -53.2247 7 -1.31591
    endloop
  endfacet
  facet normal 0 1 -2.22045e-16
    outer loop
      vertex -65 7 -1.55431e-15
      vertex -63 7 -1.55431e-15
      vertex -64.8296 7 -1.2941
    endloop
  endfacet
  facet normal 0 1 -2.22045e-16
    outer loop
      vertex -64.8296 7 -1.2941
      vertex -63 7 -1.55431e-15
      vertex -63 7 -2.88658e-15
    endloop
  endfacet
  facet normal 0 1 -2.22045e-16
    outer loop
      vertex -64.8296 7 -1.2941
      vertex -63 7 -2.88658e-15
      vertex -63 7 -3.5
    endloop
  endfacet
  facet normal 0 1 -2.22045e-16
    outer loop
      vertex -64.8296 7 -1.2941
      vertex -63 7 -3.5
      vertex -63.5628 7 -3.5
    endloop
  endfacet
  facet normal 0 1 -2.22045e-16
    outer loop
      vertex -64.8296 7 -1.2941
      vertex -63.5628 7 -3.5
      vertex -64.3301 7 -2.5
    endloop
  endfacet
  facet normal 0 1 0
    outer loop
      vertex -56.5 -4.2 -3.5
      vertex -58.7706 -4.2 -1.22942
      vertex -58.4412 -4.2 -0.9
    endloop
  endfacet
  facet normal 0 1 0
    outer loop
      vertex -56.5 -4.2 3.5
      vertex -58.4412 -4.2 0.9
      vertex -58.7706 -4.2 1.22942
    endloop
  endfacet
  facet normal 0 1 0
    outer loop
      vertex -58.2 -4.2 9.32587e-16
      vertex -58.4412 -4.2 0.9
      vertex -56.5 -4.2 3.5
    endloop
  endfacet
  facet normal 0 1 0
    outer loop
      vertex -58.2 -4.2 9.32587e-16
      vertex -56.5 -4.2 3.5
      vertex -58.4412 -4.2 -0.9
    endloop
  endfacet
  facet normal 0 1 0
    outer loop
      vertex -56.5 -4.2 3.5
      vertex -56.5 -4.2 -3.5
      vertex -58.4412 -4.2 -0.9
    endloop
  endfacet
  facet normal -0.5 0.866025 0
    outer loop
      vertex -52.8627 -2.1 1.99338
      vertex -52.8627 -2.1 -1.99338
      vertex -56.5 -4.2 3.5
    endloop
  endfacet
  facet normal -0.5 0.866025 0
    outer loop
      vertex -56.5 -4.2 3.5
      vertex -52.8627 -2.1 -1.99338
      vertex -56.5 -4.2 -3.5
    endloop
  endfacet
  facet normal -1 -3.6203e-08 0
    outer loop
      vertex -52.8627 -2.1 1.99338
      vertex -52.8627 2.1 1.99338
      vertex -52.8627 -2.1 -1.99338
    endloop
  endfacet
  facet normal -1 -3.6203e-08 0
    outer loop
      vertex -52.8627 -2.1 -1.99338
      vertex -52.8627 2.1 1.99338
      vertex -52.8627 2.1 -1.99338
    endloop
  endfacet
  facet normal 0 -1 0
    outer loop
      vertex -56.5 4.2 -3.5
      vertex -58.2 4.2 -9.32587e-16
      vertex -58.4412 4.2 -0.9
    endloop
  endfacet
  facet normal 0 -1 0
    outer loop
      vertex -58.4412 4.2 0.9
      vertex -58.2 4.2 -9.32587e-16
      vertex -56.5 4.2 -3.5
    endloop
  endfacet
  facet normal 0 -1 0
    outer loop
      vertex -58.7706 4.2 -1.22942
      vertex -56.5 4.2 -3.5
      vertex -58.4412 4.2 -0.9
    endloop
  endfacet
  facet normal 0 -1 0
    outer loop
      vertex -56.5 4.2 -3.5
      vertex -56.5 4.2 3.5
      vertex -58.4412 4.2 0.9
    endloop
  endfacet
  facet normal 0 -1 0
    outer loop
      vertex -56.5 4.2 3.5
      vertex -58.7706 4.2 1.22942
      vertex -58.4412 4.2 0.9
    endloop
  endfacet
  facet normal -0.707107 -1.57009e-16 -0.707107
    outer loop
      vertex -58.4412 7 0.9
      vertex -58.4412 4.2 0.9
      vertex -59.1 7 1.55885
    endloop
  endfacet
  facet normal -0.707107 -1.57009e-16 -0.707107
    outer loop
      vertex -59.1 7 1.55885
      vertex -58.4412 4.2 0.9
      vertex -58.7706 4.2 1.22942
    endloop
  endfacet
  facet normal -0.707107 -1.57009e-16 -0.707107
    outer loop
      vertex -59.1 7 1.55885
      vertex -58.7706 4.2 1.22942
      vertex -59.1 4.2 1.55885
    endloop
  endfacet
  facet normal -0.991445 -2.89827e-17 -0.130526
    outer loop
      vertex -65 4.2 -9.32587e-16
      vertex -65 7 -1.55431e-15
      vertex -64.8296 4.2 -1.2941
    endloop
  endfacet
  facet normal -0.991445 -2.89827e-17 -0.130526
    outer loop
      vertex -64.8296 4.2 -1.2941
      vertex -65 7 -1.55431e-15
      vertex -64.8296 7 -1.2941
    endloop
  endfacet
  facet normal -0.92388 -8.49728e-17 -0.382683
    outer loop
      vertex -64.8296 4.2 -1.2941
      vertex -64.8296 7 -1.2941
      vertex -64.3301 4.2 -2.5
    endloop
  endfacet
  facet normal -0.92388 -8.49728e-17 -0.382683
    outer loop
      vertex -64.3301 4.2 -2.5
      vertex -64.8296 7 -1.2941
      vertex -64.3301 7 -2.5
    endloop
  endfacet
  facet normal -0.991445 2.89827e-17 0.130526
    outer loop
      vertex -65 4.2 -9.32587e-16
      vertex -64.8296 4.2 1.29409
      vertex -65 7 -1.55431e-15
    endloop
  endfacet
  facet normal -0.991445 2.89827e-17 0.130526
    outer loop
      vertex -65 7 -1.55431e-15
      vertex -64.8296 4.2 1.29409
      vertex -64.8296 7 1.29409
    endloop
  endfacet
  facet normal -0.92388 8.49728e-17 0.382683
    outer loop
      vertex -64.8296 4.2 1.29409
      vertex -64.3301 4.2 2.5
      vertex -64.8296 7 1.29409
    endloop
  endfacet
  facet normal -0.92388 8.49728e-17 0.382683
    outer loop
      vertex -64.8296 7 1.29409
      vertex -64.3301 4.2 2.5
      vertex -64.3301 7 2.5
    endloop
  endfacet
  facet normal -0.258819 -2.14479e-16 -0.965926
    outer loop
      vertex -59.1 7 1.55885
      vertex -59.1 4.2 1.55885
      vertex -60 7 1.8
    endloop
  endfacet
  facet normal -0.258819 -2.14479e-16 -0.965926
    outer loop
      vertex -60 7 1.8
      vertex -59.1 4.2 1.55885
      vertex -60 4.2 1.8
    endloop
  endfacet
  facet normal 0.258819 -2.14479e-16 -0.965926
    outer loop
      vertex -60 7 1.8
      vertex -60 4.2 1.8
      vertex -60.9 7 1.55885
    endloop
  endfacet
  facet normal 0.258819 -2.14479e-16 -0.965926
    outer loop
      vertex -60.9 7 1.55885
      vertex -60 4.2 1.8
      vertex -60.9 4.2 1.55885
    endloop
  endfacet
  facet normal 0.707107 -1.57009e-16 -0.707107
    outer loop
      vertex -61.5588 7 0.9
      vertex -60.9 7 1.55885
      vertex -60.9 4.2 1.55885
    endloop
  endfacet
  facet normal 0.707107 -1.57009e-16 -0.707107
    outer loop
      vertex -61.5588 4.2 0.9
      vertex -61.5588 7 0.9
      vertex -60.9 4.2 1.55885
    endloop
  endfacet
  facet normal 0.965926 -5.74693e-17 -0.258819
    outer loop
      vertex -61.8 7 -1.55431e-15
      vertex -61.5588 7 0.9
      vertex -61.5588 4.2 0.9
    endloop
  endfacet
  facet normal 0.965926 -5.74693e-17 -0.258819
    outer loop
      vertex -61.8 4.2 -9.32587e-16
      vertex -61.8 7 -1.55431e-15
      vertex -61.5588 4.2 0.9
    endloop
  endfacet
  facet normal 0.965926 5.74693e-17 0.258819
    outer loop
      vertex -61.5588 4.2 -0.9
      vertex -61.5588 7 -0.9
      vertex -61.8 7 -1.55431e-15
    endloop
  endfacet
  facet normal 0.965926 5.74693e-17 0.258819
    outer loop
      vertex -61.8 4.2 -9.32587e-16
      vertex -61.5588 4.2 -0.9
      vertex -61.8 7 -1.55431e-15
    endloop
  endfacet
  facet normal 0.707107 1.57009e-16 0.707107
    outer loop
      vertex -60.9 4.2 -1.55885
      vertex -60.9 7 -1.55885
      vertex -61.5588 7 -0.9
    endloop
  endfacet
  facet normal 0.707107 1.57009e-16 0.707107
    outer loop
      vertex -61.5588 4.2 -0.9
      vertex -60.9 4.2 -1.55885
      vertex -61.5588 7 -0.9
    endloop
  endfacet
  facet normal 0.258819 2.14479e-16 0.965926
    outer loop
      vertex -60 4.2 -1.8
      vertex -60 7 -1.8
      vertex -60.9 7 -1.55885
    endloop
  endfacet
  facet normal 0.258819 2.14479e-16 0.965926
    outer loop
      vertex -60.9 4.2 -1.55885
      vertex -60 4.2 -1.8
      vertex -60.9 7 -1.55885
    endloop
  endfacet
  facet normal -0.258819 2.14479e-16 0.965926
    outer loop
      vertex -59.1 4.2 -1.55885
      vertex -59.1 7 -1.55885
      vertex -60 7 -1.8
    endloop
  endfacet
  facet normal -0.258819 2.14479e-16 0.965926
    outer loop
      vertex -60 4.2 -1.8
      vertex -59.1 4.2 -1.55885
      vertex -60 7 -1.8
    endloop
  endfacet
  facet normal -0.707107 1.57009e-16 0.707107
    outer loop
      vertex -58.7706 4.2 -1.22942
      vertex -58.4412 4.2 -0.9
      vertex -58.4412 7 -0.9
    endloop
  endfacet
  facet normal -0.707107 1.57009e-16 0.707107
    outer loop
      vertex -58.4412 7 -0.9
      vertex -59.1 7 -1.55885
      vertex -58.7706 4.2 -1.22942
    endloop
  endfacet
  facet normal -0.707107 1.57009e-16 0.707107
    outer loop
      vertex -59.1 7 -1.55885
      vertex -59.1 4.2 -1.55885
      vertex -58.7706 4.2 -1.22942
    endloop
  endfacet
  facet normal -0.965926 -5.74693e-17 -0.258819
    outer loop
      vertex -58.2 7 -1.55431e-15
      vertex -58.2 4.2 -9.32587e-16
      vertex -58.4412 7 0.9
    endloop
  endfacet
  facet normal -0.965926 -5.74693e-17 -0.258819
    outer loop
      vertex -58.4412 7 0.9
      vertex -58.2 4.2 -9.32587e-16
      vertex -58.4412 4.2 0.9
    endloop
  endfacet
  facet normal -0.965926 5.74693e-17 0.258819
    outer loop
      vertex -58.2 7 -1.55431e-15
      vertex -58.4412 7 -0.9
      vertex -58.2 4.2 -9.32587e-16
    endloop
  endfacet
  facet normal -0.965926 5.74693e-17 0.258819
    outer loop
      vertex -58.2 4.2 -9.32587e-16
      vertex -58.4412 7 -0.9
      vertex -58.4412 4.2 -0.9
    endloop
  endfacet
  facet normal 8.1274e-17 0.866025 0.5
    outer loop
      vertex -37 4.04145 -8.21565e-15
      vertex -37 2.02073 3.5
      vertex 37 4.04145 8.21565e-15
    endloop
  endfacet
  facet normal 8.1274e-17 0.866025 0.5
    outer loop
      vertex 37 2.02073 3.5
      vertex -37 2.02073 3.5
      vertex 50 2.02073 3.5
    endloop
  endfacet
  facet normal 8.1274e-17 0.866025 0.5
    outer loop
      vertex 37 4.04145 8.21565e-15
      vertex -37 2.02073 3.5
      vertex 37 2.02073 3.5
    endloop
  endfacet
  facet normal -2.22045e-16 4.93038e-32 1
    outer loop
      vertex -37 -2.02073 3.5
      vertex 50 2.02073 3.5
      vertex -37 2.02073 3.5
    endloop
  endfacet
  facet normal -2.22045e-16 4.93038e-32 1
    outer loop
      vertex -37 -2.02073 3.5
      vertex 50 -2.02073 3.5
      vertex 50 2.02073 3.5
    endloop
  endfacet
  facet normal 0 0 1
    outer loop
      vertex 37 -2.02073 3.5
      vertex 58.727 -7 3.5
      vertex 63 -7 3.5
    endloop
  endfacet
  facet normal 0 0 1
    outer loop
      vertex 63.5628 -7 3.5
      vertex 37 -2.02073 3.5
      vertex 63 -7 3.5
    endloop
  endfacet
  facet normal 0 0 1
    outer loop
      vertex 56.5 -4.2 3.5
      vertex 37 -2.02073 3.5
      vertex 63.5628 -7 3.5
    endloop
  endfacet
  facet normal 0 0 1
    outer loop
      vertex 63.5628 -4.2 3.5
      vertex 56.5 -4.2 3.5
      vertex 63.5628 -7 3.5
    endloop
  endfacet
  facet normal 0 0 1
    outer loop
      vertex 37 2.02073 3.5
      vertex 63.5628 7 3.5
      vertex 58.727 7 3.5
    endloop
  endfacet
  facet normal 0 0 1
    outer loop
      vertex 37 2.02073 3.5
      vertex 56.5 4.2 3.5
      vertex 63.5628 7 3.5
    endloop
  endfacet
  facet normal 0 0 1
    outer loop
      vertex 50 -2.02073 3.5
      vertex 37 -2.02073 3.5
      vertex 51.3561 -2.1 3.5
    endloop
  endfacet
  facet normal 0 0 1
    outer loop
      vertex 50 2.02073 3.5
      vertex 50 -2.02073 3.5
      vertex 51.3561 2.1 3.5
    endloop
  endfacet
  facet normal 0 0 1
    outer loop
      vertex 63.5628 7 3.5
      vertex 56.5 4.2 3.5
      vertex 63.5628 4.2 3.5
    endloop
  endfacet
  facet normal 0 0 1
    outer loop
      vertex 56.5 4.2 3.5
      vertex 50 2.02073 3.5
      vertex 51.3561 2.1 3.5
    endloop
  endfacet
  facet normal 0 0 1
    outer loop
      vertex 51.3561 2.1 3.5
      vertex 50 -2.02073 3.5
      vertex 51.3561 -2.1 3.5
    endloop
  endfacet
  facet normal 0 0 1
    outer loop
      vertex 37 2.02073 3.5
      vertex 50 2.02073 3.5
      vertex 56.5 4.2 3.5
    endloop
  endfacet
  facet normal 0 0 1
    outer loop
      vertex 56.5 -4.2 3.5
      vertex 51.3561 -2.1 3.5
      vertex 37 -2.02073 3.5
    endloop
  endfacet
  facet normal -0.194674 -0.849457 0.490434
    outer loop
      vertex 37 -4.04145 5.00877e-08
      vertex 49.9096 -7 3.46134e-08
      vertex 53.2247 -7 1.31591
    endloop
  endfacet
  facet normal -0.194674 -0.849457 0.490434
    outer loop
      vertex 37 -2.02073 3.5
      vertex 37 -4.04145 5.00877e-08
      vertex 53.2247 -7 1.31591
    endloop
  endfacet
  facet normal -0.194674 -0.849457 0.490434
    outer loop
      vertex 37 -3.03109 1.75
      vertex 37 -4.04145 5.00877e-08
      vertex 37 -2.02073 3.5
    endloop
  endfacet
  facet normal -0.194674 -0.849457 -0.490434
    outer loop
      vertex 37 -2.02073 -3.5
      vertex 58.727 -7 -3.5
      vertex 49.9096 -7 3.46134e-08
    endloop
  endfacet
  facet normal -0.194674 -0.849457 -0.490434
    outer loop
      vertex 37 -4.04145 5.00877e-08
      vertex 37 -4.04145 8.21565e-15
      vertex 49.9096 -7 3.46134e-08
    endloop
  endfacet
  facet normal -0.194674 -0.849457 -0.490434
    outer loop
      vertex 37 -4.04145 8.21565e-15
      vertex 37 -2.02073 -3.5
      vertex 49.9096 -7 3.46134e-08
    endloop
  endfacet
  facet normal 2.22045e-16 -4.93038e-32 -1
    outer loop
      vertex -50 -2.02073 -3.5
      vertex -50 2.02073 -3.5
      vertex 37 -2.02073 -3.5
    endloop
  endfacet
  facet normal 2.22045e-16 -4.93038e-32 -1
    outer loop
      vertex 37 -2.02073 -3.5
      vertex -50 2.02073 -3.5
      vertex 37 2.02073 -3.5
    endloop
  endfacet
  facet normal -0.194674 0.849457 -0.490434
    outer loop
      vertex 37 4.04145 -5.00877e-08
      vertex 49.9096 7 -3.46134e-08
      vertex 37 3.03109 -1.75
    endloop
  endfacet
  facet normal -0.194674 0.849457 -0.490434
    outer loop
      vertex 37 3.03109 -1.75
      vertex 49.9096 7 -3.46134e-08
      vertex 53.2247 7 -1.31591
    endloop
  endfacet
  facet normal -0.194674 0.849457 -0.490434
    outer loop
      vertex 37 3.03109 -1.75
      vertex 53.2247 7 -1.31591
      vertex 37 2.02073 -3.5
    endloop
  endfacet
  facet normal -0.194674 0.849457 0.490434
    outer loop
      vertex 37 2.02073 3.5
      vertex 58.727 7 3.5
      vertex 37 4.04145 8.21565e-15
    endloop
  endfacet
  facet normal -0.194674 0.849457 0.490434
    outer loop
      vertex 37 4.04145 8.21565e-15
      vertex 58.727 7 3.5
      vertex 49.9096 7 -3.46134e-08
    endloop
  endfacet
  facet normal -0.194674 0.849457 0.490434
    outer loop
      vertex 37 4.04145 8.21565e-15
      vertex 49.9096 7 -3.46134e-08
      vertex 37 4.04145 -5.00877e-08
    endloop
  endfacet
  facet normal -0.194674 -0.849457 0.490434
    outer loop
      vertex 53.2247 -7 1.31591
      vertex 58.727 -7 3.5
      vertex 37 -2.02073 3.5
    endloop
  endfacet
  facet normal 0 1 0
    outer loop
      vertex 63.5628 7 3.5
      vertex 64.3301 7 2.5
      vertex 58.727 7 3.5
    endloop
  endfacet
  facet normal 0 1 0
    outer loop
      vertex 58.727 7 3.5
      vertex 64.3301 7 2.5
      vertex 64.8296 7 1.29409
    endloop
  endfacet
  facet normal 0 1 0
    outer loop
      vertex 58.727 7 3.5
      vertex 64.8296 7 1.29409
      vertex 65 7 -1.55431e-15
    endloop
  endfacet
  facet normal 0 1 0
    outer loop
      vertex 58.727 7 3.5
      vertex 65 7 -1.55431e-15
      vertex 63 7 -1.55431e-15
    endloop
  endfacet
  facet normal 0 1 0
    outer loop
      vertex 58.727 7 3.5
      vertex 63 7 -1.55431e-15
      vertex 63 7 -2.88658e-15
    endloop
  endfacet
  facet normal 0 1 0
    outer loop
      vertex 61.5588 7 -0.9
      vertex 63 7 -2.88658e-15
      vertex 63 7 -3.5
    endloop
  endfacet
  facet normal 0 1 0
    outer loop
      vertex 59.1 7 -1.55885
      vertex 63 7 -3.5
      vertex 58.727 7 -3.5
    endloop
  endfacet
  facet normal 0 1 0
    outer loop
      vertex 58.4412 7 -0.9
      vertex 58.727 7 -3.5
      vertex 53.2247 7 -1.31591
    endloop
  endfacet
  facet normal 0 1 0
    outer loop
      vertex 58.727 7 3.5
      vertex 53.2247 7 -1.31591
      vertex 49.9096 7 -3.46134e-08
    endloop
  endfacet
  facet normal 0 1 0
    outer loop
      vertex 58.2 7 -1.55431e-15
      vertex 58.4412 7 -0.9
      vertex 53.2247 7 -1.31591
    endloop
  endfacet
  facet normal 0 1 0
    outer loop
      vertex 60 7 -1.8
      vertex 63 7 -3.5
      vertex 59.1 7 -1.55885
    endloop
  endfacet
  facet normal 0 1 0
    outer loop
      vertex 61.5588 7 -0.9
      vertex 63 7 -3.5
      vertex 60.9 7 -1.55885
    endloop
  endfacet
  facet normal 0 1 0
    outer loop
      vertex 60.9 7 -1.55885
      vertex 63 7 -3.5
      vertex 60 7 -1.8
    endloop
  endfacet
  facet normal 0 1 0
    outer loop
      vertex 61.8 7 -1.55431e-15
      vertex 63 7 -2.88658e-15
      vertex 61.5588 7 -0.9
    endloop
  endfacet
  facet normal 0 1 0
    outer loop
      vertex 60 7 1.8
      vertex 58.727 7 3.5
      vertex 60.9 7 1.55885
    endloop
  endfacet
  facet normal 0 1 0
    outer loop
      vertex 61.5588 7 0.9
      vertex 63 7 -2.88658e-15
      vertex 61.8 7 -1.55431e-15
    endloop
  endfacet
  facet normal 0 1 0
    outer loop
      vertex 60.9 7 1.55885
      vertex 63 7 -2.88658e-15
      vertex 61.5588 7 0.9
    endloop
  endfacet
  facet normal 0 1 0
    outer loop
      vertex 58.727 7 3.5
      vertex 63 7 -2.88658e-15
      vertex 60.9 7 1.55885
    endloop
  endfacet
  facet normal 0 1 0
    outer loop
      vertex 59.1 7 1.55885
      vertex 58.727 7 3.5
      vertex 60 7 1.8
    endloop
  endfacet
  facet normal 0 1 0
    outer loop
      vertex 58.4412 7 0.9
      vertex 58.727 7 3.5
      vertex 59.1 7 1.55885
    endloop
  endfacet
  facet normal 0 1 0
    outer loop
      vertex 58.727 7 3.5
      vertex 58.4412 7 0.9
      vertex 53.2247 7 -1.31591
    endloop
  endfacet
  facet normal 0 1 0
    outer loop
      vertex 58.4412 7 0.9
      vertex 58.2 7 -1.55431e-15
      vertex 53.2247 7 -1.31591
    endloop
  endfacet
  facet normal 0 1 0
    outer loop
      vertex 59.1 7 -1.55885
      vertex 58.727 7 -3.5
      vertex 58.4412 7 -0.9
    endloop
  endfacet
  facet normal 0.793353 1.35172e-16 0.608761
    outer loop
      vertex 63.5628 4.2 3.5
      vertex 64.3301 4.2 2.5
      vertex 64.3301 7 2.5
    endloop
  endfacet
  facet normal 0.793353 1.35172e-16 0.608761
    outer loop
      vertex 63.5628 7 3.5
      vertex 63.5628 4.2 3.5
      vertex 64.3301 7 2.5
    endloop
  endfacet
  facet normal 0 -1 0
    outer loop
      vertex 59.1 4.2 -1.55885
      vertex 56.5 4.2 -3.5
      vertex 63.5628 4.2 -3.5
    endloop
  endfacet
  facet normal 0 -1 0
    outer loop
      vertex 60 4.2 -1.8
      vertex 59.1 4.2 -1.55885
      vertex 63.5628 4.2 -3.5
    endloop
  endfacet
  facet normal 0 -1 0
    outer loop
      vertex 60.9 4.2 -1.55885
      vertex 60 4.2 -1.8
      vertex 64.3301 4.2 -2.5
    endloop
  endfacet
  facet normal 0 -1 0
    outer loop
      vertex 61.5588 4.2 -0.9
      vertex 60.9 4.2 -1.55885
      vertex 64.8296 4.2 -1.2941
    endloop
  endfacet
  facet normal 0 -1 0
    outer loop
      vertex 61.8 4.2 -9.32587e-16
      vertex 61.5588 4.2 -0.9
      vertex 65 4.2 -9.32587e-16
    endloop
  endfacet
  facet normal 0 -1 0
    outer loop
      vertex 61.5588 4.2 0.9
      vertex 64.8296 4.2 1.29409
      vertex 64.3301 4.2 2.5
    endloop
  endfacet
  facet normal 0 -1 0
    outer loop
      vertex 60.9 4.2 1.55885
      vertex 61.5588 4.2 0.9
      vertex 63.5628 4.2 3.5
    endloop
  endfacet
  facet normal 0 -1 0
    outer loop
      vertex 56.5 4.2 3.5
      vertex 59.1 4.2 1.55885
      vertex 63.5628 4.2 3.5
    endloop
  endfacet
  facet normal 0 -1 0
    outer loop
      vertex 56.5 4.2 3.5
      vertex 58.7706 4.2 1.22942
      vertex 59.1 4.2 1.55885
    endloop
  endfacet
  facet normal 0 -1 0
    outer loop
      vertex 60 4.2 1.8
      vertex 60.9 4.2 1.55885
      vertex 63.5628 4.2 3.5
    endloop
  endfacet
  facet normal 0 -1 0
    outer loop
      vertex 63.5628 4.2 3.5
      vertex 61.5588 4.2 0.9
      vertex 64.3301 4.2 2.5
    endloop
  endfacet
  facet normal 0 -1 0
    outer loop
      vertex 64.8296 4.2 1.29409
      vertex 61.8 4.2 -9.32587e-16
      vertex 65 4.2 -9.32587e-16
    endloop
  endfacet
  facet normal 0 -1 0
    outer loop
      vertex 65 4.2 -9.32587e-16
      vertex 61.5588 4.2 -0.9
      vertex 64.8296 4.2 -1.2941
    endloop
  endfacet
  facet normal 0 -1 0
    outer loop
      vertex 64.8296 4.2 -1.2941
      vertex 60.9 4.2 -1.55885
      vertex 64.3301 4.2 -2.5
    endloop
  endfacet
  facet normal 0 -1 0
    outer loop
      vertex 64.3301 4.2 -2.5
      vertex 60 4.2 -1.8
      vertex 63.5628 4.2 -3.5
    endloop
  endfacet
  facet normal 0 -1 0
    outer loop
      vertex 58.7706 4.2 -1.22942
      vertex 56.5 4.2 -3.5
      vertex 59.1 4.2 -1.55885
    endloop
  endfacet
  facet normal 0 -1 0
    outer loop
      vertex 59.1 4.2 1.55885
      vertex 60 4.2 1.8
      vertex 63.5628 4.2 3.5
    endloop
  endfacet
  facet normal 0 -1 0
    outer loop
      vertex 61.5588 4.2 0.9
      vertex 61.8 4.2 -9.32587e-16
      vertex 64.8296 4.2 1.29409
    endloop
  endfacet
  facet normal 0.5 -0.866025 0
    outer loop
      vertex 52.8627 2.1 1.99338
      vertex 52.8627 2.1 -1.99338
      vertex 56.5 4.2 -3.5
    endloop
  endfacet
  facet normal 0.5 -0.866025 0
    outer loop
      vertex 56.5 4.2 3.5
      vertex 52.8627 2.1 1.99338
      vertex 56.5 4.2 -3.5
    endloop
  endfacet
  facet normal 0.353553 -0.866025 0.353553
    outer loop
      vertex 56.5 4.2 3.5
      vertex 51.3561 2.1 3.5
      vertex 52.8627 2.1 1.99338
    endloop
  endfacet
  facet normal 0.707107 -3.6203e-08 0.707107
    outer loop
      vertex 51.3561 2.1 3.5
      vertex 51.3561 -2.1 3.5
      vertex 52.8627 -2.1 1.99338
    endloop
  endfacet
  facet normal 0.707107 -3.6203e-08 0.707107
    outer loop
      vertex 52.8627 2.1 1.99338
      vertex 51.3561 2.1 3.5
      vertex 52.8627 -2.1 1.99338
    endloop
  endfacet
  facet normal 0.353553 0.866025 0.353553
    outer loop
      vertex 51.3561 -2.1 3.5
      vertex 56.5 -4.2 3.5
      vertex 52.8627 -2.1 1.99338
    endloop
  endfacet
  facet normal 0 1 0
    outer loop
      vertex 56.5 -4.2 -3.5
      vertex 59.1 -4.2 -1.55885
      vertex 63.5628 -4.2 -3.5
    endloop
  endfacet
  facet normal 0 1 0
    outer loop
      vertex 56.5 -4.2 -3.5
      vertex 58.7706 -4.2 -1.22942
      vertex 59.1 -4.2 -1.55885
    endloop
  endfacet
  facet normal 0 1 0
    outer loop
      vertex 63.5628 -4.2 -3.5
      vertex 60 -4.2 -1.8
      vertex 60.9 -4.2 -1.55885
    endloop
  endfacet
  facet normal 0 1 0
    outer loop
      vertex 60.9 -4.2 -1.55885
      vertex 61.5588 -4.2 -0.9
      vertex 63.5628 -4.2 -3.5
    endloop
  endfacet
  facet normal 0 1 0
    outer loop
      vertex 61.5588 -4.2 -0.9
      vertex 61.8 -4.2 9.32587e-16
      vertex 63.5628 -4.2 -3.5
    endloop
  endfacet
  facet normal 0 1 0
    outer loop
      vertex 61.8 -4.2 9.32587e-16
      vertex 61.5588 -4.2 0.9
      vertex 63.5628 -4.2 -3.5
    endloop
  endfacet
  facet normal 0 1 0
    outer loop
      vertex 61.5588 -4.2 0.9
      vertex 63.5628 -4.2 3.5
      vertex 63.5628 -4.2 -3.5
    endloop
  endfacet
  facet normal 0 1 0
    outer loop
      vertex 60 -4.2 1.8
      vertex 56.5 -4.2 3.5
      vertex 60.9 -4.2 1.55885
    endloop
  endfacet
  facet normal 0 1 0
    outer loop
      vertex 59.1 -4.2 1.55885
      vertex 58.7706 -4.2 1.22942
      vertex 56.5 -4.2 3.5
    endloop
  endfacet
  facet normal 0 1 0
    outer loop
      vertex 59.1 -4.2 1.55885
      vertex 56.5 -4.2 3.5
      vertex 60 -4.2 1.8
    endloop
  endfacet
  facet normal 0 1 0
    outer loop
      vertex 60.9 -4.2 1.55885
      vertex 56.5 -4.2 3.5
      vertex 63.5628 -4.2 3.5
    endloop
  endfacet
  facet normal 0 1 0
    outer loop
      vertex 60.9 -4.2 1.55885
      vertex 63.5628 -4.2 3.5
      vertex 61.5588 -4.2 0.9
    endloop
  endfacet
  facet normal 0 1 0
    outer loop
      vertex 63.5628 -4.2 -3.5
      vertex 63.5628 -4.2 3.5
      vertex 64.3301 -4.2 2.5
    endloop
  endfacet
  facet normal 0 1 0
    outer loop
      vertex 63.5628 -4.2 -3.5
      vertex 64.3301 -4.2 2.5
      vertex 64.8296 -4.2 1.2941
    endloop
  endfacet
  facet normal 0 1 0
    outer loop
      vertex 63.5628 -4.2 -3.5
      vertex 64.8296 -4.2 1.2941
      vertex 65 -4.2 9.32587e-16
    endloop
  endfacet
  facet normal 0 1 0
    outer loop
      vertex 63.5628 -4.2 -3.5
      vertex 65 -4.2 9.32587e-16
      vertex 64.8296 -4.2 -1.29409
    endloop
  endfacet
  facet normal 0 1 0
    outer loop
      vertex 63.5628 -4.2 -3.5
      vertex 64.8296 -4.2 -1.29409
      vertex 64.3301 -4.2 -2.5
    endloop
  endfacet
  facet normal 0 1 0
    outer loop
      vertex 60 -4.2 -1.8
      vertex 63.5628 -4.2 -3.5
      vertex 59.1 -4.2 -1.55885
    endloop
  endfacet
  facet normal 0.793353 1.35172e-16 0.608761
    outer loop
      vertex 63.5628 -7 3.5
      vertex 64.3301 -7 2.5
      vertex 64.3301 -4.2 2.5
    endloop
  endfacet
  facet normal 0.793353 1.35172e-16 0.608761
    outer loop
      vertex 63.5628 -4.2 3.5
      vertex 63.5628 -7 3.5
      vertex 64.3301 -4.2 2.5
    endloop
  endfacet
  facet normal 0 -1 2.22045e-16
    outer loop
      vertex 65 -7 1.55431e-15
      vertex 64.8296 -7 1.2941
      vertex 64.3301 -7 2.5
    endloop
  endfacet
  facet normal 0 -1 2.22045e-16
    outer loop
      vertex 63 -7 3.5
      vertex 65 -7 1.55431e-15
      vertex 63.5628 -7 3.5
    endloop
  endfacet
  facet normal 0 -1 2.22045e-16
    outer loop
      vertex 63.5628 -7 3.5
      vertex 65 -7 1.55431e-15
      vertex 64.3301 -7 2.5
    endloop
  endfacet
  facet normal 0 -1 2.22045e-16
    outer loop
      vertex 63 -7 1.55431e-15
      vertex 65 -7 1.55431e-15
      vertex 63 -7 3.5
    endloop
  endfacet
  facet normal 0 -1 0
    outer loop
      vertex 58.727 -7 -3.5
      vertex 63.5628 -7 -3.5
      vertex 64.3301 -7 -2.5
    endloop
  endfacet
  facet normal 0 -1 0
    outer loop
      vertex 65 -7 1.55431e-15
      vertex 58.727 -7 -3.5
      vertex 64.8296 -7 -1.29409
    endloop
  endfacet
  facet normal 0 -1 0
    outer loop
      vertex 64.8296 -7 -1.29409
      vertex 58.727 -7 -3.5
      vertex 64.3301 -7 -2.5
    endloop
  endfacet
  facet normal 0 -1 0
    outer loop
      vertex 63 -7 1.55431e-15
      vertex 58.727 -7 -3.5
      vertex 65 -7 1.55431e-15
    endloop
  endfacet
  facet normal 0 -1 0
    outer loop
      vertex 60.9 -7 -1.55885
      vertex 58.727 -7 -3.5
      vertex 63 -7 1.55431e-15
    endloop
  endfacet
  facet normal 0 -1 0
    outer loop
      vertex 60.9 -7 1.55885
      vertex 61.5588 -7 0.9
      vertex 63 -7 3.5
    endloop
  endfacet
  facet normal 0 -1 0
    outer loop
      vertex 49.9096 -7 3.46134e-08
      vertex 58.727 -7 -3.5
      vertex 53.2247 -7 1.31591
    endloop
  endfacet
  facet normal 0 -1 0
    outer loop
      vertex 53.2247 -7 1.31591
      vertex 58.2 -7 1.55431e-15
      vertex 58.727 -7 3.5
    endloop
  endfacet
  facet normal 0 -1 0
    outer loop
      vertex 53.2247 -7 1.31591
      vertex 58.727 -7 -3.5
      vertex 58.2 -7 1.55431e-15
    endloop
  endfacet
  facet normal 0 -1 0
    outer loop
      vertex 58.2 -7 1.55431e-15
      vertex 58.4412 -7 0.9
      vertex 58.727 -7 3.5
    endloop
  endfacet
  facet normal 0 -1 0
    outer loop
      vertex 58.727 -7 3.5
      vertex 59.1 -7 1.55885
      vertex 63 -7 3.5
    endloop
  endfacet
  facet normal 0 -1 0
    outer loop
      vertex 59.1 -7 -1.55885
      vertex 58.4412 -7 -0.9
      vertex 58.727 -7 -3.5
    endloop
  endfacet
  facet normal 0 -1 0
    outer loop
      vertex 59.1 -7 1.55885
      vertex 60 -7 1.8
      vertex 63 -7 3.5
    endloop
  endfacet
  facet normal 0 -1 0
    outer loop
      vertex 60 -7 1.8
      vertex 60.9 -7 1.55885
      vertex 63 -7 3.5
    endloop
  endfacet
  facet normal 0 -1 0
    outer loop
      vertex 63 -7 3.5
      vertex 61.5588 -7 0.9
      vertex 63 -7 1.55431e-15
    endloop
  endfacet
  facet normal 0 -1 0
    outer loop
      vertex 61.5588 -7 0.9
      vertex 61.8 -7 1.55431e-15
      vertex 63 -7 1.55431e-15
    endloop
  endfacet
  facet normal 0 -1 0
    outer loop
      vertex 61.8 -7 1.55431e-15
      vertex 61.5588 -7 -0.9
      vertex 63 -7 1.55431e-15
    endloop
  endfacet
  facet normal 0 -1 0
    outer loop
      vertex 61.5588 -7 -0.9
      vertex 60.9 -7 -1.55885
      vertex 63 -7 1.55431e-15
    endloop
  endfacet
  facet normal 0 -1 0
    outer loop
      vertex 58.2 -7 1.55431e-15
      vertex 58.727 -7 -3.5
      vertex 58.4412 -7 -0.9
    endloop
  endfacet
  facet normal 0 -1 0
    outer loop
      vertex 58.4412 -7 0.9
      vertex 59.1 -7 1.55885
      vertex 58.727 -7 3.5
    endloop
  endfacet
  facet normal 0 -1 0
    outer loop
      vertex 60.9 -7 -1.55885
      vertex 60 -7 -1.8
      vertex 58.727 -7 -3.5
    endloop
  endfacet
  facet normal 0 -1 0
    outer loop
      vertex 60 -7 -1.8
      vertex 59.1 -7 -1.55885
      vertex 58.727 -7 -3.5
    endloop
  endfacet
  facet normal 0 0 -1
    outer loop
      vertex 37 2.02073 -3.5
      vertex 58.727 7 -3.5
      vertex 63 7 -3.5
    endloop
  endfacet
  facet normal 0 0 -1
    outer loop
      vertex 37 2.02073 -3.5
      vertex 63 7 -3.5
      vertex 63.5628 7 -3.5
    endloop
  endfacet
  facet normal 0 0 -1
    outer loop
      vertex 56.5 4.2 -3.5
      vertex 63.5628 7 -3.5
      vertex 63.5628 4.2 -3.5
    endloop
  endfacet
  facet normal 0 0 -1
    outer loop
      vertex 37 2.02073 -3.5
      vertex 63.5628 7 -3.5
      vertex 56.5 4.2 -3.5
    endloop
  endfacet
  facet normal 0 0 -1
    outer loop
      vertex 51.3561 2.1 -3.5
      vertex 37 2.02073 -3.5
      vertex 56.5 4.2 -3.5
    endloop
  endfacet
  facet normal 0 0 -1
    outer loop
      vertex 37 2.02073 -3.5
      vertex 51.3561 2.1 -3.5
      vertex 51.3561 -2.1 -3.5
    endloop
  endfacet
  facet normal 0 0 -1
    outer loop
      vertex 51.3561 -2.1 -3.5
      vertex 56.5 -4.2 -3.5
      vertex 37 2.02073 -3.5
    endloop
  endfacet
  facet normal 0 0 -1
    outer loop
      vertex 56.5 -4.2 -3.5
      vertex 63.5628 -7 -3.5
      vertex 37 2.02073 -3.5
    endloop
  endfacet
  facet normal 0 0 -1
    outer loop
      vertex 56.5 -4.2 -3.5
      vertex 63.5628 -4.2 -3.5
      vertex 63.5628 -7 -3.5
    endloop
  endfacet
  facet normal 0 0 -1
    outer loop
      vertex 37 2.02073 -3.5
      vertex 63.5628 -7 -3.5
      vertex 58.727 -7 -3.5
    endloop
  endfacet
  facet normal 0 0 -1
    outer loop
      vertex 37 2.02073 -3.5
      vertex 58.727 -7 -3.5
      vertex 37 -2.02073 -3.5
    endloop
  endfacet
  facet normal -0.194674 0.849457 -0.490434
    outer loop
      vertex 53.2247 7 -1.31591
      vertex 58.727 7 -3.5
      vertex 37 2.02073 -3.5
    endloop
  endfacet
  facet normal 0 1 -2.22045e-16
    outer loop
      vertex 63 7 -1.55431e-15
      vertex 65 7 -1.55431e-15
      vertex 63 7 -2.88658e-15
    endloop
  endfacet
  facet normal 0 1 -2.22045e-16
    outer loop
      vertex 63 7 -2.88658e-15
      vertex 65 7 -1.55431e-15
      vertex 64.8296 7 -1.2941
    endloop
  endfacet
  facet normal 0 1 -2.22045e-16
    outer loop
      vertex 63 7 -2.88658e-15
      vertex 64.8296 7 -1.2941
      vertex 64.3301 7 -2.5
    endloop
  endfacet
  facet normal 0 1 -2.22045e-16
    outer loop
      vertex 63 7 -2.88658e-15
      vertex 64.3301 7 -2.5
      vertex 63.5628 7 -3.5
    endloop
  endfacet
  facet normal 0 1 -2.22045e-16
    outer loop
      vertex 63 7 -2.88658e-15
      vertex 63.5628 7 -3.5
      vertex 63 7 -3.5
    endloop
  endfacet
  facet normal 0.991445 2.89827e-17 0.130526
    outer loop
      vertex 65 4.2 -9.32587e-16
      vertex 65 7 -1.55431e-15
      vertex 64.8296 7 1.29409
    endloop
  endfacet
  facet normal 0.991445 2.89827e-17 0.130526
    outer loop
      vertex 64.8296 4.2 1.29409
      vertex 65 4.2 -9.32587e-16
      vertex 64.8296 7 1.29409
    endloop
  endfacet
  facet normal 0.991445 -2.89827e-17 -0.130526
    outer loop
      vertex 64.8296 7 -1.2941
      vertex 65 7 -1.55431e-15
      vertex 65 4.2 -9.32587e-16
    endloop
  endfacet
  facet normal 0.991445 -2.89827e-17 -0.130526
    outer loop
      vertex 64.8296 4.2 -1.2941
      vertex 64.8296 7 -1.2941
      vertex 65 4.2 -9.32587e-16
    endloop
  endfacet
  facet normal 0.92388 8.49728e-17 0.382683
    outer loop
      vertex 64.8296 4.2 1.29409
      vertex 64.8296 7 1.29409
      vertex 64.3301 7 2.5
    endloop
  endfacet
  facet normal 0.92388 8.49728e-17 0.382683
    outer loop
      vertex 64.3301 4.2 2.5
      vertex 64.8296 4.2 1.29409
      vertex 64.3301 7 2.5
    endloop
  endfacet
  facet normal 0.707107 1.57009e-16 0.707107
    outer loop
      vertex 58.4412 7 -0.9
      vertex 58.4412 4.2 -0.9
      vertex 58.7706 4.2 -1.22942
    endloop
  endfacet
  facet normal 0.707107 1.57009e-16 0.707107
    outer loop
      vertex 59.1 4.2 -1.55885
      vertex 58.4412 7 -0.9
      vertex 58.7706 4.2 -1.22942
    endloop
  endfacet
  facet normal 0.707107 1.57009e-16 0.707107
    outer loop
      vertex 59.1 7 -1.55885
      vertex 58.4412 7 -0.9
      vertex 59.1 4.2 -1.55885
    endloop
  endfacet
  facet normal 0.965926 5.74693e-17 0.258819
    outer loop
      vertex 58.2 7 -1.55431e-15
      vertex 58.2 4.2 -9.32587e-16
      vertex 58.4412 4.2 -0.9
    endloop
  endfacet
  facet normal 0.965926 5.74693e-17 0.258819
    outer loop
      vertex 58.4412 7 -0.9
      vertex 58.2 7 -1.55431e-15
      vertex 58.4412 4.2 -0.9
    endloop
  endfacet
  facet normal 0.965926 -5.74693e-17 -0.258819
    outer loop
      vertex 58.4412 4.2 0.9
      vertex 58.2 4.2 -9.32587e-16
      vertex 58.2 7 -1.55431e-15
    endloop
  endfacet
  facet normal 0.965926 -5.74693e-17 -0.258819
    outer loop
      vertex 58.4412 7 0.9
      vertex 58.4412 4.2 0.9
      vertex 58.2 7 -1.55431e-15
    endloop
  endfacet
  facet normal 0.707107 -1.57009e-16 -0.707107
    outer loop
      vertex 58.7706 4.2 1.22942
      vertex 58.4412 4.2 0.9
      vertex 58.4412 7 0.9
    endloop
  endfacet
  facet normal 0.707107 -1.57009e-16 -0.707107
    outer loop
      vertex 59.1 7 1.55885
      vertex 58.7706 4.2 1.22942
      vertex 58.4412 7 0.9
    endloop
  endfacet
  facet normal 0.707107 -1.57009e-16 -0.707107
    outer loop
      vertex 59.1 4.2 1.55885
      vertex 58.7706 4.2 1.22942
      vertex 59.1 7 1.55885
    endloop
  endfacet
  facet normal 0.258819 -2.14479e-16 -0.965926
    outer loop
      vertex 59.1 4.2 1.55885
      vertex 59.1 7 1.55885
      vertex 60 4.2 1.8
    endloop
  endfacet
  facet normal 0.258819 -2.14479e-16 -0.965926
    outer loop
      vertex 60 4.2 1.8
      vertex 59.1 7 1.55885
      vertex 60 7 1.8
    endloop
  endfacet
  facet normal -0.258819 -2.14479e-16 -0.965926
    outer loop
      vertex 60 4.2 1.8
      vertex 60 7 1.8
      vertex 60.9 4.2 1.55885
    endloop
  endfacet
  facet normal -0.258819 -2.14479e-16 -0.965926
    outer loop
      vertex 60.9 4.2 1.55885
      vertex 60 7 1.8
      vertex 60.9 7 1.55885
    endloop
  endfacet
  facet normal -0.707107 -1.57009e-16 -0.707107
    outer loop
      vertex 60.9 4.2 1.55885
      vertex 60.9 7 1.55885
      vertex 61.5588 4.2 0.9
    endloop
  endfacet
  facet normal -0.707107 -1.57009e-16 -0.707107
    outer loop
      vertex 61.5588 4.2 0.9
      vertex 60.9 7 1.55885
      vertex 61.5588 7 0.9
    endloop
  endfacet
  facet normal -0.965926 -5.74693e-17 -0.258819
    outer loop
      vertex 61.5588 4.2 0.9
      vertex 61.5588 7 0.9
      vertex 61.8 4.2 -9.32587e-16
    endloop
  endfacet
  facet normal -0.965926 -5.74693e-17 -0.258819
    outer loop
      vertex 61.8 4.2 -9.32587e-16
      vertex 61.5588 7 0.9
      vertex 61.8 7 -1.55431e-15
    endloop
  endfacet
  facet normal -0.965926 5.74693e-17 0.258819
    outer loop
      vertex 61.5588 4.2 -0.9
      vertex 61.8 4.2 -9.32587e-16
      vertex 61.5588 7 -0.9
    endloop
  endfacet
  facet normal -0.965926 5.74693e-17 0.258819
    outer loop
      vertex 61.5588 7 -0.9
      vertex 61.8 4.2 -9.32587e-16
      vertex 61.8 7 -1.55431e-15
    endloop
  endfacet
  facet normal -0.707107 1.57009e-16 0.707107
    outer loop
      vertex 60.9 4.2 -1.55885
      vertex 61.5588 4.2 -0.9
      vertex 60.9 7 -1.55885
    endloop
  endfacet
  facet normal -0.707107 1.57009e-16 0.707107
    outer loop
      vertex 60.9 7 -1.55885
      vertex 61.5588 4.2 -0.9
      vertex 61.5588 7 -0.9
    endloop
  endfacet
  facet normal -0.258819 2.14479e-16 0.965926
    outer loop
      vertex 60 7 -1.8
      vertex 60 4.2 -1.8
      vertex 60.9 4.2 -1.55885
    endloop
  endfacet
  facet normal -0.258819 2.14479e-16 0.965926
    outer loop
      vertex 60.9 7 -1.55885
      vertex 60 7 -1.8
      vertex 60.9 4.2 -1.55885
    endloop
  endfacet
  facet normal 0.258819 2.14479e-16 0.965926
    outer loop
      vertex 59.1 7 -1.55885
      vertex 59.1 4.2 -1.55885
      vertex 60 4.2 -1.8
    endloop
  endfacet
  facet normal 0.258819 2.14479e-16 0.965926
    outer loop
      vertex 60 7 -1.8
      vertex 59.1 7 -1.55885
      vertex 60 4.2 -1.8
    endloop
  endfacet
  facet normal 0.92388 -8.49728e-17 -0.382683
    outer loop
      vertex 64.3301 7 -2.5
      vertex 64.8296 7 -1.2941
      vertex 64.8296 4.2 -1.2941
    endloop
  endfacet
  facet normal 0.92388 -8.49728e-17 -0.382683
    outer loop
      vertex 64.3301 4.2 -2.5
      vertex 64.3301 7 -2.5
      vertex 64.8296 4.2 -1.2941
    endloop
  endfacet
  facet normal 0.793353 -1.35172e-16 -0.608761
    outer loop
      vertex 63.5628 7 -3.5
      vertex 64.3301 7 -2.5
      vertex 64.3301 4.2 -2.5
    endloop
  endfacet
  facet normal 0.793353 -1.35172e-16 -0.608761
    outer loop
      vertex 63.5628 4.2 -3.5
      vertex 63.5628 7 -3.5
      vertex 64.3301 4.2 -2.5
    endloop
  endfacet
  facet normal 0 -1 0
    outer loop
      vertex 58.4412 4.2 -0.9
      vertex 56.5 4.2 -3.5
      vertex 58.7706 4.2 -1.22942
    endloop
  endfacet
  facet normal 0 -1 0
    outer loop
      vertex 56.5 4.2 3.5
      vertex 56.5 4.2 -3.5
      vertex 58.4412 4.2 -0.9
    endloop
  endfacet
  facet normal 0 -1 0
    outer loop
      vertex 58.4412 4.2 0.9
      vertex 56.5 4.2 3.5
      vertex 58.2 4.2 -9.32587e-16
    endloop
  endfacet
  facet normal 0 -1 0
    outer loop
      vertex 58.7706 4.2 1.22942
      vertex 56.5 4.2 3.5
      vertex 58.4412 4.2 0.9
    endloop
  endfacet
  facet normal 0 -1 0
    outer loop
      vertex 58.4412 4.2 -0.9
      vertex 58.2 4.2 -9.32587e-16
      vertex 56.5 4.2 3.5
    endloop
  endfacet
  facet normal 1 -3.6203e-08 0
    outer loop
      vertex 52.8627 -2.1 1.99338
      vertex 52.8627 -2.1 -1.99338
      vertex 52.8627 2.1 -1.99338
    endloop
  endfacet
  facet normal 1 -3.6203e-08 0
    outer loop
      vertex 52.8627 2.1 1.99338
      vertex 52.8627 -2.1 1.99338
      vertex 52.8627 2.1 -1.99338
    endloop
  endfacet
  facet normal 0.353553 -0.866025 -0.353553
    outer loop
      vertex 52.8627 2.1 -1.99338
      vertex 51.3561 2.1 -3.5
      vertex 56.5 4.2 -3.5
    endloop
  endfacet
  facet normal 0.707107 -3.6203e-08 -0.707107
    outer loop
      vertex 51.3561 -2.1 -3.5
      vertex 51.3561 2.1 -3.5
      vertex 52.8627 -2.1 -1.99338
    endloop
  endfacet
  facet normal 0.707107 -3.6203e-08 -0.707107
    outer loop
      vertex 52.8627 -2.1 -1.99338
      vertex 51.3561 2.1 -3.5
      vertex 52.8627 2.1 -1.99338
    endloop
  endfacet
  facet normal 0.5 0.866025 0
    outer loop
      vertex 52.8627 -2.1 -1.99338
      vertex 52.8627 -2.1 1.99338
      vertex 56.5 -4.2 -3.5
    endloop
  endfacet
  facet normal 0.5 0.866025 0
    outer loop
      vertex 56.5 -4.2 -3.5
      vertex 52.8627 -2.1 1.99338
      vertex 56.5 -4.2 3.5
    endloop
  endfacet
  facet normal 0.707107 -1.57009e-16 -0.707107
    outer loop
      vertex 59.1 -7 1.55885
      vertex 58.4412 -7 0.9
      vertex 58.4412 -4.2 0.9
    endloop
  endfacet
  facet normal 0.707107 -1.57009e-16 -0.707107
    outer loop
      vertex 58.7706 -4.2 1.22942
      vertex 59.1 -7 1.55885
      vertex 58.4412 -4.2 0.9
    endloop
  endfacet
  facet normal 0.707107 -1.57009e-16 -0.707107
    outer loop
      vertex 59.1 -4.2 1.55885
      vertex 59.1 -7 1.55885
      vertex 58.7706 -4.2 1.22942
    endloop
  endfacet
  facet normal 0.793353 -1.35172e-16 -0.608761
    outer loop
      vertex 63.5628 -4.2 -3.5
      vertex 64.3301 -4.2 -2.5
      vertex 64.3301 -7 -2.5
    endloop
  endfacet
  facet normal 0.793353 -1.35172e-16 -0.608761
    outer loop
      vertex 63.5628 -7 -3.5
      vertex 63.5628 -4.2 -3.5
      vertex 64.3301 -7 -2.5
    endloop
  endfacet
  facet normal 0.92388 -8.49728e-17 -0.382683
    outer loop
      vertex 64.3301 -4.2 -2.5
      vertex 64.8296 -4.2 -1.29409
      vertex 64.8296 -7 -1.29409
    endloop
  endfacet
  facet normal 0.92388 -8.49728e-17 -0.382683
    outer loop
      vertex 64.3301 -7 -2.5
      vertex 64.3301 -4.2 -2.5
      vertex 64.8296 -7 -1.29409
    endloop
  endfacet
  facet normal 0.991445 -2.89827e-17 -0.130526
    outer loop
      vertex 64.8296 -4.2 -1.29409
      vertex 65 -4.2 9.32587e-16
      vertex 65 -7 1.55431e-15
    endloop
  endfacet
  facet normal 0.991445 -2.89827e-17 -0.130526
    outer loop
      vertex 64.8296 -7 -1.29409
      vertex 64.8296 -4.2 -1.29409
      vertex 65 -7 1.55431e-15
    endloop
  endfacet
  facet normal 0.991445 2.89827e-17 0.130526
    outer loop
      vertex 65 -7 1.55431e-15
      vertex 65 -4.2 9.32587e-16
      vertex 64.8296 -4.2 1.2941
    endloop
  endfacet
  facet normal 0.991445 2.89827e-17 0.130526
    outer loop
      vertex 64.8296 -7 1.2941
      vertex 65 -7 1.55431e-15
      vertex 64.8296 -4.2 1.2941
    endloop
  endfacet
  facet normal 0.92388 8.49728e-17 0.382683
    outer loop
      vertex 64.8296 -7 1.2941
      vertex 64.8296 -4.2 1.2941
      vertex 64.3301 -4.2 2.5
    endloop
  endfacet
  facet normal 0.92388 8.49728e-17 0.382683
    outer loop
      vertex 64.3301 -7 2.5
      vertex 64.8296 -7 1.2941
      vertex 64.3301 -4.2 2.5
    endloop
  endfacet
  facet normal 0.258819 -2.14479e-16 -0.965926
    outer loop
      vertex 59.1 -7 1.55885
      vertex 59.1 -4.2 1.55885
      vertex 60 -7 1.8
    endloop
  endfacet
  facet normal 0.258819 -2.14479e-16 -0.965926
    outer loop
      vertex 60 -7 1.8
      vertex 59.1 -4.2 1.55885
      vertex 60 -4.2 1.8
    endloop
  endfacet
  facet normal -0.258819 -2.14479e-16 -0.965926
    outer loop
      vertex 60 -7 1.8
      vertex 60 -4.2 1.8
      vertex 60.9 -7 1.55885
    endloop
  endfacet
  facet normal -0.258819 -2.14479e-16 -0.965926
    outer loop
      vertex 60.9 -7 1.55885
      vertex 60 -4.2 1.8
      vertex 60.9 -4.2 1.55885
    endloop
  endfacet
  facet normal -0.707107 -1.57009e-16 -0.707107
    outer loop
      vertex 60.9 -7 1.55885
      vertex 60.9 -4.2 1.55885
      vertex 61.5588 -7 0.9
    endloop
  endfacet
  facet normal -0.707107 -1.57009e-16 -0.707107
    outer loop
      vertex 61.5588 -7 0.9
      vertex 60.9 -4.2 1.55885
      vertex 61.5588 -4.2 0.9
    endloop
  endfacet
  facet normal -0.965926 -5.74693e-17 -0.258819
    outer loop
      vertex 61.5588 -7 0.9
      vertex 61.5588 -4.2 0.9
      vertex 61.8 -7 1.55431e-15
    endloop
  endfacet
  facet normal -0.965926 -5.74693e-17 -0.258819
    outer loop
      vertex 61.8 -7 1.55431e-15
      vertex 61.5588 -4.2 0.9
      vertex 61.8 -4.2 9.32587e-16
    endloop
  endfacet
  facet normal -0.965926 5.74693e-17 0.258819
    outer loop
      vertex 61.5588 -7 -0.9
      vertex 61.8 -7 1.55431e-15
      vertex 61.5588 -4.2 -0.9
    endloop
  endfacet
  facet normal -0.965926 5.74693e-17 0.258819
    outer loop
      vertex 61.5588 -4.2 -0.9
      vertex 61.8 -7 1.55431e-15
      vertex 61.8 -4.2 9.32587e-16
    endloop
  endfacet
  facet normal -0.707107 1.57009e-16 0.707107
    outer loop
      vertex 60.9 -7 -1.55885
      vertex 61.5588 -7 -0.9
      vertex 60.9 -4.2 -1.55885
    endloop
  endfacet
  facet normal -0.707107 1.57009e-16 0.707107
    outer loop
      vertex 60.9 -4.2 -1.55885
      vertex 61.5588 -7 -0.9
      vertex 61.5588 -4.2 -0.9
    endloop
  endfacet
  facet normal -0.258819 2.14479e-16 0.965926
    outer loop
      vertex 60 -4.2 -1.8
      vertex 60 -7 -1.8
      vertex 60.9 -7 -1.55885
    endloop
  endfacet
  facet normal -0.258819 2.14479e-16 0.965926
    outer loop
      vertex 60.9 -4.2 -1.55885
      vertex 60 -4.2 -1.8
      vertex 60.9 -7 -1.55885
    endloop
  endfacet
  facet normal 0.258819 2.14479e-16 0.965926
    outer loop
      vertex 59.1 -4.2 -1.55885
      vertex 59.1 -7 -1.55885
      vertex 60 -7 -1.8
    endloop
  endfacet
  facet normal 0.258819 2.14479e-16 0.965926
    outer loop
      vertex 60 -4.2 -1.8
      vertex 59.1 -4.2 -1.55885
      vertex 60 -7 -1.8
    endloop
  endfacet
  facet normal 0.707107 1.57009e-16 0.707107
    outer loop
      vertex 58.4412 -4.2 -0.9
      vertex 58.4412 -7 -0.9
      vertex 59.1 -7 -1.55885
    endloop
  endfacet
  facet normal 0.707107 1.57009e-16 0.707107
    outer loop
      vertex 58.7706 -4.2 -1.22942
      vertex 58.4412 -4.2 -0.9
      vertex 59.1 -7 -1.55885
    endloop
  endfacet
  facet normal 0.707107 1.57009e-16 0.707107
    outer loop
      vertex 59.1 -4.2 -1.55885
      vertex 58.7706 -4.2 -1.22942
      vertex 59.1 -7 -1.55885
    endloop
  endfacet
  facet normal 0.965926 5.74693e-17 0.258819
    outer loop
      vertex 58.2 -4.2 9.32587e-16
      vertex 58.2 -7 1.55431e-15
      vertex 58.4412 -7 -0.9
    endloop
  endfacet
  facet normal 0.965926 5.74693e-17 0.258819
    outer loop
      vertex 58.4412 -4.2 -0.9
      vertex 58.2 -4.2 9.32587e-16
      vertex 58.4412 -7 -0.9
    endloop
  endfacet
  facet normal 0.965926 -5.74693e-17 -0.258819
    outer loop
      vertex 58.4412 -7 0.9
      vertex 58.2 -7 1.55431e-15
      vertex 58.2 -4.2 9.32587e-16
    endloop
  endfacet
  facet normal 0.965926 -5.74693e-17 -0.258819
    outer loop
      vertex 58.4412 -4.2 0.9
      vertex 58.4412 -7 0.9
      vertex 58.2 -4.2 9.32587e-16
    endloop
  endfacet
  facet normal 0.353553 0.866025 -0.353553
    outer loop
      vertex 51.3561 -2.1 -3.5
      vertex 52.8627 -2.1 -1.99338
      vertex 56.5 -4.2 -3.5
    endloop
  endfacet
  facet normal 0 1 0
    outer loop
      vertex 58.4412 -4.2 0.9
      vertex 56.5 -4.2 3.5
      vertex 58.7706 -4.2 1.22942
    endloop
  endfacet
  facet normal 0 1 0
    outer loop
      vertex 58.2 -4.2 9.32587e-16
      vertex 56.5 -4.2 3.5
      vertex 58.4412 -4.2 0.9
    endloop
  endfacet
  facet normal 0 1 0
    outer loop
      vertex 56.5 -4.2 -3.5
      vertex 56.5 -4.2 3.5
      vertex 58.4412 -4.2 -0.9
    endloop
  endfacet
  facet normal 0 1 0
    outer loop
      vertex 56.5 -4.2 -3.5
      vertex 58.4412 -4.2 -0.9
      vertex 58.7706 -4.2 -1.22942
    endloop
  endfacet
  facet normal 0 1 0
    outer loop
      vertex 58.4412 -4.2 -0.9
      vertex 56.5 -4.2 3.5
      vertex 58.2 -4.2 9.32587e-16
    endloop
  endfacet
endsolid OpenSCAD_Model
