solid OpenSCAD_Model
  facet normal -0.991445 2.89827e-17 0.130526
    outer loop
      vertex -55 -8 1.77636e-15
      vertex -54.8296 -8 1.2941
      vertex -55 -5 1.11022e-15
    endloop
  endfacet
  facet normal -0.991445 2.89827e-17 0.130526
    outer loop
      vertex -55 -5 1.11022e-15
      vertex -54.8296 -8 1.2941
      vertex -54.8296 -5 1.2941
    endloop
  endfacet
  facet normal 0 -1 2.22045e-16
    outer loop
      vertex -54.8296 -8 1.2941
      vertex -55 -8 1.77636e-15
      vertex -53 -8 1.77636e-15
    endloop
  endfacet
  facet normal 0 -1 2.22045e-16
    outer loop
      vertex -52.9302 -8 4
      vertex -54.8296 -8 1.2941
      vertex -53 -8 3.4641
    endloop
  endfacet
  facet normal 0 -1 2.22045e-16
    outer loop
      vertex -53 -8 3.4641
      vertex -54.8296 -8 1.2941
      vertex -53 -8 1.77636e-15
    endloop
  endfacet
  facet normal 0 -1 2.22045e-16
    outer loop
      vertex -49 -8 4
      vertex -53 -8 3.4641
      vertex -49 -8 2.03018
    endloop
  endfacet
  facet normal 0 -1 2.22045e-16
    outer loop
      vertex -52.9302 -8 4
      vertex -53 -8 3.4641
      vertex -49 -8 4
    endloop
  endfacet
  facet normal 0 -1 2.22045e-16
    outer loop
      vertex -53.5355 -8 3.53553
      vertex -54.8296 -8 1.2941
      vertex -52.9302 -8 4
    endloop
  endfacet
  facet normal 0 -1 2.22045e-16
    outer loop
      vertex -54.3301 -8 2.5
      vertex -54.8296 -8 1.2941
      vertex -53.5355 -8 3.53553
    endloop
  endfacet
  facet normal 0 -1 0
    outer loop
      vertex -53 -8 1.77636e-15
      vertex -55 -8 1.77636e-15
      vertex -54.8296 -8 -1.29409
    endloop
  endfacet
  facet normal 0 -1 0
    outer loop
      vertex -53.5355 -8 -3.53553
      vertex -53 -8 1.77636e-15
      vertex -54.3301 -8 -2.5
    endloop
  endfacet
  facet normal 0 -1 0
    outer loop
      vertex -54.3301 -8 -2.5
      vertex -53 -8 1.77636e-15
      vertex -54.8296 -8 -1.29409
    endloop
  endfacet
  facet normal 0 -1 0
    outer loop
      vertex -52.9302 -8 -4
      vertex -53 -8 1.77636e-15
      vertex -53.5355 -8 -3.53553
    endloop
  endfacet
  facet normal 0 -1 0
    outer loop
      vertex -49 -8 -4
      vertex -53 -8 1.77636e-15
      vertex -52.9302 -8 -4
    endloop
  endfacet
  facet normal 0 -1 0
    outer loop
      vertex -51.5588 -8 -0.9
      vertex -53 -8 1.77636e-15
      vertex -49 -8 -4
    endloop
  endfacet
  facet normal 0 -1 0
    outer loop
      vertex -48.2 -8 1.77636e-15
      vertex -48.4412 -8 -0.9
      vertex -43.3367 -8 -1.28168e-08
    endloop
  endfacet
  facet normal 0 -1 0
    outer loop
      vertex -50.9 -8 -1.55885
      vertex -51.5588 -8 -0.9
      vertex -49 -8 -4
    endloop
  endfacet
  facet normal 0 -1 0
    outer loop
      vertex -49.1 -8 1.55885
      vertex -48.4412 -8 0.9
      vertex -46.2385 -8 1.04023
    endloop
  endfacet
  facet normal 0 -1 0
    outer loop
      vertex -48.4412 -8 0.9
      vertex -48.2 -8 1.77636e-15
      vertex -46.2385 -8 1.04023
    endloop
  endfacet
  facet normal 0 -1 0
    outer loop
      vertex -49.1 -8 -1.55885
      vertex -50 -8 -1.8
      vertex -49 -8 -2.03018
    endloop
  endfacet
  facet normal 0 -1 0
    outer loop
      vertex -53 -8 3.4641
      vertex -51.5588 -8 0.9
      vertex -50.9 -8 1.55885
    endloop
  endfacet
  facet normal 0 -1 0
    outer loop
      vertex -53 -8 3.4641
      vertex -50 -8 1.8
      vertex -46.2385 -8 1.04023
    endloop
  endfacet
  facet normal 0 -1 0
    outer loop
      vertex -53 -8 3.4641
      vertex -50.9 -8 1.55885
      vertex -50 -8 1.8
    endloop
  endfacet
  facet normal 0 -1 0
    outer loop
      vertex -50 -8 1.8
      vertex -49.1 -8 1.55885
      vertex -46.2385 -8 1.04023
    endloop
  endfacet
  facet normal 0 -1 0
    outer loop
      vertex -46.2385 -8 1.04023
      vertex -48.2 -8 1.77636e-15
      vertex -43.3367 -8 -1.28168e-08
    endloop
  endfacet
  facet normal 0 -1 0
    outer loop
      vertex -43.3367 -8 -1.28168e-08
      vertex -48.4412 -8 -0.9
      vertex -49 -8 -2.03018
    endloop
  endfacet
  facet normal 0 -1 0
    outer loop
      vertex -48.4412 -8 -0.9
      vertex -49.1 -8 -1.55885
      vertex -49 -8 -2.03018
    endloop
  endfacet
  facet normal 0 -1 0
    outer loop
      vertex -51.8 -8 1.77636e-15
      vertex -51.5588 -8 0.9
      vertex -53 -8 1.77636e-15
    endloop
  endfacet
  facet normal 0 -1 0
    outer loop
      vertex -49 -8 -2.03018
      vertex -50 -8 -1.8
      vertex -49 -8 -4
    endloop
  endfacet
  facet normal 0 -1 0
    outer loop
      vertex -50 -8 -1.8
      vertex -50.9 -8 -1.55885
      vertex -49 -8 -4
    endloop
  endfacet
  facet normal 0 -1 0
    outer loop
      vertex -53 -8 3.4641
      vertex -53 -8 1.77636e-15
      vertex -51.5588 -8 0.9
    endloop
  endfacet
  facet normal 0 -1 0
    outer loop
      vertex -51.5588 -8 -0.9
      vertex -51.8 -8 1.77636e-15
      vertex -53 -8 1.77636e-15
    endloop
  endfacet
  facet normal -0.991445 -2.89827e-17 -0.130526
    outer loop
      vertex -55 -8 1.77636e-15
      vertex -55 -5 1.11022e-15
      vertex -54.8296 -8 -1.29409
    endloop
  endfacet
  facet normal -0.991445 -2.89827e-17 -0.130526
    outer loop
      vertex -54.8296 -8 -1.29409
      vertex -55 -5 1.11022e-15
      vertex -54.8296 -5 -1.29409
    endloop
  endfacet
  facet normal 0 1 0
    outer loop
      vertex -54.3301 -5 2.5
      vertex -53.5355 -5 3.53553
      vertex -54.8296 -5 1.2941
    endloop
  endfacet
  facet normal 0 1 0
    outer loop
      vertex -54.8296 -5 1.2941
      vertex -53.5355 -5 3.53553
      vertex -53 -5 3.94646
    endloop
  endfacet
  facet normal 0 1 0
    outer loop
      vertex -53 -5 3.94646
      vertex -53 -5 4
      vertex -46.5 -5 4
    endloop
  endfacet
  facet normal 0 1 0
    outer loop
      vertex -53 -5 3.94646
      vertex -46.5 -5 4
      vertex -54.8296 -5 1.2941
    endloop
  endfacet
  facet normal 0 1 0
    outer loop
      vertex -48.4412 -5 -0.9
      vertex -46.5 -5 4
      vertex -46.5 -5 -4
    endloop
  endfacet
  facet normal 0 1 0
    outer loop
      vertex -53 -5 -3.94646
      vertex -46.5 -5 -4
      vertex -53 -5 -4
    endloop
  endfacet
  facet normal 0 1 0
    outer loop
      vertex -50.9 -5 -1.55885
      vertex -46.5 -5 -4
      vertex -53 -5 -3.94646
    endloop
  endfacet
  facet normal 0 1 0
    outer loop
      vertex -48.4412 -5 0.9
      vertex -46.5 -5 4
      vertex -48.2 -5 1.11022e-15
    endloop
  endfacet
  facet normal 0 1 0
    outer loop
      vertex -51.5588 -5 -0.9
      vertex -54.8296 -5 1.2941
      vertex -51.8 -5 1.11022e-15
    endloop
  endfacet
  facet normal 0 1 0
    outer loop
      vertex -54.8296 -5 1.2941
      vertex -53.5355 -5 -3.53553
      vertex -54.3301 -5 -2.5
    endloop
  endfacet
  facet normal 0 1 0
    outer loop
      vertex -54.8296 -5 1.2941
      vertex -54.3301 -5 -2.5
      vertex -54.8296 -5 -1.29409
    endloop
  endfacet
  facet normal 0 1 0
    outer loop
      vertex -54.8296 -5 1.2941
      vertex -54.8296 -5 -1.29409
      vertex -55 -5 1.11022e-15
    endloop
  endfacet
  facet normal 0 1 0
    outer loop
      vertex -49.1 -5 -1.55885
      vertex -46.5 -5 -4
      vertex -50 -5 -1.8
    endloop
  endfacet
  facet normal 0 1 0
    outer loop
      vertex -54.8296 -5 1.2941
      vertex -51.5588 -5 -0.9
      vertex -53 -5 -3.94646
    endloop
  endfacet
  facet normal 0 1 0
    outer loop
      vertex -51.5588 -5 -0.9
      vertex -50.9 -5 -1.55885
      vertex -53 -5 -3.94646
    endloop
  endfacet
  facet normal 0 1 0
    outer loop
      vertex -50 -5 -1.8
      vertex -46.5 -5 -4
      vertex -50.9 -5 -1.55885
    endloop
  endfacet
  facet normal 0 1 0
    outer loop
      vertex -51.5588 -5 0.9
      vertex -54.8296 -5 1.2941
      vertex -50.9 -5 1.55885
    endloop
  endfacet
  facet normal 0 1 0
    outer loop
      vertex -48.2 -5 1.11022e-15
      vertex -46.5 -5 4
      vertex -48.4412 -5 -0.9
    endloop
  endfacet
  facet normal 0 1 0
    outer loop
      vertex -49.1 -5 -1.55885
      vertex -48.4412 -5 -0.9
      vertex -46.5 -5 -4
    endloop
  endfacet
  facet normal 0 1 0
    outer loop
      vertex -49.1 -5 1.55885
      vertex -46.5 -5 4
      vertex -48.4412 -5 0.9
    endloop
  endfacet
  facet normal 0 1 0
    outer loop
      vertex -50 -5 1.8
      vertex -46.5 -5 4
      vertex -49.1 -5 1.55885
    endloop
  endfacet
  facet normal 0 1 0
    outer loop
      vertex -54.8296 -5 1.2941
      vertex -46.5 -5 4
      vertex -50 -5 1.8
    endloop
  endfacet
  facet normal 0 1 0
    outer loop
      vertex -54.8296 -5 1.2941
      vertex -50 -5 1.8
      vertex -50.9 -5 1.55885
    endloop
  endfacet
  facet normal 0 1 0
    outer loop
      vertex -54.8296 -5 1.2941
      vertex -51.5588 -5 0.9
      vertex -51.8 -5 1.11022e-15
    endloop
  endfacet
  facet normal 0 1 0
    outer loop
      vertex -53.5355 -5 -3.53553
      vertex -54.8296 -5 1.2941
      vertex -53 -5 -3.94646
    endloop
  endfacet
  facet normal -0.92388 8.49728e-17 0.382683
    outer loop
      vertex -54.8296 -8 1.2941
      vertex -54.3301 -8 2.5
      vertex -54.8296 -5 1.2941
    endloop
  endfacet
  facet normal -0.92388 8.49728e-17 0.382683
    outer loop
      vertex -54.8296 -5 1.2941
      vertex -54.3301 -8 2.5
      vertex -54.3301 -5 2.5
    endloop
  endfacet
  facet normal -0.793353 1.35172e-16 0.608761
    outer loop
      vertex -54.3301 -8 2.5
      vertex -53.5355 -8 3.53553
      vertex -54.3301 -5 2.5
    endloop
  endfacet
  facet normal -0.793353 1.35172e-16 0.608761
    outer loop
      vertex -54.3301 -5 2.5
      vertex -53.5355 -8 3.53553
      vertex -53.5355 -5 3.53553
    endloop
  endfacet
  facet normal -0.608761 1.7616e-16 0.793353
    outer loop
      vertex -53 -7.72151 3.94646
      vertex -53.5355 -8 3.53553
      vertex -52.9302 -8 4
    endloop
  endfacet
  facet normal -0.608761 1.7616e-16 0.793353
    outer loop
      vertex -53 -7.72151 3.94646
      vertex -53 -5 3.94646
      vertex -53.5355 -5 3.53553
    endloop
  endfacet
  facet normal -0.608761 1.7616e-16 0.793353
    outer loop
      vertex -53.5355 -5 3.53553
      vertex -53.5355 -8 3.53553
      vertex -53 -7.72151 3.94646
    endloop
  endfacet
  facet normal -0.608761 1.7616e-16 0.793353
    outer loop
      vertex -52.9302 -7.67616 4
      vertex -53 -7.72151 3.94646
      vertex -52.9302 -8 4
    endloop
  endfacet
  facet normal 0 0 1
    outer loop
      vertex -53 -5 4
      vertex -53 -7.6906 4
      vertex -52.9302 -7.67616 4
    endloop
  endfacet
  facet normal 0 0 1
    outer loop
      vertex -49 -8 4
      vertex -53 -5 4
      vertex -52.9302 -7.67616 4
    endloop
  endfacet
  facet normal 0 0 1
    outer loop
      vertex -52.9302 -8 4
      vertex -49 -8 4
      vertex -52.9302 -7.67616 4
    endloop
  endfacet
  facet normal 0 0 1
    outer loop
      vertex -49 -8 4
      vertex -49 -6.86272 4
      vertex -53 -5 4
    endloop
  endfacet
  facet normal 0 0 1
    outer loop
      vertex -46.5 5 4
      vertex -42.9762 2.96555 4
      vertex -27 2.3094 4
    endloop
  endfacet
  facet normal 0 0 1
    outer loop
      vertex -42.9762 -2.96555 4
      vertex -46.5 -5 4
      vertex -27 -2.3094 4
    endloop
  endfacet
  facet normal 0 0 1
    outer loop
      vertex -53 5 4
      vertex -49 6.86272 4
      vertex -49 8 4
    endloop
  endfacet
  facet normal 0 0 1
    outer loop
      vertex -40.8561 2.1 4
      vertex -40.8561 -2.1 4
      vertex -27 2.3094 4
    endloop
  endfacet
  facet normal 0 0 1
    outer loop
      vertex -49 8 4
      vertex -52.9302 8 4
      vertex -52.9302 7.67616 4
    endloop
  endfacet
  facet normal 0 0 1
    outer loop
      vertex -53 5 4
      vertex -49 8 4
      vertex -52.9302 7.67616 4
    endloop
  endfacet
  facet normal 0 0 1
    outer loop
      vertex -27 2.3094 4
      vertex -49 6.86272 4
      vertex -46.5 5 4
    endloop
  endfacet
  facet normal 0 0 1
    outer loop
      vertex -27 2.3094 4
      vertex -42.9762 2.96555 4
      vertex -40.8561 2.1 4
    endloop
  endfacet
  facet normal 0 0 1
    outer loop
      vertex -27 -2.3094 4
      vertex -27 2.3094 4
      vertex -40.8561 -2.1 4
    endloop
  endfacet
  facet normal 0 0 1
    outer loop
      vertex -27 -2.3094 4
      vertex -40.8561 -2.1 4
      vertex -42.9762 -2.96555 4
    endloop
  endfacet
  facet normal 0 0 1
    outer loop
      vertex -49 -6.86272 4
      vertex -27 -2.3094 4
      vertex -46.5 -5 4
    endloop
  endfacet
  facet normal 0 0 1
    outer loop
      vertex -46.5 -5 4
      vertex -53 -5 4
      vertex -49 -6.86272 4
    endloop
  endfacet
  facet normal 0 0 1
    outer loop
      vertex -52.9302 7.67616 4
      vertex -53 7.6906 4
      vertex -53 5 4
    endloop
  endfacet
  facet normal 0 0 1
    outer loop
      vertex -53 5 4
      vertex -46.5 5 4
      vertex -49 6.86272 4
    endloop
  endfacet
  facet normal 1 0 0
    outer loop
      vertex -49 -8 4
      vertex -49 -8 2.03018
      vertex -49 -6.86272 4
    endloop
  endfacet
  facet normal 0.176429 -0.85244 0.492157
    outer loop
      vertex -49 -8 2.03018
      vertex -53 -8 3.4641
      vertex -46.2385 -8 1.04023
    endloop
  endfacet
  facet normal 0.176429 -0.85244 0.492157
    outer loop
      vertex -27 -2.3094 4
      vertex -49 -8 2.03018
      vertex -46.2385 -8 1.04023
    endloop
  endfacet
  facet normal 0.176429 -0.85244 0.492157
    outer loop
      vertex -49 -6.86272 4
      vertex -49 -8 2.03018
      vertex -27 -2.3094 4
    endloop
  endfacet
  facet normal 0.176429 -0.85244 0.492157
    outer loop
      vertex -27 -2.3094 4
      vertex -46.2385 -8 1.04023
      vertex -43.3367 -8 -1.28168e-08
    endloop
  endfacet
  facet normal 0.176429 -0.85244 0.492157
    outer loop
      vertex -27 -4.6188 2.88658e-15
      vertex -27 -2.3094 4
      vertex -27 -4.6188 -6.64748e-08
    endloop
  endfacet
  facet normal 0.176429 -0.85244 0.492157
    outer loop
      vertex -27 -4.6188 -6.64748e-08
      vertex -27 -2.3094 4
      vertex -43.3367 -8 -1.28168e-08
    endloop
  endfacet
  facet normal 0.176429 -0.85244 0.492157
    outer loop
      vertex -27 -3.4641 2
      vertex -27 -2.3094 4
      vertex -27 -4.6188 2.88658e-15
    endloop
  endfacet
  facet normal 0.176429 -0.85244 -0.492157
    outer loop
      vertex -43.3367 -8 -1.28168e-08
      vertex -49 -8 -2.03018
      vertex -49 -6.86272 -4
    endloop
  endfacet
  facet normal 0.176429 -0.85244 -0.492157
    outer loop
      vertex -27 -2.3094 -4
      vertex -43.3367 -8 -1.28168e-08
      vertex -49 -6.86272 -4
    endloop
  endfacet
  facet normal 0.176429 -0.85244 -0.492157
    outer loop
      vertex -27 -4.6188 -6.64748e-08
      vertex -43.3367 -8 -1.28168e-08
      vertex -27 -2.3094 -4
    endloop
  endfacet
  facet normal 1 0 0
    outer loop
      vertex -49 -8 -2.03018
      vertex -49 -8 -4
      vertex -49 -6.86272 -4
    endloop
  endfacet
  facet normal 0 0 -1
    outer loop
      vertex -53 -7.6906 -4
      vertex -53 -5 -4
      vertex -52.9302 -7.67616 -4
    endloop
  endfacet
  facet normal 0 0 -1
    outer loop
      vertex -52.9302 -7.67616 -4
      vertex -53 -5 -4
      vertex -46.5 -5 -4
    endloop
  endfacet
  facet normal 0 0 -1
    outer loop
      vertex -46.5 -5 -4
      vertex -42.9762 -2.96555 -4
      vertex -40.8561 -2.1 -4
    endloop
  endfacet
  facet normal 0 0 -1
    outer loop
      vertex -40.8561 2.1 -4
      vertex -42.9762 2.96555 -4
      vertex -46.5 5 -4
    endloop
  endfacet
  facet normal 0 0 -1
    outer loop
      vertex -46.5 5 -4
      vertex -53 5 -4
      vertex -53 7.6906 -4
    endloop
  endfacet
  facet normal 0 0 -1
    outer loop
      vertex -46.5 5 -4
      vertex -53 7.6906 -4
      vertex -52.9302 7.67616 -4
    endloop
  endfacet
  facet normal 0 0 -1
    outer loop
      vertex -46.5 5 -4
      vertex -52.9302 7.67616 -4
      vertex -52.9302 8 -4
    endloop
  endfacet
  facet normal 0 0 -1
    outer loop
      vertex -49 6.86272 -4
      vertex -52.9302 8 -4
      vertex -49 8 -4
    endloop
  endfacet
  facet normal 0 0 -1
    outer loop
      vertex -46.5 5 -4
      vertex -52.9302 8 -4
      vertex -49 6.86272 -4
    endloop
  endfacet
  facet normal 0 0 -1
    outer loop
      vertex -27 -2.3094 -4
      vertex -52.9302 -7.67616 -4
      vertex -46.5 -5 -4
    endloop
  endfacet
  facet normal 0 0 -1
    outer loop
      vertex -40 -2.3094 -4
      vertex -40.8561 2.1 -4
      vertex -40 2.3094 -4
    endloop
  endfacet
  facet normal 0 0 -1
    outer loop
      vertex -40 -2.3094 -4
      vertex -40.8561 -2.1 -4
      vertex -40.8561 2.1 -4
    endloop
  endfacet
  facet normal 0 0 -1
    outer loop
      vertex -40.8561 -2.1 -4
      vertex -40 -2.3094 -4
      vertex -46.5 -5 -4
    endloop
  endfacet
  facet normal 0 0 -1
    outer loop
      vertex -52.9302 -7.67616 -4
      vertex -27 -2.3094 -4
      vertex -49 -6.86272 -4
    endloop
  endfacet
  facet normal 0 0 -1
    outer loop
      vertex -40 2.3094 -4
      vertex -40.8561 2.1 -4
      vertex -46.5 5 -4
    endloop
  endfacet
  facet normal 0 0 -1
    outer loop
      vertex -49 -6.86272 -4
      vertex -49 -8 -4
      vertex -52.9302 -7.67616 -4
    endloop
  endfacet
  facet normal 0 0 -1
    outer loop
      vertex -27 2.3094 -4
      vertex -40 2.3094 -4
      vertex -46.5 5 -4
    endloop
  endfacet
  facet normal 0 0 -1
    outer loop
      vertex -52.9302 -7.67616 -4
      vertex -49 -8 -4
      vertex -52.9302 -8 -4
    endloop
  endfacet
  facet normal 0 0 -1
    outer loop
      vertex -27 2.3094 -4
      vertex -46.5 5 -4
      vertex -49 6.86272 -4
    endloop
  endfacet
  facet normal 0 0 -1
    outer loop
      vertex -27 -2.3094 -4
      vertex -46.5 -5 -4
      vertex -40 -2.3094 -4
    endloop
  endfacet
  facet normal -0.608761 -1.7616e-16 -0.793353
    outer loop
      vertex -52.9302 -7.67616 -4
      vertex -52.9302 -8 -4
      vertex -53 -7.72151 -3.94646
    endloop
  endfacet
  facet normal -0.608761 -1.7616e-16 -0.793353
    outer loop
      vertex -53.5355 -8 -3.53553
      vertex -53.5355 -5 -3.53553
      vertex -53 -7.72151 -3.94646
    endloop
  endfacet
  facet normal -0.608761 -1.7616e-16 -0.793353
    outer loop
      vertex -53.5355 -8 -3.53553
      vertex -53 -7.72151 -3.94646
      vertex -52.9302 -8 -4
    endloop
  endfacet
  facet normal -0.608761 -1.7616e-16 -0.793353
    outer loop
      vertex -53 -7.72151 -3.94646
      vertex -53.5355 -5 -3.53553
      vertex -53 -5 -3.94646
    endloop
  endfacet
  facet normal -0.793353 -1.35172e-16 -0.608761
    outer loop
      vertex -54.3301 -8 -2.5
      vertex -54.3301 -5 -2.5
      vertex -53.5355 -8 -3.53553
    endloop
  endfacet
  facet normal -0.793353 -1.35172e-16 -0.608761
    outer loop
      vertex -53.5355 -8 -3.53553
      vertex -54.3301 -5 -2.5
      vertex -53.5355 -5 -3.53553
    endloop
  endfacet
  facet normal -0.92388 -8.49728e-17 -0.382683
    outer loop
      vertex -54.8296 -8 -1.29409
      vertex -54.8296 -5 -1.29409
      vertex -54.3301 -8 -2.5
    endloop
  endfacet
  facet normal -0.92388 -8.49728e-17 -0.382683
    outer loop
      vertex -54.3301 -8 -2.5
      vertex -54.8296 -5 -1.29409
      vertex -54.3301 -5 -2.5
    endloop
  endfacet
  facet normal 0.965926 5.74693e-17 0.258819
    outer loop
      vertex -51.5588 -8 -0.9
      vertex -51.5588 -5 -0.9
      vertex -51.8 -5 1.11022e-15
    endloop
  endfacet
  facet normal 0.965926 5.74693e-17 0.258819
    outer loop
      vertex -51.8 -8 1.77636e-15
      vertex -51.5588 -8 -0.9
      vertex -51.8 -5 1.11022e-15
    endloop
  endfacet
  facet normal 0.707107 1.57009e-16 0.707107
    outer loop
      vertex -50.9 -8 -1.55885
      vertex -50.9 -5 -1.55885
      vertex -51.5588 -5 -0.9
    endloop
  endfacet
  facet normal 0.707107 1.57009e-16 0.707107
    outer loop
      vertex -51.5588 -8 -0.9
      vertex -50.9 -8 -1.55885
      vertex -51.5588 -5 -0.9
    endloop
  endfacet
  facet normal 0.258819 2.14479e-16 0.965926
    outer loop
      vertex -50 -8 -1.8
      vertex -50 -5 -1.8
      vertex -50.9 -5 -1.55885
    endloop
  endfacet
  facet normal 0.258819 2.14479e-16 0.965926
    outer loop
      vertex -50.9 -8 -1.55885
      vertex -50 -8 -1.8
      vertex -50.9 -5 -1.55885
    endloop
  endfacet
  facet normal -0.258819 2.14479e-16 0.965926
    outer loop
      vertex -49.1 -8 -1.55885
      vertex -49.1 -5 -1.55885
      vertex -50 -5 -1.8
    endloop
  endfacet
  facet normal -0.258819 2.14479e-16 0.965926
    outer loop
      vertex -50 -8 -1.8
      vertex -49.1 -8 -1.55885
      vertex -50 -5 -1.8
    endloop
  endfacet
  facet normal -0.707107 1.57009e-16 0.707107
    outer loop
      vertex -48.4412 -5 -0.9
      vertex -49.1 -5 -1.55885
      vertex -48.4412 -8 -0.9
    endloop
  endfacet
  facet normal -0.707107 1.57009e-16 0.707107
    outer loop
      vertex -48.4412 -8 -0.9
      vertex -49.1 -5 -1.55885
      vertex -49.1 -8 -1.55885
    endloop
  endfacet
  facet normal -0.965926 5.74693e-17 0.258819
    outer loop
      vertex -48.2 -5 1.11022e-15
      vertex -48.4412 -5 -0.9
      vertex -48.2 -8 1.77636e-15
    endloop
  endfacet
  facet normal -0.965926 5.74693e-17 0.258819
    outer loop
      vertex -48.2 -8 1.77636e-15
      vertex -48.4412 -5 -0.9
      vertex -48.4412 -8 -0.9
    endloop
  endfacet
  facet normal -0.965926 -5.74693e-17 -0.258819
    outer loop
      vertex -48.2 -5 1.11022e-15
      vertex -48.2 -8 1.77636e-15
      vertex -48.4412 -5 0.9
    endloop
  endfacet
  facet normal -0.965926 -5.74693e-17 -0.258819
    outer loop
      vertex -48.4412 -5 0.9
      vertex -48.2 -8 1.77636e-15
      vertex -48.4412 -8 0.9
    endloop
  endfacet
  facet normal -0.707107 -1.57009e-16 -0.707107
    outer loop
      vertex -48.4412 -5 0.9
      vertex -48.4412 -8 0.9
      vertex -49.1 -5 1.55885
    endloop
  endfacet
  facet normal -0.707107 -1.57009e-16 -0.707107
    outer loop
      vertex -49.1 -5 1.55885
      vertex -48.4412 -8 0.9
      vertex -49.1 -8 1.55885
    endloop
  endfacet
  facet normal -0.258819 -2.14479e-16 -0.965926
    outer loop
      vertex -49.1 -5 1.55885
      vertex -49.1 -8 1.55885
      vertex -50 -5 1.8
    endloop
  endfacet
  facet normal -0.258819 -2.14479e-16 -0.965926
    outer loop
      vertex -50 -5 1.8
      vertex -49.1 -8 1.55885
      vertex -50 -8 1.8
    endloop
  endfacet
  facet normal 0.258819 -2.14479e-16 -0.965926
    outer loop
      vertex -50 -5 1.8
      vertex -50 -8 1.8
      vertex -50.9 -5 1.55885
    endloop
  endfacet
  facet normal 0.258819 -2.14479e-16 -0.965926
    outer loop
      vertex -50.9 -5 1.55885
      vertex -50 -8 1.8
      vertex -50.9 -8 1.55885
    endloop
  endfacet
  facet normal 0.707107 -1.57009e-16 -0.707107
    outer loop
      vertex -51.5588 -5 0.9
      vertex -50.9 -5 1.55885
      vertex -50.9 -8 1.55885
    endloop
  endfacet
  facet normal 0.707107 -1.57009e-16 -0.707107
    outer loop
      vertex -51.5588 -8 0.9
      vertex -51.5588 -5 0.9
      vertex -50.9 -8 1.55885
    endloop
  endfacet
  facet normal 0.965926 -5.74693e-17 -0.258819
    outer loop
      vertex -51.8 -5 1.11022e-15
      vertex -51.5588 -5 0.9
      vertex -51.5588 -8 0.9
    endloop
  endfacet
  facet normal 0.965926 -5.74693e-17 -0.258819
    outer loop
      vertex -51.8 -8 1.77636e-15
      vertex -51.8 -5 1.11022e-15
      vertex -51.5588 -8 0.9
    endloop
  endfacet
  facet normal -1 0 -2.22045e-16
    outer loop
      vertex -53 -7.72151 -3.94646
      vertex -53 -5 -3.94646
      vertex -53 -7.6906 -4
    endloop
  endfacet
  facet normal -1 0 -2.22045e-16
    outer loop
      vertex -53 -7.6906 -4
      vertex -53 -5 -3.94646
      vertex -53 -5 -4
    endloop
  endfacet
  facet normal -1 0 0
    outer loop
      vertex -53 -7.72151 3.94646
      vertex -53 -7.6906 4
      vertex -53 -5 3.94646
    endloop
  endfacet
  facet normal -1 0 0
    outer loop
      vertex -53 -5 3.94646
      vertex -53 -7.6906 4
      vertex -53 -5 4
    endloop
  endfacet
  facet normal 0.176429 -0.85244 0.492157
    outer loop
      vertex -53 -7.6906 4
      vertex -53 -7.72151 3.94646
      vertex -52.9302 -7.67616 4
    endloop
  endfacet
  facet normal -0.5 0.866025 0
    outer loop
      vertex -42.9762 -2.96555 4
      vertex -42.1699 -2.5 3.66599
      vertex -46.5 -5 4
    endloop
  endfacet
  facet normal -0.5 0.866025 0
    outer loop
      vertex -46.5 -5 4
      vertex -42.1699 -2.5 3.66599
      vertex -42.1699 -2.5 -3.66599
    endloop
  endfacet
  facet normal -0.5 0.866025 0
    outer loop
      vertex -46.5 -5 4
      vertex -42.1699 -2.5 -3.66599
      vertex -42.9762 -2.96555 -4
    endloop
  endfacet
  facet normal -0.5 0.866025 0
    outer loop
      vertex -46.5 -5 4
      vertex -42.9762 -2.96555 -4
      vertex -46.5 -5 -4
    endloop
  endfacet
  facet normal -0.353553 0.866025 0.353553
    outer loop
      vertex -42.1699 -2.1 2.6862
      vertex -42.1699 -2.5 3.66599
      vertex -40.8561 -2.1 4
    endloop
  endfacet
  facet normal -0.353553 0.866025 0.353553
    outer loop
      vertex -40.8561 -2.1 4
      vertex -42.1699 -2.5 3.66599
      vertex -42.9762 -2.96555 4
    endloop
  endfacet
  facet normal -0.707107 -3.6203e-08 0.707107
    outer loop
      vertex -40.8561 -2.1 4
      vertex -40.8561 2.1 4
      vertex -42.1699 2.1 2.6862
    endloop
  endfacet
  facet normal -0.707107 -3.6203e-08 0.707107
    outer loop
      vertex -42.1699 -2.1 2.6862
      vertex -40.8561 -2.1 4
      vertex -42.1699 2.1 2.6862
    endloop
  endfacet
  facet normal -0.353553 -0.866025 0.353553
    outer loop
      vertex -42.1699 2.5 3.66599
      vertex -42.1699 2.1 2.6862
      vertex -40.8561 2.1 4
    endloop
  endfacet
  facet normal -0.353553 -0.866025 0.353553
    outer loop
      vertex -42.9762 2.96555 4
      vertex -42.1699 2.5 3.66599
      vertex -40.8561 2.1 4
    endloop
  endfacet
  facet normal -0.5 -0.866025 0
    outer loop
      vertex -42.9762 2.96555 -4
      vertex -42.1699 2.5 -3.66599
      vertex -42.1699 2.5 3.66599
    endloop
  endfacet
  facet normal -0.5 -0.866025 0
    outer loop
      vertex -46.5 5 4
      vertex -42.9762 2.96555 -4
      vertex -42.9762 2.96555 4
    endloop
  endfacet
  facet normal -0.5 -0.866025 0
    outer loop
      vertex -42.9762 2.96555 4
      vertex -42.9762 2.96555 -4
      vertex -42.1699 2.5 3.66599
    endloop
  endfacet
  facet normal -0.5 -0.866025 0
    outer loop
      vertex -46.5 5 -4
      vertex -42.9762 2.96555 -4
      vertex -46.5 5 4
    endloop
  endfacet
  facet normal 0 -1 0
    outer loop
      vertex -54.8296 5 -1.2941
      vertex -54.3301 5 -2.5
      vertex -53.5355 5 -3.53553
    endloop
  endfacet
  facet normal 0 -1 0
    outer loop
      vertex -46.5 5 -4
      vertex -54.8296 5 -1.2941
      vertex -53 5 -3.94646
    endloop
  endfacet
  facet normal 0 -1 0
    outer loop
      vertex -53 5 -3.94646
      vertex -54.8296 5 -1.2941
      vertex -53.5355 5 -3.53553
    endloop
  endfacet
  facet normal 0 -1 0
    outer loop
      vertex -46.5 5 -4
      vertex -53 5 -3.94646
      vertex -53 5 -4
    endloop
  endfacet
  facet normal 0 -1 0
    outer loop
      vertex -50 5 -1.8
      vertex -54.8296 5 -1.2941
      vertex -46.5 5 -4
    endloop
  endfacet
  facet normal 0 -1 0
    outer loop
      vertex -50.9 5 1.55885
      vertex -50 5 1.8
      vertex -46.5 5 4
    endloop
  endfacet
  facet normal 0 -1 0
    outer loop
      vertex -48.2 5 -1.11022e-15
      vertex -48.4412 5 -0.9
      vertex -46.5 5 -4
    endloop
  endfacet
  facet normal 0 -1 0
    outer loop
      vertex -53 5 4
      vertex -53 5 3.94646
      vertex -46.5 5 4
    endloop
  endfacet
  facet normal 0 -1 0
    outer loop
      vertex -54.3301 5 2.5
      vertex -54.8296 5 -1.2941
      vertex -53.5355 5 3.53553
    endloop
  endfacet
  facet normal 0 -1 0
    outer loop
      vertex -54.8296 5 1.29409
      vertex -54.8296 5 -1.2941
      vertex -54.3301 5 2.5
    endloop
  endfacet
  facet normal 0 -1 0
    outer loop
      vertex -55 5 -1.11022e-15
      vertex -54.8296 5 -1.2941
      vertex -54.8296 5 1.29409
    endloop
  endfacet
  facet normal 0 -1 0
    outer loop
      vertex -50 5 1.8
      vertex -49.1 5 1.55885
      vertex -46.5 5 4
    endloop
  endfacet
  facet normal 0 -1 0
    outer loop
      vertex -53 5 3.94646
      vertex -54.8296 5 -1.2941
      vertex -51.5588 5 0.9
    endloop
  endfacet
  facet normal 0 -1 0
    outer loop
      vertex -53 5 3.94646
      vertex -50.9 5 1.55885
      vertex -46.5 5 4
    endloop
  endfacet
  facet normal 0 -1 0
    outer loop
      vertex -53 5 3.94646
      vertex -51.5588 5 0.9
      vertex -50.9 5 1.55885
    endloop
  endfacet
  facet normal 0 -1 0
    outer loop
      vertex -49.1 5 -1.55885
      vertex -50 5 -1.8
      vertex -46.5 5 -4
    endloop
  endfacet
  facet normal 0 -1 0
    outer loop
      vertex -46.5 5 4
      vertex -48.4412 5 0.9
      vertex -46.5 5 -4
    endloop
  endfacet
  facet normal 0 -1 0
    outer loop
      vertex -46.5 5 4
      vertex -49.1 5 1.55885
      vertex -48.4412 5 0.9
    endloop
  endfacet
  facet normal 0 -1 0
    outer loop
      vertex -48.4412 5 0.9
      vertex -48.2 5 -1.11022e-15
      vertex -46.5 5 -4
    endloop
  endfacet
  facet normal 0 -1 0
    outer loop
      vertex -48.4412 5 -0.9
      vertex -49.1 5 -1.55885
      vertex -46.5 5 -4
    endloop
  endfacet
  facet normal 0 -1 0
    outer loop
      vertex -50.9 5 -1.55885
      vertex -54.8296 5 -1.2941
      vertex -50 5 -1.8
    endloop
  endfacet
  facet normal 0 -1 0
    outer loop
      vertex -51.5588 5 -0.9
      vertex -54.8296 5 -1.2941
      vertex -50.9 5 -1.55885
    endloop
  endfacet
  facet normal 0 -1 0
    outer loop
      vertex -51.8 5 -1.11022e-15
      vertex -54.8296 5 -1.2941
      vertex -51.5588 5 -0.9
    endloop
  endfacet
  facet normal 0 -1 0
    outer loop
      vertex -53 5 3.94646
      vertex -53.5355 5 3.53553
      vertex -54.8296 5 -1.2941
    endloop
  endfacet
  facet normal 0 -1 0
    outer loop
      vertex -51.8 5 -1.11022e-15
      vertex -51.5588 5 0.9
      vertex -54.8296 5 -1.2941
    endloop
  endfacet
  facet normal -1 0 0
    outer loop
      vertex -53 5 3.94646
      vertex -53 5 4
      vertex -53 7.72151 3.94646
    endloop
  endfacet
  facet normal -1 0 0
    outer loop
      vertex -53 7.72151 3.94646
      vertex -53 5 4
      vertex -53 7.6906 4
    endloop
  endfacet
  facet normal 0.176429 0.85244 0.492157
    outer loop
      vertex -53 7.72151 3.94646
      vertex -53 7.6906 4
      vertex -52.9302 7.67616 4
    endloop
  endfacet
  facet normal -0.608761 1.7616e-16 0.793353
    outer loop
      vertex -53.5355 8 3.53553
      vertex -53.5355 5 3.53553
      vertex -53 5 3.94646
    endloop
  endfacet
  facet normal -0.608761 1.7616e-16 0.793353
    outer loop
      vertex -52.9302 8 4
      vertex -53.5355 8 3.53553
      vertex -53 7.72151 3.94646
    endloop
  endfacet
  facet normal -0.608761 1.7616e-16 0.793353
    outer loop
      vertex -53 7.72151 3.94646
      vertex -53.5355 8 3.53553
      vertex -53 5 3.94646
    endloop
  endfacet
  facet normal -0.608761 1.7616e-16 0.793353
    outer loop
      vertex -52.9302 8 4
      vertex -53 7.72151 3.94646
      vertex -52.9302 7.67616 4
    endloop
  endfacet
  facet normal 0 1 0
    outer loop
      vertex -55 8 -1.77636e-15
      vertex -54.8296 8 1.29409
      vertex -53 8 -1.77636e-15
    endloop
  endfacet
  facet normal 0 1 0
    outer loop
      vertex -53 8 -1.77636e-15
      vertex -54.8296 8 1.29409
      vertex -54.3301 8 2.5
    endloop
  endfacet
  facet normal 0 1 0
    outer loop
      vertex -53 8 -1.77636e-15
      vertex -54.3301 8 2.5
      vertex -53.5355 8 3.53553
    endloop
  endfacet
  facet normal 0 1 0
    outer loop
      vertex -53 8 -1.77636e-15
      vertex -53.5355 8 3.53553
      vertex -52.9302 8 4
    endloop
  endfacet
  facet normal 0 1 0
    outer loop
      vertex -53 8 -1.77636e-15
      vertex -52.9302 8 4
      vertex -49 8 4
    endloop
  endfacet
  facet normal 0 1 0
    outer loop
      vertex -50 8 1.8
      vertex -49 8 4
      vertex -49 8 2.03018
    endloop
  endfacet
  facet normal 0 1 0
    outer loop
      vertex -48.4412 8 0.9
      vertex -49 8 2.03018
      vertex -43.3367 8 1.28168e-08
    endloop
  endfacet
  facet normal 0 1 0
    outer loop
      vertex -48.2 8 -1.77636e-15
      vertex -43.3367 8 1.28168e-08
      vertex -46.2385 8 -1.04023
    endloop
  endfacet
  facet normal 0 1 0
    outer loop
      vertex -51.8 8 -1.77636e-15
      vertex -53 8 -1.77636e-15
      vertex -51.5588 8 0.9
    endloop
  endfacet
  facet normal 0 1 0
    outer loop
      vertex -51.5588 8 -0.9
      vertex -53 8 -2.88658e-15
      vertex -53 8 -1.77636e-15
    endloop
  endfacet
  facet normal 0 1 0
    outer loop
      vertex -50.9 8 -1.55885
      vertex -53 8 -3.4641
      vertex -51.5588 8 -0.9
    endloop
  endfacet
  facet normal 0 1 0
    outer loop
      vertex -50 8 -1.8
      vertex -53 8 -3.4641
      vertex -50.9 8 -1.55885
    endloop
  endfacet
  facet normal 0 1 0
    outer loop
      vertex -46.2385 8 -1.04023
      vertex -53 8 -3.4641
      vertex -50 8 -1.8
    endloop
  endfacet
  facet normal 0 1 0
    outer loop
      vertex -46.2385 8 -1.04023
      vertex -50 8 -1.8
      vertex -49.1 8 -1.55885
    endloop
  endfacet
  facet normal 0 1 0
    outer loop
      vertex -48.2 8 -1.77636e-15
      vertex -46.2385 8 -1.04023
      vertex -48.4412 8 -0.9
    endloop
  endfacet
  facet normal 0 1 0
    outer loop
      vertex -48.4412 8 0.9
      vertex -43.3367 8 1.28168e-08
      vertex -48.2 8 -1.77636e-15
    endloop
  endfacet
  facet normal 0 1 0
    outer loop
      vertex -49.1 8 1.55885
      vertex -49 8 2.03018
      vertex -48.4412 8 0.9
    endloop
  endfacet
  facet normal 0 1 0
    outer loop
      vertex -51.5588 8 -0.9
      vertex -53 8 -1.77636e-15
      vertex -51.8 8 -1.77636e-15
    endloop
  endfacet
  facet normal 0 1 0
    outer loop
      vertex -50.9 8 1.55885
      vertex -49 8 4
      vertex -50 8 1.8
    endloop
  endfacet
  facet normal 0 1 0
    outer loop
      vertex -53 8 -1.77636e-15
      vertex -49 8 4
      vertex -50.9 8 1.55885
    endloop
  endfacet
  facet normal 0 1 0
    outer loop
      vertex -53 8 -1.77636e-15
      vertex -50.9 8 1.55885
      vertex -51.5588 8 0.9
    endloop
  endfacet
  facet normal 0 1 0
    outer loop
      vertex -48.4412 8 -0.9
      vertex -46.2385 8 -1.04023
      vertex -49.1 8 -1.55885
    endloop
  endfacet
  facet normal 0 1 0
    outer loop
      vertex -53 8 -2.88658e-15
      vertex -51.5588 8 -0.9
      vertex -53 8 -3.4641
    endloop
  endfacet
  facet normal 0 1 0
    outer loop
      vertex -50 8 1.8
      vertex -49 8 2.03018
      vertex -49.1 8 1.55885
    endloop
  endfacet
  facet normal 1 0 0
    outer loop
      vertex -49 8 4
      vertex -49 6.86272 4
      vertex -49 8 2.03018
    endloop
  endfacet
  facet normal 0.176429 0.85244 0.492157
    outer loop
      vertex -49 6.86272 4
      vertex -27 2.3094 4
      vertex -49 8 2.03018
    endloop
  endfacet
  facet normal 0.176429 0.85244 0.492157
    outer loop
      vertex -49 8 2.03018
      vertex -27 2.3094 4
      vertex -27 4.6188 6.64748e-08
    endloop
  endfacet
  facet normal 0.176429 0.85244 0.492157
    outer loop
      vertex -49 8 2.03018
      vertex -27 4.6188 6.64748e-08
      vertex -43.3367 8 1.28168e-08
    endloop
  endfacet
  facet normal -3.03319e-16 -0.866025 0.5
    outer loop
      vertex -27 -4.6188 -5.9952e-15
      vertex 27 -4.6188 5.9952e-15
      vertex 27 -3.4641 2
    endloop
  endfacet
  facet normal -3.03319e-16 -0.866025 0.5
    outer loop
      vertex -27 -2.3094 4
      vertex -27 -3.4641 2
      vertex 27 -2.3094 4
    endloop
  endfacet
  facet normal -3.03319e-16 -0.866025 0.5
    outer loop
      vertex 40 -2.3094 4
      vertex -27 -2.3094 4
      vertex 27 -2.3094 4
    endloop
  endfacet
  facet normal -3.03319e-16 -0.866025 0.5
    outer loop
      vertex 27 -3.4641 2
      vertex -27 -4.6188 2.88658e-15
      vertex -27 -4.6188 -5.9952e-15
    endloop
  endfacet
  facet normal -3.03319e-16 -0.866025 0.5
    outer loop
      vertex 27 -3.4641 2
      vertex -27 -3.4641 2
      vertex -27 -4.6188 2.88658e-15
    endloop
  endfacet
  facet normal -3.03319e-16 -0.866025 0.5
    outer loop
      vertex 27 -3.4641 2
      vertex 27 -2.3094 4
      vertex -27 -3.4641 2
    endloop
  endfacet
  facet normal 1 0 0
    outer loop
      vertex -27 -4.6188 2.88658e-15
      vertex -27 -4.6188 -6.64748e-08
      vertex -27 -2.3094 -4
    endloop
  endfacet
  facet normal 1 0 0
    outer loop
      vertex -27 -4.6188 -5.9952e-15
      vertex -27 -4.6188 2.88658e-15
      vertex -27 -2.3094 -4
    endloop
  endfacet
  facet normal 0.176429 -0.85244 -0.492157
    outer loop
      vertex -52.9302 -7.67616 -4
      vertex -53 -7.72151 -3.94646
      vertex -53 -7.6906 -4
    endloop
  endfacet
  facet normal -8.1274e-17 -0.866025 -0.5
    outer loop
      vertex 27 -2.3094 -4
      vertex -27 -2.3094 -4
      vertex -40 -2.3094 -4
    endloop
  endfacet
  facet normal -8.1274e-17 -0.866025 -0.5
    outer loop
      vertex -27 -2.3094 -4
      vertex 27 -2.3094 -4
      vertex 27 -4.6188 2.88658e-15
    endloop
  endfacet
  facet normal -8.1274e-17 -0.866025 -0.5
    outer loop
      vertex -27 -4.6188 -5.9952e-15
      vertex 27 -4.6188 2.88658e-15
      vertex 27 -4.6188 5.9952e-15
    endloop
  endfacet
  facet normal -8.1274e-17 -0.866025 -0.5
    outer loop
      vertex -27 -4.6188 -5.9952e-15
      vertex -27 -2.3094 -4
      vertex 27 -4.6188 2.88658e-15
    endloop
  endfacet
  facet normal 3.03319e-16 0.866025 -0.5
    outer loop
      vertex 27 4.6188 2.88658e-15
      vertex -27 2.3094 -4
      vertex 27 4.6188 5.9952e-15
    endloop
  endfacet
  facet normal 3.03319e-16 0.866025 -0.5
    outer loop
      vertex 27 4.6188 5.9952e-15
      vertex -27 2.3094 -4
      vertex -27 3.4641 -2
    endloop
  endfacet
  facet normal 3.03319e-16 0.866025 -0.5
    outer loop
      vertex 27 4.6188 5.9952e-15
      vertex -27 3.4641 -2
      vertex -27 4.6188 -5.9952e-15
    endloop
  endfacet
  facet normal 3.03319e-16 0.866025 -0.5
    outer loop
      vertex 27 2.3094 -4
      vertex -27 2.3094 -4
      vertex 27 3.4641 -2
    endloop
  endfacet
  facet normal 3.03319e-16 0.866025 -0.5
    outer loop
      vertex -27 2.3094 -4
      vertex 27 4.6188 2.88658e-15
      vertex 27 3.4641 -2
    endloop
  endfacet
  facet normal 3.03319e-16 0.866025 -0.5
    outer loop
      vertex -40 2.3094 -4
      vertex -27 2.3094 -4
      vertex 27 2.3094 -4
    endloop
  endfacet
  facet normal 0.176429 0.85244 -0.492157
    outer loop
      vertex -49 8 -2.03018
      vertex -46.2385 8 -1.04023
      vertex -27 2.3094 -4
    endloop
  endfacet
  facet normal 0.176429 0.85244 -0.492157
    outer loop
      vertex -53 8 -3.4641
      vertex -46.2385 8 -1.04023
      vertex -49 8 -2.03018
    endloop
  endfacet
  facet normal 0.176429 0.85244 -0.492157
    outer loop
      vertex -49 8 -2.03018
      vertex -27 2.3094 -4
      vertex -49 6.86272 -4
    endloop
  endfacet
  facet normal 1 0 0
    outer loop
      vertex -49 8 -2.03018
      vertex -49 6.86272 -4
      vertex -49 8 -4
    endloop
  endfacet
  facet normal 0 1 -2.22045e-16
    outer loop
      vertex -55 8 -1.77636e-15
      vertex -53 8 -1.77636e-15
      vertex -54.8296 8 -1.2941
    endloop
  endfacet
  facet normal 0 1 -2.22045e-16
    outer loop
      vertex -54.8296 8 -1.2941
      vertex -53 8 -1.77636e-15
      vertex -53 8 -2.88658e-15
    endloop
  endfacet
  facet normal 0 1 -2.22045e-16
    outer loop
      vertex -54.8296 8 -1.2941
      vertex -53 8 -2.88658e-15
      vertex -53 8 -3.4641
    endloop
  endfacet
  facet normal 0 1 -2.22045e-16
    outer loop
      vertex -53 8 -3.4641
      vertex -49 8 -2.03018
      vertex -49 8 -4
    endloop
  endfacet
  facet normal 0 1 -2.22045e-16
    outer loop
      vertex -53 8 -3.4641
      vertex -49 8 -4
      vertex -52.9302 8 -4
    endloop
  endfacet
  facet normal 0 1 -2.22045e-16
    outer loop
      vertex -53 8 -3.4641
      vertex -52.9302 8 -4
      vertex -54.8296 8 -1.2941
    endloop
  endfacet
  facet normal 0 1 -2.22045e-16
    outer loop
      vertex -54.8296 8 -1.2941
      vertex -52.9302 8 -4
      vertex -53.5355 8 -3.53553
    endloop
  endfacet
  facet normal 0 1 -2.22045e-16
    outer loop
      vertex -54.8296 8 -1.2941
      vertex -53.5355 8 -3.53553
      vertex -54.3301 8 -2.5
    endloop
  endfacet
  facet normal -0.608761 -1.7616e-16 -0.793353
    outer loop
      vertex -53.5355 5 -3.53553
      vertex -53.5355 8 -3.53553
      vertex -53 5 -3.94646
    endloop
  endfacet
  facet normal -0.608761 -1.7616e-16 -0.793353
    outer loop
      vertex -53 7.72151 -3.94646
      vertex -53.5355 8 -3.53553
      vertex -52.9302 8 -4
    endloop
  endfacet
  facet normal -0.608761 -1.7616e-16 -0.793353
    outer loop
      vertex -53 5 -3.94646
      vertex -53.5355 8 -3.53553
      vertex -53 7.72151 -3.94646
    endloop
  endfacet
  facet normal -0.608761 -1.7616e-16 -0.793353
    outer loop
      vertex -53 7.72151 -3.94646
      vertex -52.9302 8 -4
      vertex -52.9302 7.67616 -4
    endloop
  endfacet
  facet normal 0.176429 0.85244 -0.492157
    outer loop
      vertex -53 7.6906 -4
      vertex -53 7.72151 -3.94646
      vertex -52.9302 7.67616 -4
    endloop
  endfacet
  facet normal -1 0 -2.22045e-16
    outer loop
      vertex -53 5 -3.94646
      vertex -53 7.72151 -3.94646
      vertex -53 5 -4
    endloop
  endfacet
  facet normal -1 0 -2.22045e-16
    outer loop
      vertex -53 5 -4
      vertex -53 7.72151 -3.94646
      vertex -53 7.6906 -4
    endloop
  endfacet
  facet normal -0.353553 -0.866025 -0.353553
    outer loop
      vertex -40.8561 2.1 -4
      vertex -42.1699 2.1 -2.6862
      vertex -42.1699 2.5 -3.66599
    endloop
  endfacet
  facet normal -0.353553 -0.866025 -0.353553
    outer loop
      vertex -42.9762 2.96555 -4
      vertex -40.8561 2.1 -4
      vertex -42.1699 2.5 -3.66599
    endloop
  endfacet
  facet normal -0.707107 -3.6203e-08 -0.707107
    outer loop
      vertex -40.8561 2.1 -4
      vertex -40.8561 -2.1 -4
      vertex -42.1699 2.1 -2.6862
    endloop
  endfacet
  facet normal -0.707107 -3.6203e-08 -0.707107
    outer loop
      vertex -42.1699 2.1 -2.6862
      vertex -40.8561 -2.1 -4
      vertex -42.1699 -2.1 -2.6862
    endloop
  endfacet
  facet normal -0.353553 0.866025 -0.353553
    outer loop
      vertex -42.1699 -2.1 -2.6862
      vertex -40.8561 -2.1 -4
      vertex -42.1699 -2.5 -3.66599
    endloop
  endfacet
  facet normal -0.353553 0.866025 -0.353553
    outer loop
      vertex -42.1699 -2.5 -3.66599
      vertex -40.8561 -2.1 -4
      vertex -42.9762 -2.96555 -4
    endloop
  endfacet
  facet normal -1 1.89222e-09 0
    outer loop
      vertex -42.1699 2.5 -3.66599
      vertex -42.1699 2.1 2.6862
      vertex -42.1699 2.5 3.66599
    endloop
  endfacet
  facet normal -1 1.89222e-09 0
    outer loop
      vertex -42.1699 2.1 -2.6862
      vertex -42.1699 2.1 2.6862
      vertex -42.1699 2.5 -3.66599
    endloop
  endfacet
  facet normal -1 1.89222e-09 0
    outer loop
      vertex -42.1699 -2.1 2.6862
      vertex -42.1699 2.1 2.6862
      vertex -42.1699 2.1 -2.6862
    endloop
  endfacet
  facet normal -1 1.89222e-09 0
    outer loop
      vertex -42.1699 -2.1 2.6862
      vertex -42.1699 -2.1 -2.6862
      vertex -42.1699 -2.5 3.66599
    endloop
  endfacet
  facet normal -1 1.89222e-09 0
    outer loop
      vertex -42.1699 -2.1 -2.6862
      vertex -42.1699 -2.5 -3.66599
      vertex -42.1699 -2.5 3.66599
    endloop
  endfacet
  facet normal -1 1.89222e-09 0
    outer loop
      vertex -42.1699 -2.1 -2.6862
      vertex -42.1699 -2.1 2.6862
      vertex -42.1699 2.1 -2.6862
    endloop
  endfacet
  facet normal -0.92388 -8.49728e-17 -0.382683
    outer loop
      vertex -54.8296 5 -1.2941
      vertex -54.8296 8 -1.2941
      vertex -54.3301 5 -2.5
    endloop
  endfacet
  facet normal -0.92388 -8.49728e-17 -0.382683
    outer loop
      vertex -54.3301 5 -2.5
      vertex -54.8296 8 -1.2941
      vertex -54.3301 8 -2.5
    endloop
  endfacet
  facet normal -0.991445 -2.89827e-17 -0.130526
    outer loop
      vertex -55 5 -1.11022e-15
      vertex -55 8 -1.77636e-15
      vertex -54.8296 5 -1.2941
    endloop
  endfacet
  facet normal -0.991445 -2.89827e-17 -0.130526
    outer loop
      vertex -54.8296 5 -1.2941
      vertex -55 8 -1.77636e-15
      vertex -54.8296 8 -1.2941
    endloop
  endfacet
  facet normal -0.991445 2.89827e-17 0.130526
    outer loop
      vertex -55 5 -1.11022e-15
      vertex -54.8296 5 1.29409
      vertex -55 8 -1.77636e-15
    endloop
  endfacet
  facet normal -0.991445 2.89827e-17 0.130526
    outer loop
      vertex -55 8 -1.77636e-15
      vertex -54.8296 5 1.29409
      vertex -54.8296 8 1.29409
    endloop
  endfacet
  facet normal -0.92388 8.49728e-17 0.382683
    outer loop
      vertex -54.8296 5 1.29409
      vertex -54.3301 5 2.5
      vertex -54.8296 8 1.29409
    endloop
  endfacet
  facet normal -0.92388 8.49728e-17 0.382683
    outer loop
      vertex -54.8296 8 1.29409
      vertex -54.3301 5 2.5
      vertex -54.3301 8 2.5
    endloop
  endfacet
  facet normal -0.793353 1.35172e-16 0.608761
    outer loop
      vertex -54.3301 5 2.5
      vertex -53.5355 5 3.53553
      vertex -54.3301 8 2.5
    endloop
  endfacet
  facet normal -0.793353 1.35172e-16 0.608761
    outer loop
      vertex -54.3301 8 2.5
      vertex -53.5355 5 3.53553
      vertex -53.5355 8 3.53553
    endloop
  endfacet
  facet normal -0.793353 -1.35172e-16 -0.608761
    outer loop
      vertex -54.3301 5 -2.5
      vertex -54.3301 8 -2.5
      vertex -53.5355 5 -3.53553
    endloop
  endfacet
  facet normal -0.793353 -1.35172e-16 -0.608761
    outer loop
      vertex -53.5355 5 -3.53553
      vertex -54.3301 8 -2.5
      vertex -53.5355 8 -3.53553
    endloop
  endfacet
  facet normal 0.965926 -5.74693e-17 -0.258819
    outer loop
      vertex -51.8 8 -1.77636e-15
      vertex -51.5588 8 0.9
      vertex -51.5588 5 0.9
    endloop
  endfacet
  facet normal 0.965926 -5.74693e-17 -0.258819
    outer loop
      vertex -51.8 5 -1.11022e-15
      vertex -51.8 8 -1.77636e-15
      vertex -51.5588 5 0.9
    endloop
  endfacet
  facet normal 0.965926 5.74693e-17 0.258819
    outer loop
      vertex -51.5588 5 -0.9
      vertex -51.5588 8 -0.9
      vertex -51.8 8 -1.77636e-15
    endloop
  endfacet
  facet normal 0.965926 5.74693e-17 0.258819
    outer loop
      vertex -51.8 5 -1.11022e-15
      vertex -51.5588 5 -0.9
      vertex -51.8 8 -1.77636e-15
    endloop
  endfacet
  facet normal 0.707107 1.57009e-16 0.707107
    outer loop
      vertex -50.9 5 -1.55885
      vertex -50.9 8 -1.55885
      vertex -51.5588 8 -0.9
    endloop
  endfacet
  facet normal 0.707107 1.57009e-16 0.707107
    outer loop
      vertex -51.5588 5 -0.9
      vertex -50.9 5 -1.55885
      vertex -51.5588 8 -0.9
    endloop
  endfacet
  facet normal 0.258819 2.14479e-16 0.965926
    outer loop
      vertex -50 5 -1.8
      vertex -50 8 -1.8
      vertex -50.9 8 -1.55885
    endloop
  endfacet
  facet normal 0.258819 2.14479e-16 0.965926
    outer loop
      vertex -50.9 5 -1.55885
      vertex -50 5 -1.8
      vertex -50.9 8 -1.55885
    endloop
  endfacet
  facet normal -0.258819 2.14479e-16 0.965926
    outer loop
      vertex -49.1 5 -1.55885
      vertex -49.1 8 -1.55885
      vertex -50 8 -1.8
    endloop
  endfacet
  facet normal -0.258819 2.14479e-16 0.965926
    outer loop
      vertex -50 5 -1.8
      vertex -49.1 5 -1.55885
      vertex -50 8 -1.8
    endloop
  endfacet
  facet normal -0.707107 1.57009e-16 0.707107
    outer loop
      vertex -48.4412 8 -0.9
      vertex -49.1 8 -1.55885
      vertex -48.4412 5 -0.9
    endloop
  endfacet
  facet normal -0.707107 1.57009e-16 0.707107
    outer loop
      vertex -48.4412 5 -0.9
      vertex -49.1 8 -1.55885
      vertex -49.1 5 -1.55885
    endloop
  endfacet
  facet normal -0.965926 5.74693e-17 0.258819
    outer loop
      vertex -48.2 8 -1.77636e-15
      vertex -48.4412 8 -0.9
      vertex -48.2 5 -1.11022e-15
    endloop
  endfacet
  facet normal -0.965926 5.74693e-17 0.258819
    outer loop
      vertex -48.2 5 -1.11022e-15
      vertex -48.4412 8 -0.9
      vertex -48.4412 5 -0.9
    endloop
  endfacet
  facet normal -0.965926 -5.74693e-17 -0.258819
    outer loop
      vertex -48.2 8 -1.77636e-15
      vertex -48.2 5 -1.11022e-15
      vertex -48.4412 8 0.9
    endloop
  endfacet
  facet normal -0.965926 -5.74693e-17 -0.258819
    outer loop
      vertex -48.4412 8 0.9
      vertex -48.2 5 -1.11022e-15
      vertex -48.4412 5 0.9
    endloop
  endfacet
  facet normal -0.707107 -1.57009e-16 -0.707107
    outer loop
      vertex -48.4412 8 0.9
      vertex -48.4412 5 0.9
      vertex -49.1 8 1.55885
    endloop
  endfacet
  facet normal -0.707107 -1.57009e-16 -0.707107
    outer loop
      vertex -49.1 8 1.55885
      vertex -48.4412 5 0.9
      vertex -49.1 5 1.55885
    endloop
  endfacet
  facet normal -0.258819 -2.14479e-16 -0.965926
    outer loop
      vertex -49.1 8 1.55885
      vertex -49.1 5 1.55885
      vertex -50 8 1.8
    endloop
  endfacet
  facet normal -0.258819 -2.14479e-16 -0.965926
    outer loop
      vertex -50 8 1.8
      vertex -49.1 5 1.55885
      vertex -50 5 1.8
    endloop
  endfacet
  facet normal 0.258819 -2.14479e-16 -0.965926
    outer loop
      vertex -50 8 1.8
      vertex -50 5 1.8
      vertex -50.9 8 1.55885
    endloop
  endfacet
  facet normal 0.258819 -2.14479e-16 -0.965926
    outer loop
      vertex -50.9 8 1.55885
      vertex -50 5 1.8
      vertex -50.9 5 1.55885
    endloop
  endfacet
  facet normal 0.707107 -1.57009e-16 -0.707107
    outer loop
      vertex -51.5588 8 0.9
      vertex -50.9 8 1.55885
      vertex -50.9 5 1.55885
    endloop
  endfacet
  facet normal 0.707107 -1.57009e-16 -0.707107
    outer loop
      vertex -51.5588 5 0.9
      vertex -51.5588 8 0.9
      vertex -50.9 5 1.55885
    endloop
  endfacet
  facet normal 0.176429 0.85244 -0.492157
    outer loop
      vertex -46.2385 8 -1.04023
      vertex -43.3367 8 1.28168e-08
      vertex -27 2.3094 -4
    endloop
  endfacet
  facet normal 0.176429 0.85244 -0.492157
    outer loop
      vertex -27 2.3094 -4
      vertex -43.3367 8 1.28168e-08
      vertex -27 4.6188 6.64748e-08
    endloop
  endfacet
  facet normal 0.176429 0.85244 -0.492157
    outer loop
      vertex -27 2.3094 -4
      vertex -27 4.6188 6.64748e-08
      vertex -27 4.6188 2.88658e-15
    endloop
  endfacet
  facet normal 0.176429 0.85244 -0.492157
    outer loop
      vertex -27 2.3094 -4
      vertex -27 4.6188 2.88658e-15
      vertex -27 3.4641 -2
    endloop
  endfacet
  facet normal 1 0 2.22045e-16
    outer loop
      vertex -27 4.6188 2.88658e-15
      vertex -27 4.6188 6.64748e-08
      vertex -27 2.3094 4
    endloop
  endfacet
  facet normal 8.1274e-17 0.866025 0.5
    outer loop
      vertex -27 2.3094 4
      vertex 40 2.3094 4
      vertex 27 2.3094 4
    endloop
  endfacet
  facet normal 8.1274e-17 0.866025 0.5
    outer loop
      vertex -27 2.3094 4
      vertex 27 2.3094 4
      vertex 27 4.6188 5.9952e-15
    endloop
  endfacet
  facet normal 8.1274e-17 0.866025 0.5
    outer loop
      vertex -27 4.6188 2.88658e-15
      vertex 27 4.6188 5.9952e-15
      vertex -27 4.6188 -5.9952e-15
    endloop
  endfacet
  facet normal 8.1274e-17 0.866025 0.5
    outer loop
      vertex -27 2.3094 4
      vertex 27 4.6188 5.9952e-15
      vertex -27 4.6188 2.88658e-15
    endloop
  endfacet
  facet normal -2.22045e-16 4.93038e-32 1
    outer loop
      vertex -27 2.3094 4
      vertex -27 -2.3094 4
      vertex 40 -2.3094 4
    endloop
  endfacet
  facet normal -2.22045e-16 4.93038e-32 1
    outer loop
      vertex 40 2.3094 4
      vertex -27 2.3094 4
      vertex 40 -2.3094 4
    endloop
  endfacet
  facet normal 0 0 1
    outer loop
      vertex 40.8561 -2.1 4
      vertex 40 2.3094 4
      vertex 40 -2.3094 4
    endloop
  endfacet
  facet normal 0 0 1
    outer loop
      vertex 27 2.3094 4
      vertex 40 2.3094 4
      vertex 42.9762 2.96555 4
    endloop
  endfacet
  facet normal 0 0 1
    outer loop
      vertex 27 -2.3094 4
      vertex 49 -6.86272 4
      vertex 40 -2.3094 4
    endloop
  endfacet
  facet normal 0 0 1
    outer loop
      vertex 49 -8 4
      vertex 52.9302 -8 4
      vertex 49 -6.86272 4
    endloop
  endfacet
  facet normal 0 0 1
    outer loop
      vertex 40.8561 -2.1 4
      vertex 40.8561 2.1 4
      vertex 40 2.3094 4
    endloop
  endfacet
  facet normal 0 0 1
    outer loop
      vertex 40.8561 2.1 4
      vertex 42.9762 2.96555 4
      vertex 40 2.3094 4
    endloop
  endfacet
  facet normal 0 0 1
    outer loop
      vertex 49 -6.86272 4
      vertex 46.5 -5 4
      vertex 40 -2.3094 4
    endloop
  endfacet
  facet normal 0 0 1
    outer loop
      vertex 46.5 -5 4
      vertex 42.9762 -2.96555 4
      vertex 40 -2.3094 4
    endloop
  endfacet
  facet normal 0 0 1
    outer loop
      vertex 42.9762 -2.96555 4
      vertex 40.8561 -2.1 4
      vertex 40 -2.3094 4
    endloop
  endfacet
  facet normal 0 0 1
    outer loop
      vertex 42.9762 2.96555 4
      vertex 46.5 5 4
      vertex 27 2.3094 4
    endloop
  endfacet
  facet normal 0 0 1
    outer loop
      vertex 46.5 5 4
      vertex 53 7.6906 4
      vertex 27 2.3094 4
    endloop
  endfacet
  facet normal 0 0 1
    outer loop
      vertex 53 5 4
      vertex 53 7.6906 4
      vertex 46.5 5 4
    endloop
  endfacet
  facet normal 0 0 1
    outer loop
      vertex 53 7.6906 4
      vertex 52.9302 7.67616 4
      vertex 27 2.3094 4
    endloop
  endfacet
  facet normal 0 0 1
    outer loop
      vertex 52.9302 7.67616 4
      vertex 49 6.86272 4
      vertex 27 2.3094 4
    endloop
  endfacet
  facet normal 0 0 1
    outer loop
      vertex 52.9302 7.67616 4
      vertex 52.9302 8 4
      vertex 49 6.86272 4
    endloop
  endfacet
  facet normal 0 0 1
    outer loop
      vertex 49 8 4
      vertex 49 6.86272 4
      vertex 52.9302 8 4
    endloop
  endfacet
  facet normal 0 0 1
    outer loop
      vertex 53 -5 4
      vertex 52.9302 -7.67616 4
      vertex 53 -7.6906 4
    endloop
  endfacet
  facet normal 0 0 1
    outer loop
      vertex 52.9302 -7.67616 4
      vertex 49 -6.86272 4
      vertex 52.9302 -8 4
    endloop
  endfacet
  facet normal 0 0 1
    outer loop
      vertex 53 -5 4
      vertex 49 -6.86272 4
      vertex 52.9302 -7.67616 4
    endloop
  endfacet
  facet normal 0 0 1
    outer loop
      vertex 53 -5 4
      vertex 46.5 -5 4
      vertex 49 -6.86272 4
    endloop
  endfacet
  facet normal -0.176429 -0.85244 0.492157
    outer loop
      vertex 49 -6.86272 4
      vertex 46.2385 -8 1.04023
      vertex 49 -8 2.03018
    endloop
  endfacet
  facet normal -0.176429 -0.85244 0.492157
    outer loop
      vertex 49 -8 2.03018
      vertex 46.2385 -8 1.04023
      vertex 53 -8 3.4641
    endloop
  endfacet
  facet normal -0.176429 -0.85244 0.492157
    outer loop
      vertex 27 -2.3094 4
      vertex 46.2385 -8 1.04023
      vertex 49 -6.86272 4
    endloop
  endfacet
  facet normal -0.176429 -0.85244 0.492157
    outer loop
      vertex 43.3367 -8 -1.28168e-08
      vertex 46.2385 -8 1.04023
      vertex 27 -2.3094 4
    endloop
  endfacet
  facet normal -0.176429 -0.85244 0.492157
    outer loop
      vertex 27 -4.6188 2.88658e-15
      vertex 43.3367 -8 -1.28168e-08
      vertex 27 -3.4641 2
    endloop
  endfacet
  facet normal -0.176429 -0.85244 0.492157
    outer loop
      vertex 27 -3.4641 2
      vertex 43.3367 -8 -1.28168e-08
      vertex 27 -2.3094 4
    endloop
  endfacet
  facet normal -0.176429 -0.85244 0.492157
    outer loop
      vertex 27 -4.6188 -6.64748e-08
      vertex 43.3367 -8 -1.28168e-08
      vertex 27 -4.6188 2.88658e-15
    endloop
  endfacet
  facet normal -1 0 2.22045e-16
    outer loop
      vertex 27 -4.6188 5.9952e-15
      vertex 27 -4.6188 2.88658e-15
      vertex 27 -3.4641 2
    endloop
  endfacet
  facet normal -1 0 0
    outer loop
      vertex 27 -4.6188 2.88658e-15
      vertex 27 -2.3094 -4
      vertex 27 -4.6188 -6.64748e-08
    endloop
  endfacet
  facet normal 2.22045e-16 -4.93038e-32 -1
    outer loop
      vertex -40 -2.3094 -4
      vertex -40 2.3094 -4
      vertex 27 -2.3094 -4
    endloop
  endfacet
  facet normal 2.22045e-16 -4.93038e-32 -1
    outer loop
      vertex 27 -2.3094 -4
      vertex -40 2.3094 -4
      vertex 27 2.3094 -4
    endloop
  endfacet
  facet normal -0.176429 0.85244 -0.492157
    outer loop
      vertex 46.2385 8 -1.04023
      vertex 53 8 -3.4641
      vertex 49 8 -2.03018
    endloop
  endfacet
  facet normal -0.176429 0.85244 -0.492157
    outer loop
      vertex 46.2385 8 -1.04023
      vertex 49 8 -2.03018
      vertex 49 6.86272 -4
    endloop
  endfacet
  facet normal -0.176429 0.85244 -0.492157
    outer loop
      vertex 46.2385 8 -1.04023
      vertex 49 6.86272 -4
      vertex 27 2.3094 -4
    endloop
  endfacet
  facet normal -0.176429 0.85244 -0.492157
    outer loop
      vertex 27 4.6188 6.64748e-08
      vertex 43.3367 8 1.28168e-08
      vertex 27 4.6188 2.88658e-15
    endloop
  endfacet
  facet normal -0.176429 0.85244 -0.492157
    outer loop
      vertex 27 4.6188 2.88658e-15
      vertex 43.3367 8 1.28168e-08
      vertex 46.2385 8 -1.04023
    endloop
  endfacet
  facet normal -0.176429 0.85244 -0.492157
    outer loop
      vertex 27 4.6188 2.88658e-15
      vertex 46.2385 8 -1.04023
      vertex 27 2.3094 -4
    endloop
  endfacet
  facet normal -0.176429 0.85244 -0.492157
    outer loop
      vertex 27 4.6188 2.88658e-15
      vertex 27 2.3094 -4
      vertex 27 3.4641 -2
    endloop
  endfacet
  facet normal -1 0 2.22045e-16
    outer loop
      vertex 27 4.6188 5.9952e-15
      vertex 27 2.3094 4
      vertex 27 4.6188 6.64748e-08
    endloop
  endfacet
  facet normal -1 0 2.22045e-16
    outer loop
      vertex 27 4.6188 5.9952e-15
      vertex 27 4.6188 6.64748e-08
      vertex 27 4.6188 2.88658e-15
    endloop
  endfacet
  facet normal 1 0 0
    outer loop
      vertex -27 4.6188 -5.9952e-15
      vertex -27 3.4641 -2
      vertex -27 4.6188 2.88658e-15
    endloop
  endfacet
  facet normal -0.176429 0.85244 0.492157
    outer loop
      vertex 27 2.3094 4
      vertex 49 6.86272 4
      vertex 49 8 2.03018
    endloop
  endfacet
  facet normal -0.176429 0.85244 0.492157
    outer loop
      vertex 27 2.3094 4
      vertex 49 8 2.03018
      vertex 43.3367 8 1.28168e-08
    endloop
  endfacet
  facet normal -0.176429 0.85244 0.492157
    outer loop
      vertex 27 2.3094 4
      vertex 43.3367 8 1.28168e-08
      vertex 27 4.6188 6.64748e-08
    endloop
  endfacet
  facet normal -1 0 0
    outer loop
      vertex 49 8 4
      vertex 49 8 2.03018
      vertex 49 6.86272 4
    endloop
  endfacet
  facet normal 0 1 0
    outer loop
      vertex 49 8 4
      vertex 52.9302 8 4
      vertex 49 8 2.03018
    endloop
  endfacet
  facet normal 0 1 0
    outer loop
      vertex 49 8 2.03018
      vertex 52.9302 8 4
      vertex 53.5355 8 3.53553
    endloop
  endfacet
  facet normal 0 1 0
    outer loop
      vertex 49 8 2.03018
      vertex 53.5355 8 3.53553
      vertex 54.3301 8 2.5
    endloop
  endfacet
  facet normal 0 1 0
    outer loop
      vertex 49 8 2.03018
      vertex 54.3301 8 2.5
      vertex 54.8296 8 1.29409
    endloop
  endfacet
  facet normal 0 1 0
    outer loop
      vertex 50.9 8 1.55885
      vertex 54.8296 8 1.29409
      vertex 55 8 -1.77636e-15
    endloop
  endfacet
  facet normal 0 1 0
    outer loop
      vertex 51.5588 8 0.9
      vertex 55 8 -1.77636e-15
      vertex 53 8 -1.77636e-15
    endloop
  endfacet
  facet normal 0 1 0
    outer loop
      vertex 51.5588 8 -0.9
      vertex 53 8 -2.88658e-15
      vertex 53 8 -3.4641
    endloop
  endfacet
  facet normal 0 1 0
    outer loop
      vertex 49.1 8 -1.55885
      vertex 53 8 -3.4641
      vertex 46.2385 8 -1.04023
    endloop
  endfacet
  facet normal 0 1 0
    outer loop
      vertex 50.9 8 -1.55885
      vertex 53 8 -3.4641
      vertex 50 8 -1.8
    endloop
  endfacet
  facet normal 0 1 0
    outer loop
      vertex 51.5588 8 -0.9
      vertex 53 8 -3.4641
      vertex 50.9 8 -1.55885
    endloop
  endfacet
  facet normal 0 1 0
    outer loop
      vertex 48.2 8 -1.77636e-15
      vertex 48.4412 8 -0.9
      vertex 46.2385 8 -1.04023
    endloop
  endfacet
  facet normal 0 1 0
    outer loop
      vertex 50 8 -1.8
      vertex 53 8 -3.4641
      vertex 49.1 8 -1.55885
    endloop
  endfacet
  facet normal 0 1 0
    outer loop
      vertex 48.4412 8 -0.9
      vertex 49.1 8 -1.55885
      vertex 46.2385 8 -1.04023
    endloop
  endfacet
  facet normal 0 1 0
    outer loop
      vertex 51.5588 8 0.9
      vertex 53 8 -2.88658e-15
      vertex 51.8 8 -1.77636e-15
    endloop
  endfacet
  facet normal 0 1 0
    outer loop
      vertex 51.8 8 -1.77636e-15
      vertex 53 8 -2.88658e-15
      vertex 51.5588 8 -0.9
    endloop
  endfacet
  facet normal 0 1 0
    outer loop
      vertex 51.5588 8 0.9
      vertex 53 8 -1.77636e-15
      vertex 53 8 -2.88658e-15
    endloop
  endfacet
  facet normal 0 1 0
    outer loop
      vertex 50.9 8 1.55885
      vertex 55 8 -1.77636e-15
      vertex 51.5588 8 0.9
    endloop
  endfacet
  facet normal 0 1 0
    outer loop
      vertex 50 8 1.8
      vertex 54.8296 8 1.29409
      vertex 50.9 8 1.55885
    endloop
  endfacet
  facet normal 0 1 0
    outer loop
      vertex 49.1 8 1.55885
      vertex 49 8 2.03018
      vertex 50 8 1.8
    endloop
  endfacet
  facet normal 0 1 0
    outer loop
      vertex 49 8 2.03018
      vertex 54.8296 8 1.29409
      vertex 50 8 1.8
    endloop
  endfacet
  facet normal 0 1 0
    outer loop
      vertex 48.4412 8 0.9
      vertex 49 8 2.03018
      vertex 49.1 8 1.55885
    endloop
  endfacet
  facet normal 0 1 0
    outer loop
      vertex 49 8 2.03018
      vertex 48.4412 8 0.9
      vertex 46.2385 8 -1.04023
    endloop
  endfacet
  facet normal 0 1 0
    outer loop
      vertex 48.4412 8 0.9
      vertex 48.2 8 -1.77636e-15
      vertex 46.2385 8 -1.04023
    endloop
  endfacet
  facet normal 0 1 0
    outer loop
      vertex 49 8 2.03018
      vertex 46.2385 8 -1.04023
      vertex 43.3367 8 1.28168e-08
    endloop
  endfacet
  facet normal 0.608761 1.7616e-16 0.793353
    outer loop
      vertex 53.5355 5 3.53553
      vertex 53 7.72151 3.94646
      vertex 53 5 3.94646
    endloop
  endfacet
  facet normal 0.608761 1.7616e-16 0.793353
    outer loop
      vertex 53.5355 8 3.53553
      vertex 53 7.72151 3.94646
      vertex 53.5355 5 3.53553
    endloop
  endfacet
  facet normal 0.608761 1.7616e-16 0.793353
    outer loop
      vertex 52.9302 7.67616 4
      vertex 53 7.72151 3.94646
      vertex 52.9302 8 4
    endloop
  endfacet
  facet normal 0.608761 1.7616e-16 0.793353
    outer loop
      vertex 52.9302 8 4
      vertex 53 7.72151 3.94646
      vertex 53.5355 8 3.53553
    endloop
  endfacet
  facet normal -0.176429 0.85244 0.492157
    outer loop
      vertex 53 7.6906 4
      vertex 53 7.72151 3.94646
      vertex 52.9302 7.67616 4
    endloop
  endfacet
  facet normal 1 0 0
    outer loop
      vertex 53 7.72151 3.94646
      vertex 53 7.6906 4
      vertex 53 5 4
    endloop
  endfacet
  facet normal 1 0 0
    outer loop
      vertex 53 5 3.94646
      vertex 53 7.72151 3.94646
      vertex 53 5 4
    endloop
  endfacet
  facet normal 0 -1 0
    outer loop
      vertex 49.1 5 -1.55885
      vertex 46.5 5 -4
      vertex 53 5 -4
    endloop
  endfacet
  facet normal 0 -1 0
    outer loop
      vertex 51.5588 5 -0.9
      vertex 53 5 -3.94646
      vertex 53.5355 5 -3.53553
    endloop
  endfacet
  facet normal 0 -1 0
    outer loop
      vertex 51.5588 5 -0.9
      vertex 53 5 -4
      vertex 53 5 -3.94646
    endloop
  endfacet
  facet normal 0 -1 0
    outer loop
      vertex 54.8296 5 1.29409
      vertex 46.5 5 4
      vertex 55 5 -1.11022e-15
    endloop
  endfacet
  facet normal 0 -1 0
    outer loop
      vertex 54.3301 5 2.5
      vertex 46.5 5 4
      vertex 54.8296 5 1.29409
    endloop
  endfacet
  facet normal 0 -1 0
    outer loop
      vertex 53.5355 5 3.53553
      vertex 46.5 5 4
      vertex 54.3301 5 2.5
    endloop
  endfacet
  facet normal 0 -1 0
    outer loop
      vertex 53 5 3.94646
      vertex 46.5 5 4
      vertex 53.5355 5 3.53553
    endloop
  endfacet
  facet normal 0 -1 0
    outer loop
      vertex 53 5 4
      vertex 46.5 5 4
      vertex 53 5 3.94646
    endloop
  endfacet
  facet normal 0 -1 0
    outer loop
      vertex 46.5 5 4
      vertex 46.5 5 -4
      vertex 48.4412 5 -0.9
    endloop
  endfacet
  facet normal 0 -1 0
    outer loop
      vertex 50 5 -1.8
      vertex 49.1 5 -1.55885
      vertex 53 5 -4
    endloop
  endfacet
  facet normal 0 -1 0
    outer loop
      vertex 46.5 5 4
      vertex 48.4412 5 -0.9
      vertex 48.2 5 -1.11022e-15
    endloop
  endfacet
  facet normal 0 -1 0
    outer loop
      vertex 46.5 5 4
      vertex 48.2 5 -1.11022e-15
      vertex 48.4412 5 0.9
    endloop
  endfacet
  facet normal 0 -1 0
    outer loop
      vertex 51.5588 5 -0.9
      vertex 50.9 5 -1.55885
      vertex 53 5 -4
    endloop
  endfacet
  facet normal 0 -1 0
    outer loop
      vertex 51.8 5 -1.11022e-15
      vertex 51.5588 5 -0.9
      vertex 54.3301 5 -2.5
    endloop
  endfacet
  facet normal 0 -1 0
    outer loop
      vertex 50.9 5 1.55885
      vertex 46.5 5 4
      vertex 50 5 1.8
    endloop
  endfacet
  facet normal 0 -1 0
    outer loop
      vertex 51.5588 5 0.9
      vertex 51.8 5 -1.11022e-15
      vertex 54.8296 5 -1.2941
    endloop
  endfacet
  facet normal 0 -1 0
    outer loop
      vertex 55 5 -1.11022e-15
      vertex 46.5 5 4
      vertex 50.9 5 1.55885
    endloop
  endfacet
  facet normal 0 -1 0
    outer loop
      vertex 55 5 -1.11022e-15
      vertex 51.5588 5 0.9
      vertex 54.8296 5 -1.2941
    endloop
  endfacet
  facet normal 0 -1 0
    outer loop
      vertex 54.8296 5 -1.2941
      vertex 51.8 5 -1.11022e-15
      vertex 54.3301 5 -2.5
    endloop
  endfacet
  facet normal 0 -1 0
    outer loop
      vertex 50.9 5 1.55885
      vertex 51.5588 5 0.9
      vertex 55 5 -1.11022e-15
    endloop
  endfacet
  facet normal 0 -1 0
    outer loop
      vertex 54.3301 5 -2.5
      vertex 51.5588 5 -0.9
      vertex 53.5355 5 -3.53553
    endloop
  endfacet
  facet normal 0 -1 0
    outer loop
      vertex 49.1 5 1.55885
      vertex 50 5 1.8
      vertex 46.5 5 4
    endloop
  endfacet
  facet normal 0 -1 0
    outer loop
      vertex 48.4412 5 -0.9
      vertex 46.5 5 -4
      vertex 49.1 5 -1.55885
    endloop
  endfacet
  facet normal 0 -1 0
    outer loop
      vertex 50.9 5 -1.55885
      vertex 50 5 -1.8
      vertex 53 5 -4
    endloop
  endfacet
  facet normal 0 -1 0
    outer loop
      vertex 48.4412 5 0.9
      vertex 49.1 5 1.55885
      vertex 46.5 5 4
    endloop
  endfacet
  facet normal 0.5 -0.866025 0
    outer loop
      vertex 42.1699 2.5 3.66599
      vertex 42.1699 2.5 -3.66599
      vertex 42.9762 2.96555 -4
    endloop
  endfacet
  facet normal 0.5 -0.866025 0
    outer loop
      vertex 46.5 5 4
      vertex 42.1699 2.5 3.66599
      vertex 46.5 5 -4
    endloop
  endfacet
  facet normal 0.5 -0.866025 0
    outer loop
      vertex 46.5 5 -4
      vertex 42.1699 2.5 3.66599
      vertex 42.9762 2.96555 -4
    endloop
  endfacet
  facet normal 0.5 -0.866025 0
    outer loop
      vertex 42.9762 2.96555 4
      vertex 42.1699 2.5 3.66599
      vertex 46.5 5 4
    endloop
  endfacet
  facet normal 0.353553 -0.866025 0.353553
    outer loop
      vertex 42.1699 2.5 3.66599
      vertex 40.8561 2.1 4
      vertex 42.1699 2.1 2.6862
    endloop
  endfacet
  facet normal 0.353553 -0.866025 0.353553
    outer loop
      vertex 42.9762 2.96555 4
      vertex 40.8561 2.1 4
      vertex 42.1699 2.5 3.66599
    endloop
  endfacet
  facet normal 0.707107 -3.6203e-08 0.707107
    outer loop
      vertex 40.8561 2.1 4
      vertex 40.8561 -2.1 4
      vertex 42.1699 -2.1 2.6862
    endloop
  endfacet
  facet normal 0.707107 -3.6203e-08 0.707107
    outer loop
      vertex 42.1699 2.1 2.6862
      vertex 40.8561 2.1 4
      vertex 42.1699 -2.1 2.6862
    endloop
  endfacet
  facet normal 0.353553 0.866025 0.353553
    outer loop
      vertex 40.8561 -2.1 4
      vertex 42.1699 -2.5 3.66599
      vertex 42.1699 -2.1 2.6862
    endloop
  endfacet
  facet normal 0.353553 0.866025 0.353553
    outer loop
      vertex 40.8561 -2.1 4
      vertex 42.9762 -2.96555 4
      vertex 42.1699 -2.5 3.66599
    endloop
  endfacet
  facet normal 0.5 0.866025 0
    outer loop
      vertex 42.1699 -2.5 -3.66599
      vertex 42.1699 -2.5 3.66599
      vertex 42.9762 -2.96555 -4
    endloop
  endfacet
  facet normal 0.5 0.866025 0
    outer loop
      vertex 42.9762 -2.96555 -4
      vertex 42.1699 -2.5 3.66599
      vertex 42.9762 -2.96555 4
    endloop
  endfacet
  facet normal 0.5 0.866025 0
    outer loop
      vertex 42.9762 -2.96555 -4
      vertex 42.9762 -2.96555 4
      vertex 46.5 -5 4
    endloop
  endfacet
  facet normal 0.5 0.866025 0
    outer loop
      vertex 42.9762 -2.96555 -4
      vertex 46.5 -5 4
      vertex 46.5 -5 -4
    endloop
  endfacet
  facet normal 0 1 0
    outer loop
      vertex 50.9 -5 1.55885
      vertex 46.5 -5 4
      vertex 53 -5 4
    endloop
  endfacet
  facet normal 0 1 0
    outer loop
      vertex 53 -5 -4
      vertex 53 -5 4
      vertex 53 -5 3.94646
    endloop
  endfacet
  facet normal 0 1 0
    outer loop
      vertex 53 -5 -3.94646
      vertex 53 -5 3.94646
      vertex 53.5355 -5 3.53553
    endloop
  endfacet
  facet normal 0 1 0
    outer loop
      vertex 53 -5 -4
      vertex 53 -5 3.94646
      vertex 53 -5 -3.94646
    endloop
  endfacet
  facet normal 0 1 0
    outer loop
      vertex 50 -5 -1.8
      vertex 53 -5 -4
      vertex 49.1 -5 -1.55885
    endloop
  endfacet
  facet normal 0 1 0
    outer loop
      vertex 46.5 -5 -4
      vertex 46.5 -5 4
      vertex 48.2 -5 1.11022e-15
    endloop
  endfacet
  facet normal 0 1 0
    outer loop
      vertex 46.5 -5 -4
      vertex 48.2 -5 1.11022e-15
      vertex 48.4412 -5 -0.9
    endloop
  endfacet
  facet normal 0 1 0
    outer loop
      vertex 46.5 -5 -4
      vertex 48.4412 -5 -0.9
      vertex 49.1 -5 -1.55885
    endloop
  endfacet
  facet normal 0 1 0
    outer loop
      vertex 46.5 -5 -4
      vertex 49.1 -5 -1.55885
      vertex 53 -5 -4
    endloop
  endfacet
  facet normal 0 1 0
    outer loop
      vertex 50.9 -5 -1.55885
      vertex 53 -5 -4
      vertex 50 -5 -1.8
    endloop
  endfacet
  facet normal 0 1 0
    outer loop
      vertex 51.5588 -5 -0.9
      vertex 53 -5 -4
      vertex 50.9 -5 -1.55885
    endloop
  endfacet
  facet normal 0 1 0
    outer loop
      vertex 50 -5 1.8
      vertex 46.5 -5 4
      vertex 50.9 -5 1.55885
    endloop
  endfacet
  facet normal 0 1 0
    outer loop
      vertex 53 -5 -4
      vertex 51.5588 -5 -0.9
      vertex 53 -5 4
    endloop
  endfacet
  facet normal 0 1 0
    outer loop
      vertex 48.4412 -5 0.9
      vertex 46.5 -5 4
      vertex 49.1 -5 1.55885
    endloop
  endfacet
  facet normal 0 1 0
    outer loop
      vertex 51.5588 -5 -0.9
      vertex 51.8 -5 1.11022e-15
      vertex 53 -5 4
    endloop
  endfacet
  facet normal 0 1 0
    outer loop
      vertex 49.1 -5 1.55885
      vertex 46.5 -5 4
      vertex 50 -5 1.8
    endloop
  endfacet
  facet normal 0 1 0
    outer loop
      vertex 51.8 -5 1.11022e-15
      vertex 51.5588 -5 0.9
      vertex 53 -5 4
    endloop
  endfacet
  facet normal 0 1 0
    outer loop
      vertex 51.5588 -5 0.9
      vertex 50.9 -5 1.55885
      vertex 53 -5 4
    endloop
  endfacet
  facet normal 0 1 0
    outer loop
      vertex 48.2 -5 1.11022e-15
      vertex 46.5 -5 4
      vertex 48.4412 -5 0.9
    endloop
  endfacet
  facet normal 0 1 0
    outer loop
      vertex 53 -5 -3.94646
      vertex 53.5355 -5 3.53553
      vertex 54.3301 -5 2.5
    endloop
  endfacet
  facet normal 0 1 0
    outer loop
      vertex 53 -5 -3.94646
      vertex 54.3301 -5 2.5
      vertex 54.8296 -5 1.2941
    endloop
  endfacet
  facet normal 0 1 0
    outer loop
      vertex 53 -5 -3.94646
      vertex 54.8296 -5 1.2941
      vertex 55 -5 1.11022e-15
    endloop
  endfacet
  facet normal 0 1 0
    outer loop
      vertex 53 -5 -3.94646
      vertex 55 -5 1.11022e-15
      vertex 54.8296 -5 -1.29409
    endloop
  endfacet
  facet normal 0 1 0
    outer loop
      vertex 53 -5 -3.94646
      vertex 54.8296 -5 -1.29409
      vertex 54.3301 -5 -2.5
    endloop
  endfacet
  facet normal 0 1 0
    outer loop
      vertex 53 -5 -3.94646
      vertex 54.3301 -5 -2.5
      vertex 53.5355 -5 -3.53553
    endloop
  endfacet
  facet normal 1 0 0
    outer loop
      vertex 53 -5 3.94646
      vertex 53 -5 4
      vertex 53 -7.6906 4
    endloop
  endfacet
  facet normal 1 0 0
    outer loop
      vertex 53 -7.72151 3.94646
      vertex 53 -5 3.94646
      vertex 53 -7.6906 4
    endloop
  endfacet
  facet normal -0.176429 -0.85244 0.492157
    outer loop
      vertex 53 -7.72151 3.94646
      vertex 53 -7.6906 4
      vertex 52.9302 -7.67616 4
    endloop
  endfacet
  facet normal 0.608761 1.7616e-16 0.793353
    outer loop
      vertex 53 -7.72151 3.94646
      vertex 53.5355 -8 3.53553
      vertex 53.5355 -5 3.53553
    endloop
  endfacet
  facet normal 0.608761 1.7616e-16 0.793353
    outer loop
      vertex 53 -7.72151 3.94646
      vertex 52.9302 -7.67616 4
      vertex 52.9302 -8 4
    endloop
  endfacet
  facet normal 0.608761 1.7616e-16 0.793353
    outer loop
      vertex 52.9302 -8 4
      vertex 53.5355 -8 3.53553
      vertex 53 -7.72151 3.94646
    endloop
  endfacet
  facet normal 0.608761 1.7616e-16 0.793353
    outer loop
      vertex 53 -5 3.94646
      vertex 53 -7.72151 3.94646
      vertex 53.5355 -5 3.53553
    endloop
  endfacet
  facet normal 0 -1 2.22045e-16
    outer loop
      vertex 53 -8 3.4641
      vertex 53 -8 1.77636e-15
      vertex 55 -8 1.77636e-15
    endloop
  endfacet
  facet normal 0 -1 2.22045e-16
    outer loop
      vertex 54.3301 -8 2.5
      vertex 53 -8 3.4641
      vertex 54.8296 -8 1.2941
    endloop
  endfacet
  facet normal 0 -1 2.22045e-16
    outer loop
      vertex 54.8296 -8 1.2941
      vertex 53 -8 3.4641
      vertex 55 -8 1.77636e-15
    endloop
  endfacet
  facet normal 0 -1 2.22045e-16
    outer loop
      vertex 53.5355 -8 3.53553
      vertex 53 -8 3.4641
      vertex 54.3301 -8 2.5
    endloop
  endfacet
  facet normal 0 -1 2.22045e-16
    outer loop
      vertex 52.9302 -8 4
      vertex 53 -8 3.4641
      vertex 53.5355 -8 3.53553
    endloop
  endfacet
  facet normal 0 -1 2.22045e-16
    outer loop
      vertex 49 -8 2.03018
      vertex 52.9302 -8 4
      vertex 49 -8 4
    endloop
  endfacet
  facet normal 0 -1 2.22045e-16
    outer loop
      vertex 49 -8 2.03018
      vertex 53 -8 3.4641
      vertex 52.9302 -8 4
    endloop
  endfacet
  facet normal -1 0 0
    outer loop
      vertex 49 -8 4
      vertex 49 -6.86272 4
      vertex 49 -8 2.03018
    endloop
  endfacet
  facet normal 0 -1 0
    outer loop
      vertex 49 -8 -2.03018
      vertex 49 -8 -4
      vertex 52.9302 -8 -4
    endloop
  endfacet
  facet normal 0 -1 0
    outer loop
      vertex 54.3301 -8 -2.5
      vertex 49 -8 -2.03018
      vertex 53.5355 -8 -3.53553
    endloop
  endfacet
  facet normal 0 -1 0
    outer loop
      vertex 53.5355 -8 -3.53553
      vertex 49 -8 -2.03018
      vertex 52.9302 -8 -4
    endloop
  endfacet
  facet normal 0 -1 0
    outer loop
      vertex 54.8296 -8 -1.29409
      vertex 49 -8 -2.03018
      vertex 54.3301 -8 -2.5
    endloop
  endfacet
  facet normal 0 -1 0
    outer loop
      vertex 50 -8 -1.8
      vertex 49 -8 -2.03018
      vertex 54.8296 -8 -1.29409
    endloop
  endfacet
  facet normal 0 -1 0
    outer loop
      vertex 51.5588 -8 -0.9
      vertex 50.9 -8 -1.55885
      vertex 55 -8 1.77636e-15
    endloop
  endfacet
  facet normal 0 -1 0
    outer loop
      vertex 51.8 -8 1.77636e-15
      vertex 51.5588 -8 -0.9
      vertex 53 -8 1.77636e-15
    endloop
  endfacet
  facet normal 0 -1 0
    outer loop
      vertex 50.9 -8 1.55885
      vertex 51.5588 -8 0.9
      vertex 53 -8 3.4641
    endloop
  endfacet
  facet normal 0 -1 0
    outer loop
      vertex 46.2385 -8 1.04023
      vertex 48.2 -8 1.77636e-15
      vertex 48.4412 -8 0.9
    endloop
  endfacet
  facet normal 0 -1 0
    outer loop
      vertex 46.2385 -8 1.04023
      vertex 49.1 -8 1.55885
      vertex 53 -8 3.4641
    endloop
  endfacet
  facet normal 0 -1 0
    outer loop
      vertex 46.2385 -8 1.04023
      vertex 48.4412 -8 0.9
      vertex 49.1 -8 1.55885
    endloop
  endfacet
  facet normal 0 -1 0
    outer loop
      vertex 49.1 -8 1.55885
      vertex 50 -8 1.8
      vertex 53 -8 3.4641
    endloop
  endfacet
  facet normal 0 -1 0
    outer loop
      vertex 49.1 -8 -1.55885
      vertex 48.4412 -8 -0.9
      vertex 49 -8 -2.03018
    endloop
  endfacet
  facet normal 0 -1 0
    outer loop
      vertex 53 -8 3.4641
      vertex 51.5588 -8 0.9
      vertex 53 -8 1.77636e-15
    endloop
  endfacet
  facet normal 0 -1 0
    outer loop
      vertex 51.5588 -8 0.9
      vertex 51.8 -8 1.77636e-15
      vertex 53 -8 1.77636e-15
    endloop
  endfacet
  facet normal 0 -1 0
    outer loop
      vertex 53 -8 1.77636e-15
      vertex 51.5588 -8 -0.9
      vertex 55 -8 1.77636e-15
    endloop
  endfacet
  facet normal 0 -1 0
    outer loop
      vertex 55 -8 1.77636e-15
      vertex 50.9 -8 -1.55885
      vertex 54.8296 -8 -1.29409
    endloop
  endfacet
  facet normal 0 -1 0
    outer loop
      vertex 50.9 -8 -1.55885
      vertex 50 -8 -1.8
      vertex 54.8296 -8 -1.29409
    endloop
  endfacet
  facet normal 0 -1 0
    outer loop
      vertex 46.2385 -8 1.04023
      vertex 48.4412 -8 -0.9
      vertex 48.2 -8 1.77636e-15
    endloop
  endfacet
  facet normal 0 -1 0
    outer loop
      vertex 46.2385 -8 1.04023
      vertex 49 -8 -2.03018
      vertex 48.4412 -8 -0.9
    endloop
  endfacet
  facet normal 0 -1 0
    outer loop
      vertex 43.3367 -8 -1.28168e-08
      vertex 49 -8 -2.03018
      vertex 46.2385 -8 1.04023
    endloop
  endfacet
  facet normal 0 -1 0
    outer loop
      vertex 50 -8 1.8
      vertex 50.9 -8 1.55885
      vertex 53 -8 3.4641
    endloop
  endfacet
  facet normal 0 -1 0
    outer loop
      vertex 50 -8 -1.8
      vertex 49.1 -8 -1.55885
      vertex 49 -8 -2.03018
    endloop
  endfacet
  facet normal -0.176429 -0.85244 -0.492157
    outer loop
      vertex 43.3367 -8 -1.28168e-08
      vertex 27 -2.3094 -4
      vertex 49 -8 -2.03018
    endloop
  endfacet
  facet normal -0.176429 -0.85244 -0.492157
    outer loop
      vertex 49 -8 -2.03018
      vertex 27 -2.3094 -4
      vertex 49 -6.86272 -4
    endloop
  endfacet
  facet normal -0.176429 -0.85244 -0.492157
    outer loop
      vertex 27 -4.6188 -6.64748e-08
      vertex 27 -2.3094 -4
      vertex 43.3367 -8 -1.28168e-08
    endloop
  endfacet
  facet normal 0 0 -1
    outer loop
      vertex 49 6.86272 -4
      vertex 49 8 -4
      vertex 52.9302 8 -4
    endloop
  endfacet
  facet normal 0 0 -1
    outer loop
      vertex 49 6.86272 -4
      vertex 52.9302 8 -4
      vertex 52.9302 7.67616 -4
    endloop
  endfacet
  facet normal 0 0 -1
    outer loop
      vertex 52.9302 7.67616 -4
      vertex 53 7.6906 -4
      vertex 53 5 -4
    endloop
  endfacet
  facet normal 0 0 -1
    outer loop
      vertex 52.9302 7.67616 -4
      vertex 53 5 -4
      vertex 49 6.86272 -4
    endloop
  endfacet
  facet normal 0 0 -1
    outer loop
      vertex 49 6.86272 -4
      vertex 53 5 -4
      vertex 46.5 5 -4
    endloop
  endfacet
  facet normal 0 0 -1
    outer loop
      vertex 49 6.86272 -4
      vertex 46.5 5 -4
      vertex 27 2.3094 -4
    endloop
  endfacet
  facet normal 0 0 -1
    outer loop
      vertex 27 -2.3094 -4
      vertex 27 2.3094 -4
      vertex 49 -6.86272 -4
    endloop
  endfacet
  facet normal 0 0 -1
    outer loop
      vertex 42.9762 2.96555 -4
      vertex 40.8561 2.1 -4
      vertex 27 2.3094 -4
    endloop
  endfacet
  facet normal 0 0 -1
    outer loop
      vertex 40.8561 2.1 -4
      vertex 40.8561 -2.1 -4
      vertex 27 2.3094 -4
    endloop
  endfacet
  facet normal 0 0 -1
    outer loop
      vertex 40.8561 -2.1 -4
      vertex 42.9762 -2.96555 -4
      vertex 27 2.3094 -4
    endloop
  endfacet
  facet normal 0 0 -1
    outer loop
      vertex 42.9762 -2.96555 -4
      vertex 46.5 -5 -4
      vertex 27 2.3094 -4
    endloop
  endfacet
  facet normal 0 0 -1
    outer loop
      vertex 53 -7.6906 -4
      vertex 27 2.3094 -4
      vertex 46.5 -5 -4
    endloop
  endfacet
  facet normal 0 0 -1
    outer loop
      vertex 53 -5 -4
      vertex 53 -7.6906 -4
      vertex 46.5 -5 -4
    endloop
  endfacet
  facet normal 0 0 -1
    outer loop
      vertex 53 -7.6906 -4
      vertex 52.9302 -7.67616 -4
      vertex 27 2.3094 -4
    endloop
  endfacet
  facet normal 0 0 -1
    outer loop
      vertex 52.9302 -7.67616 -4
      vertex 52.9302 -8 -4
      vertex 27 2.3094 -4
    endloop
  endfacet
  facet normal 0 0 -1
    outer loop
      vertex 52.9302 -8 -4
      vertex 49 -8 -4
      vertex 49 -6.86272 -4
    endloop
  endfacet
  facet normal 0 0 -1
    outer loop
      vertex 52.9302 -8 -4
      vertex 49 -6.86272 -4
      vertex 27 2.3094 -4
    endloop
  endfacet
  facet normal 0 0 -1
    outer loop
      vertex 42.9762 2.96555 -4
      vertex 27 2.3094 -4
      vertex 46.5 5 -4
    endloop
  endfacet
  facet normal -1 0 0
    outer loop
      vertex 49 8 -2.03018
      vertex 49 8 -4
      vertex 49 6.86272 -4
    endloop
  endfacet
  facet normal 0 1 -2.22045e-16
    outer loop
      vertex 55 8 -1.77636e-15
      vertex 53 8 -2.88658e-15
      vertex 53 8 -1.77636e-15
    endloop
  endfacet
  facet normal 0 1 -2.22045e-16
    outer loop
      vertex 53 8 -3.4641
      vertex 53 8 -2.88658e-15
      vertex 55 8 -1.77636e-15
    endloop
  endfacet
  facet normal 0 1 -2.22045e-16
    outer loop
      vertex 53 8 -3.4641
      vertex 55 8 -1.77636e-15
      vertex 54.8296 8 -1.2941
    endloop
  endfacet
  facet normal 0 1 -2.22045e-16
    outer loop
      vertex 53 8 -3.4641
      vertex 54.8296 8 -1.2941
      vertex 54.3301 8 -2.5
    endloop
  endfacet
  facet normal 0 1 -2.22045e-16
    outer loop
      vertex 53 8 -3.4641
      vertex 54.3301 8 -2.5
      vertex 53.5355 8 -3.53553
    endloop
  endfacet
  facet normal 0 1 -2.22045e-16
    outer loop
      vertex 53 8 -3.4641
      vertex 53.5355 8 -3.53553
      vertex 52.9302 8 -4
    endloop
  endfacet
  facet normal 0 1 -2.22045e-16
    outer loop
      vertex 53 8 -3.4641
      vertex 52.9302 8 -4
      vertex 49 8 -2.03018
    endloop
  endfacet
  facet normal 0 1 -2.22045e-16
    outer loop
      vertex 52.9302 8 -4
      vertex 49 8 -4
      vertex 49 8 -2.03018
    endloop
  endfacet
  facet normal 0.991445 2.89827e-17 0.130526
    outer loop
      vertex 55 5 -1.11022e-15
      vertex 55 8 -1.77636e-15
      vertex 54.8296 8 1.29409
    endloop
  endfacet
  facet normal 0.991445 2.89827e-17 0.130526
    outer loop
      vertex 54.8296 5 1.29409
      vertex 55 5 -1.11022e-15
      vertex 54.8296 8 1.29409
    endloop
  endfacet
  facet normal 0.991445 -2.89827e-17 -0.130526
    outer loop
      vertex 54.8296 8 -1.2941
      vertex 55 8 -1.77636e-15
      vertex 55 5 -1.11022e-15
    endloop
  endfacet
  facet normal 0.991445 -2.89827e-17 -0.130526
    outer loop
      vertex 54.8296 5 -1.2941
      vertex 54.8296 8 -1.2941
      vertex 55 5 -1.11022e-15
    endloop
  endfacet
  facet normal 0.92388 8.49728e-17 0.382683
    outer loop
      vertex 54.8296 5 1.29409
      vertex 54.8296 8 1.29409
      vertex 54.3301 8 2.5
    endloop
  endfacet
  facet normal 0.92388 8.49728e-17 0.382683
    outer loop
      vertex 54.3301 5 2.5
      vertex 54.8296 5 1.29409
      vertex 54.3301 8 2.5
    endloop
  endfacet
  facet normal 0.793353 1.35172e-16 0.608761
    outer loop
      vertex 54.3301 5 2.5
      vertex 54.3301 8 2.5
      vertex 53.5355 8 3.53553
    endloop
  endfacet
  facet normal 0.793353 1.35172e-16 0.608761
    outer loop
      vertex 53.5355 5 3.53553
      vertex 54.3301 5 2.5
      vertex 53.5355 8 3.53553
    endloop
  endfacet
  facet normal 0.707107 1.57009e-16 0.707107
    outer loop
      vertex 48.4412 8 -0.9
      vertex 48.4412 5 -0.9
      vertex 49.1 5 -1.55885
    endloop
  endfacet
  facet normal 0.707107 1.57009e-16 0.707107
    outer loop
      vertex 49.1 8 -1.55885
      vertex 48.4412 8 -0.9
      vertex 49.1 5 -1.55885
    endloop
  endfacet
  facet normal 0.965926 5.74693e-17 0.258819
    outer loop
      vertex 48.2 8 -1.77636e-15
      vertex 48.2 5 -1.11022e-15
      vertex 48.4412 5 -0.9
    endloop
  endfacet
  facet normal 0.965926 5.74693e-17 0.258819
    outer loop
      vertex 48.4412 8 -0.9
      vertex 48.2 8 -1.77636e-15
      vertex 48.4412 5 -0.9
    endloop
  endfacet
  facet normal 0.965926 -5.74693e-17 -0.258819
    outer loop
      vertex 48.4412 5 0.9
      vertex 48.2 5 -1.11022e-15
      vertex 48.2 8 -1.77636e-15
    endloop
  endfacet
  facet normal 0.965926 -5.74693e-17 -0.258819
    outer loop
      vertex 48.4412 8 0.9
      vertex 48.4412 5 0.9
      vertex 48.2 8 -1.77636e-15
    endloop
  endfacet
  facet normal 0.707107 -1.57009e-16 -0.707107
    outer loop
      vertex 49.1 5 1.55885
      vertex 48.4412 5 0.9
      vertex 48.4412 8 0.9
    endloop
  endfacet
  facet normal 0.707107 -1.57009e-16 -0.707107
    outer loop
      vertex 49.1 8 1.55885
      vertex 49.1 5 1.55885
      vertex 48.4412 8 0.9
    endloop
  endfacet
  facet normal 0.258819 -2.14479e-16 -0.965926
    outer loop
      vertex 49.1 5 1.55885
      vertex 49.1 8 1.55885
      vertex 50 5 1.8
    endloop
  endfacet
  facet normal 0.258819 -2.14479e-16 -0.965926
    outer loop
      vertex 50 5 1.8
      vertex 49.1 8 1.55885
      vertex 50 8 1.8
    endloop
  endfacet
  facet normal -0.258819 -2.14479e-16 -0.965926
    outer loop
      vertex 50 5 1.8
      vertex 50 8 1.8
      vertex 50.9 5 1.55885
    endloop
  endfacet
  facet normal -0.258819 -2.14479e-16 -0.965926
    outer loop
      vertex 50.9 5 1.55885
      vertex 50 8 1.8
      vertex 50.9 8 1.55885
    endloop
  endfacet
  facet normal -0.707107 -1.57009e-16 -0.707107
    outer loop
      vertex 50.9 5 1.55885
      vertex 50.9 8 1.55885
      vertex 51.5588 5 0.9
    endloop
  endfacet
  facet normal -0.707107 -1.57009e-16 -0.707107
    outer loop
      vertex 51.5588 5 0.9
      vertex 50.9 8 1.55885
      vertex 51.5588 8 0.9
    endloop
  endfacet
  facet normal -0.965926 -5.74693e-17 -0.258819
    outer loop
      vertex 51.5588 5 0.9
      vertex 51.5588 8 0.9
      vertex 51.8 5 -1.11022e-15
    endloop
  endfacet
  facet normal -0.965926 -5.74693e-17 -0.258819
    outer loop
      vertex 51.8 5 -1.11022e-15
      vertex 51.5588 8 0.9
      vertex 51.8 8 -1.77636e-15
    endloop
  endfacet
  facet normal -0.965926 5.74693e-17 0.258819
    outer loop
      vertex 51.5588 5 -0.9
      vertex 51.8 5 -1.11022e-15
      vertex 51.5588 8 -0.9
    endloop
  endfacet
  facet normal -0.965926 5.74693e-17 0.258819
    outer loop
      vertex 51.5588 8 -0.9
      vertex 51.8 5 -1.11022e-15
      vertex 51.8 8 -1.77636e-15
    endloop
  endfacet
  facet normal -0.707107 1.57009e-16 0.707107
    outer loop
      vertex 50.9 5 -1.55885
      vertex 51.5588 5 -0.9
      vertex 50.9 8 -1.55885
    endloop
  endfacet
  facet normal -0.707107 1.57009e-16 0.707107
    outer loop
      vertex 50.9 8 -1.55885
      vertex 51.5588 5 -0.9
      vertex 51.5588 8 -0.9
    endloop
  endfacet
  facet normal -0.258819 2.14479e-16 0.965926
    outer loop
      vertex 50 8 -1.8
      vertex 50 5 -1.8
      vertex 50.9 5 -1.55885
    endloop
  endfacet
  facet normal -0.258819 2.14479e-16 0.965926
    outer loop
      vertex 50.9 8 -1.55885
      vertex 50 8 -1.8
      vertex 50.9 5 -1.55885
    endloop
  endfacet
  facet normal 0.258819 2.14479e-16 0.965926
    outer loop
      vertex 49.1 8 -1.55885
      vertex 49.1 5 -1.55885
      vertex 50 5 -1.8
    endloop
  endfacet
  facet normal 0.258819 2.14479e-16 0.965926
    outer loop
      vertex 50 8 -1.8
      vertex 49.1 8 -1.55885
      vertex 50 5 -1.8
    endloop
  endfacet
  facet normal 0.92388 -8.49728e-17 -0.382683
    outer loop
      vertex 54.3301 8 -2.5
      vertex 54.8296 8 -1.2941
      vertex 54.8296 5 -1.2941
    endloop
  endfacet
  facet normal 0.92388 -8.49728e-17 -0.382683
    outer loop
      vertex 54.3301 5 -2.5
      vertex 54.3301 8 -2.5
      vertex 54.8296 5 -1.2941
    endloop
  endfacet
  facet normal 0.793353 -1.35172e-16 -0.608761
    outer loop
      vertex 53.5355 8 -3.53553
      vertex 54.3301 8 -2.5
      vertex 54.3301 5 -2.5
    endloop
  endfacet
  facet normal 0.793353 -1.35172e-16 -0.608761
    outer loop
      vertex 53.5355 5 -3.53553
      vertex 53.5355 8 -3.53553
      vertex 54.3301 5 -2.5
    endloop
  endfacet
  facet normal 0.608761 -1.7616e-16 -0.793353
    outer loop
      vertex 52.9302 7.67616 -4
      vertex 52.9302 8 -4
      vertex 53 7.72151 -3.94646
    endloop
  endfacet
  facet normal 0.608761 -1.7616e-16 -0.793353
    outer loop
      vertex 53.5355 8 -3.53553
      vertex 53.5355 5 -3.53553
      vertex 53 7.72151 -3.94646
    endloop
  endfacet
  facet normal 0.608761 -1.7616e-16 -0.793353
    outer loop
      vertex 53.5355 8 -3.53553
      vertex 53 7.72151 -3.94646
      vertex 52.9302 8 -4
    endloop
  endfacet
  facet normal 0.608761 -1.7616e-16 -0.793353
    outer loop
      vertex 53 7.72151 -3.94646
      vertex 53.5355 5 -3.53553
      vertex 53 5 -3.94646
    endloop
  endfacet
  facet normal 1 0 -2.22045e-16
    outer loop
      vertex 53 7.6906 -4
      vertex 53 7.72151 -3.94646
      vertex 53 5 -3.94646
    endloop
  endfacet
  facet normal 1 0 -2.22045e-16
    outer loop
      vertex 53 5 -4
      vertex 53 7.6906 -4
      vertex 53 5 -3.94646
    endloop
  endfacet
  facet normal 1 1.89222e-09 0
    outer loop
      vertex 42.1699 2.1 -2.6862
      vertex 42.1699 2.5 -3.66599
      vertex 42.1699 2.5 3.66599
    endloop
  endfacet
  facet normal 1 1.89222e-09 0
    outer loop
      vertex 42.1699 -2.1 2.6862
      vertex 42.1699 2.1 -2.6862
      vertex 42.1699 2.1 2.6862
    endloop
  endfacet
  facet normal 1 1.89222e-09 0
    outer loop
      vertex 42.1699 2.1 2.6862
      vertex 42.1699 2.1 -2.6862
      vertex 42.1699 2.5 3.66599
    endloop
  endfacet
  facet normal 1 1.89222e-09 0
    outer loop
      vertex 42.1699 -2.5 -3.66599
      vertex 42.1699 -2.1 2.6862
      vertex 42.1699 -2.5 3.66599
    endloop
  endfacet
  facet normal 1 1.89222e-09 0
    outer loop
      vertex 42.1699 -2.5 -3.66599
      vertex 42.1699 -2.1 -2.6862
      vertex 42.1699 -2.1 2.6862
    endloop
  endfacet
  facet normal 1 1.89222e-09 0
    outer loop
      vertex 42.1699 -2.1 -2.6862
      vertex 42.1699 2.1 -2.6862
      vertex 42.1699 -2.1 2.6862
    endloop
  endfacet
  facet normal 0.353553 -0.866025 -0.353553
    outer loop
      vertex 42.1699 2.5 -3.66599
      vertex 40.8561 2.1 -4
      vertex 42.9762 2.96555 -4
    endloop
  endfacet
  facet normal 0.353553 -0.866025 -0.353553
    outer loop
      vertex 42.1699 2.1 -2.6862
      vertex 40.8561 2.1 -4
      vertex 42.1699 2.5 -3.66599
    endloop
  endfacet
  facet normal 0.353553 0.866025 -0.353553
    outer loop
      vertex 40.8561 -2.1 -4
      vertex 42.1699 -2.5 -3.66599
      vertex 42.9762 -2.96555 -4
    endloop
  endfacet
  facet normal 0.353553 0.866025 -0.353553
    outer loop
      vertex 40.8561 -2.1 -4
      vertex 42.1699 -2.1 -2.6862
      vertex 42.1699 -2.5 -3.66599
    endloop
  endfacet
  facet normal 1 0 -2.22045e-16
    outer loop
      vertex 53 -5 -4
      vertex 53 -5 -3.94646
      vertex 53 -7.72151 -3.94646
    endloop
  endfacet
  facet normal 1 0 -2.22045e-16
    outer loop
      vertex 53 -7.6906 -4
      vertex 53 -5 -4
      vertex 53 -7.72151 -3.94646
    endloop
  endfacet
  facet normal 0.608761 -1.7616e-16 -0.793353
    outer loop
      vertex 53 -7.72151 -3.94646
      vertex 53 -5 -3.94646
      vertex 53.5355 -5 -3.53553
    endloop
  endfacet
  facet normal 0.608761 -1.7616e-16 -0.793353
    outer loop
      vertex 53 -7.72151 -3.94646
      vertex 53.5355 -5 -3.53553
      vertex 53.5355 -8 -3.53553
    endloop
  endfacet
  facet normal 0.608761 -1.7616e-16 -0.793353
    outer loop
      vertex 53 -7.72151 -3.94646
      vertex 53.5355 -8 -3.53553
      vertex 52.9302 -8 -4
    endloop
  endfacet
  facet normal 0.608761 -1.7616e-16 -0.793353
    outer loop
      vertex 53 -7.72151 -3.94646
      vertex 52.9302 -8 -4
      vertex 52.9302 -7.67616 -4
    endloop
  endfacet
  facet normal 0.793353 -1.35172e-16 -0.608761
    outer loop
      vertex 53.5355 -5 -3.53553
      vertex 54.3301 -5 -2.5
      vertex 54.3301 -8 -2.5
    endloop
  endfacet
  facet normal 0.793353 -1.35172e-16 -0.608761
    outer loop
      vertex 53.5355 -8 -3.53553
      vertex 53.5355 -5 -3.53553
      vertex 54.3301 -8 -2.5
    endloop
  endfacet
  facet normal 0.92388 -8.49728e-17 -0.382683
    outer loop
      vertex 54.3301 -5 -2.5
      vertex 54.8296 -5 -1.29409
      vertex 54.8296 -8 -1.29409
    endloop
  endfacet
  facet normal 0.92388 -8.49728e-17 -0.382683
    outer loop
      vertex 54.3301 -8 -2.5
      vertex 54.3301 -5 -2.5
      vertex 54.8296 -8 -1.29409
    endloop
  endfacet
  facet normal 0.991445 -2.89827e-17 -0.130526
    outer loop
      vertex 54.8296 -5 -1.29409
      vertex 55 -5 1.11022e-15
      vertex 55 -8 1.77636e-15
    endloop
  endfacet
  facet normal 0.991445 -2.89827e-17 -0.130526
    outer loop
      vertex 54.8296 -8 -1.29409
      vertex 54.8296 -5 -1.29409
      vertex 55 -8 1.77636e-15
    endloop
  endfacet
  facet normal 0.991445 2.89827e-17 0.130526
    outer loop
      vertex 55 -8 1.77636e-15
      vertex 55 -5 1.11022e-15
      vertex 54.8296 -5 1.2941
    endloop
  endfacet
  facet normal 0.991445 2.89827e-17 0.130526
    outer loop
      vertex 54.8296 -8 1.2941
      vertex 55 -8 1.77636e-15
      vertex 54.8296 -5 1.2941
    endloop
  endfacet
  facet normal 0.92388 8.49728e-17 0.382683
    outer loop
      vertex 54.8296 -8 1.2941
      vertex 54.8296 -5 1.2941
      vertex 54.3301 -5 2.5
    endloop
  endfacet
  facet normal 0.92388 8.49728e-17 0.382683
    outer loop
      vertex 54.3301 -8 2.5
      vertex 54.8296 -8 1.2941
      vertex 54.3301 -5 2.5
    endloop
  endfacet
  facet normal 0.793353 1.35172e-16 0.608761
    outer loop
      vertex 54.3301 -8 2.5
      vertex 54.3301 -5 2.5
      vertex 53.5355 -5 3.53553
    endloop
  endfacet
  facet normal 0.793353 1.35172e-16 0.608761
    outer loop
      vertex 53.5355 -8 3.53553
      vertex 54.3301 -8 2.5
      vertex 53.5355 -5 3.53553
    endloop
  endfacet
  facet normal 0.965926 -5.74693e-17 -0.258819
    outer loop
      vertex 48.4412 -8 0.9
      vertex 48.2 -8 1.77636e-15
      vertex 48.2 -5 1.11022e-15
    endloop
  endfacet
  facet normal 0.965926 -5.74693e-17 -0.258819
    outer loop
      vertex 48.4412 -5 0.9
      vertex 48.4412 -8 0.9
      vertex 48.2 -5 1.11022e-15
    endloop
  endfacet
  facet normal 0.965926 5.74693e-17 0.258819
    outer loop
      vertex 48.2 -5 1.11022e-15
      vertex 48.2 -8 1.77636e-15
      vertex 48.4412 -8 -0.9
    endloop
  endfacet
  facet normal 0.965926 5.74693e-17 0.258819
    outer loop
      vertex 48.4412 -5 -0.9
      vertex 48.2 -5 1.11022e-15
      vertex 48.4412 -8 -0.9
    endloop
  endfacet
  facet normal 0.707107 -1.57009e-16 -0.707107
    outer loop
      vertex 49.1 -8 1.55885
      vertex 48.4412 -8 0.9
      vertex 48.4412 -5 0.9
    endloop
  endfacet
  facet normal 0.707107 -1.57009e-16 -0.707107
    outer loop
      vertex 49.1 -5 1.55885
      vertex 49.1 -8 1.55885
      vertex 48.4412 -5 0.9
    endloop
  endfacet
  facet normal 0.258819 -2.14479e-16 -0.965926
    outer loop
      vertex 49.1 -8 1.55885
      vertex 49.1 -5 1.55885
      vertex 50 -8 1.8
    endloop
  endfacet
  facet normal 0.258819 -2.14479e-16 -0.965926
    outer loop
      vertex 50 -8 1.8
      vertex 49.1 -5 1.55885
      vertex 50 -5 1.8
    endloop
  endfacet
  facet normal -0.258819 -2.14479e-16 -0.965926
    outer loop
      vertex 50 -8 1.8
      vertex 50 -5 1.8
      vertex 50.9 -8 1.55885
    endloop
  endfacet
  facet normal -0.258819 -2.14479e-16 -0.965926
    outer loop
      vertex 50.9 -8 1.55885
      vertex 50 -5 1.8
      vertex 50.9 -5 1.55885
    endloop
  endfacet
  facet normal -0.707107 -1.57009e-16 -0.707107
    outer loop
      vertex 50.9 -8 1.55885
      vertex 50.9 -5 1.55885
      vertex 51.5588 -8 0.9
    endloop
  endfacet
  facet normal -0.707107 -1.57009e-16 -0.707107
    outer loop
      vertex 51.5588 -8 0.9
      vertex 50.9 -5 1.55885
      vertex 51.5588 -5 0.9
    endloop
  endfacet
  facet normal -0.965926 -5.74693e-17 -0.258819
    outer loop
      vertex 51.5588 -8 0.9
      vertex 51.5588 -5 0.9
      vertex 51.8 -8 1.77636e-15
    endloop
  endfacet
  facet normal -0.965926 -5.74693e-17 -0.258819
    outer loop
      vertex 51.8 -8 1.77636e-15
      vertex 51.5588 -5 0.9
      vertex 51.8 -5 1.11022e-15
    endloop
  endfacet
  facet normal -0.965926 5.74693e-17 0.258819
    outer loop
      vertex 51.5588 -8 -0.9
      vertex 51.8 -8 1.77636e-15
      vertex 51.5588 -5 -0.9
    endloop
  endfacet
  facet normal -0.965926 5.74693e-17 0.258819
    outer loop
      vertex 51.5588 -5 -0.9
      vertex 51.8 -8 1.77636e-15
      vertex 51.8 -5 1.11022e-15
    endloop
  endfacet
  facet normal -0.707107 1.57009e-16 0.707107
    outer loop
      vertex 50.9 -8 -1.55885
      vertex 51.5588 -8 -0.9
      vertex 50.9 -5 -1.55885
    endloop
  endfacet
  facet normal -0.707107 1.57009e-16 0.707107
    outer loop
      vertex 50.9 -5 -1.55885
      vertex 51.5588 -8 -0.9
      vertex 51.5588 -5 -0.9
    endloop
  endfacet
  facet normal -0.258819 2.14479e-16 0.965926
    outer loop
      vertex 50 -5 -1.8
      vertex 50 -8 -1.8
      vertex 50.9 -8 -1.55885
    endloop
  endfacet
  facet normal -0.258819 2.14479e-16 0.965926
    outer loop
      vertex 50.9 -5 -1.55885
      vertex 50 -5 -1.8
      vertex 50.9 -8 -1.55885
    endloop
  endfacet
  facet normal 0.258819 2.14479e-16 0.965926
    outer loop
      vertex 49.1 -5 -1.55885
      vertex 49.1 -8 -1.55885
      vertex 50 -8 -1.8
    endloop
  endfacet
  facet normal 0.258819 2.14479e-16 0.965926
    outer loop
      vertex 50 -5 -1.8
      vertex 49.1 -5 -1.55885
      vertex 50 -8 -1.8
    endloop
  endfacet
  facet normal 0.707107 1.57009e-16 0.707107
    outer loop
      vertex 48.4412 -5 -0.9
      vertex 48.4412 -8 -0.9
      vertex 49.1 -8 -1.55885
    endloop
  endfacet
  facet normal 0.707107 1.57009e-16 0.707107
    outer loop
      vertex 49.1 -5 -1.55885
      vertex 48.4412 -5 -0.9
      vertex 49.1 -8 -1.55885
    endloop
  endfacet
  facet normal -1 0 0
    outer loop
      vertex 49 -8 -2.03018
      vertex 49 -6.86272 -4
      vertex 49 -8 -4
    endloop
  endfacet
  facet normal -0.176429 -0.85244 -0.492157
    outer loop
      vertex 53 -7.6906 -4
      vertex 53 -7.72151 -3.94646
      vertex 52.9302 -7.67616 -4
    endloop
  endfacet
  facet normal 0.707107 -3.6203e-08 -0.707107
    outer loop
      vertex 40.8561 -2.1 -4
      vertex 40.8561 2.1 -4
      vertex 42.1699 -2.1 -2.6862
    endloop
  endfacet
  facet normal 0.707107 -3.6203e-08 -0.707107
    outer loop
      vertex 42.1699 -2.1 -2.6862
      vertex 40.8561 2.1 -4
      vertex 42.1699 2.1 -2.6862
    endloop
  endfacet
  facet normal -0.176429 0.85244 -0.492157
    outer loop
      vertex 53 7.72151 -3.94646
      vertex 53 7.6906 -4
      vertex 52.9302 7.67616 -4
    endloop
  endfacet
endsolid OpenSCAD_Model
